G75*
%MOIN*%
%OFA0B0*%
%FSLAX25Y25*%
%IPPOS*%
%LPD*%
%AMOC8*
5,1,8,0,0,1.08239X$1,22.5*
%
%ADD10C,0.00000*%
%ADD11C,0.01000*%
%ADD12C,0.00500*%
%ADD13C,0.00600*%
D10*
X0095551Y0157756D02*
X0390827Y0157756D01*
X0391112Y0157759D01*
X0391398Y0157770D01*
X0391683Y0157787D01*
X0391967Y0157811D01*
X0392251Y0157842D01*
X0392534Y0157880D01*
X0392815Y0157925D01*
X0393096Y0157976D01*
X0393376Y0158034D01*
X0393654Y0158099D01*
X0393930Y0158171D01*
X0394204Y0158249D01*
X0394477Y0158334D01*
X0394747Y0158426D01*
X0395015Y0158524D01*
X0395281Y0158628D01*
X0395544Y0158739D01*
X0395804Y0158856D01*
X0396062Y0158979D01*
X0396316Y0159109D01*
X0396567Y0159245D01*
X0396815Y0159386D01*
X0397059Y0159534D01*
X0397300Y0159687D01*
X0397536Y0159847D01*
X0397769Y0160012D01*
X0397998Y0160182D01*
X0398223Y0160358D01*
X0398443Y0160540D01*
X0398659Y0160726D01*
X0398870Y0160918D01*
X0399077Y0161115D01*
X0399279Y0161317D01*
X0399476Y0161524D01*
X0399668Y0161735D01*
X0399854Y0161951D01*
X0400036Y0162171D01*
X0400212Y0162396D01*
X0400382Y0162625D01*
X0400547Y0162858D01*
X0400707Y0163094D01*
X0400860Y0163335D01*
X0401008Y0163579D01*
X0401149Y0163827D01*
X0401285Y0164078D01*
X0401415Y0164332D01*
X0401538Y0164590D01*
X0401655Y0164850D01*
X0401766Y0165113D01*
X0401870Y0165379D01*
X0401968Y0165647D01*
X0402060Y0165917D01*
X0402145Y0166190D01*
X0402223Y0166464D01*
X0402295Y0166740D01*
X0402360Y0167018D01*
X0402418Y0167298D01*
X0402469Y0167579D01*
X0402514Y0167860D01*
X0402552Y0168143D01*
X0402583Y0168427D01*
X0402607Y0168711D01*
X0402624Y0168996D01*
X0402635Y0169282D01*
X0402638Y0169567D01*
X0402638Y0401850D01*
X0402635Y0402135D01*
X0402624Y0402421D01*
X0402607Y0402706D01*
X0402583Y0402990D01*
X0402552Y0403274D01*
X0402514Y0403557D01*
X0402469Y0403838D01*
X0402418Y0404119D01*
X0402360Y0404399D01*
X0402295Y0404677D01*
X0402223Y0404953D01*
X0402145Y0405227D01*
X0402060Y0405500D01*
X0401968Y0405770D01*
X0401870Y0406038D01*
X0401766Y0406304D01*
X0401655Y0406567D01*
X0401538Y0406827D01*
X0401415Y0407085D01*
X0401285Y0407339D01*
X0401149Y0407590D01*
X0401008Y0407838D01*
X0400860Y0408082D01*
X0400707Y0408323D01*
X0400547Y0408559D01*
X0400382Y0408792D01*
X0400212Y0409021D01*
X0400036Y0409246D01*
X0399854Y0409466D01*
X0399668Y0409682D01*
X0399476Y0409893D01*
X0399279Y0410100D01*
X0399077Y0410302D01*
X0398870Y0410499D01*
X0398659Y0410691D01*
X0398443Y0410877D01*
X0398223Y0411059D01*
X0397998Y0411235D01*
X0397769Y0411405D01*
X0397536Y0411570D01*
X0397300Y0411730D01*
X0397059Y0411883D01*
X0396815Y0412031D01*
X0396567Y0412172D01*
X0396316Y0412308D01*
X0396062Y0412438D01*
X0395804Y0412561D01*
X0395544Y0412678D01*
X0395281Y0412789D01*
X0395015Y0412893D01*
X0394747Y0412991D01*
X0394477Y0413083D01*
X0394204Y0413168D01*
X0393930Y0413246D01*
X0393654Y0413318D01*
X0393376Y0413383D01*
X0393096Y0413441D01*
X0392815Y0413492D01*
X0392534Y0413537D01*
X0392251Y0413575D01*
X0391967Y0413606D01*
X0391683Y0413630D01*
X0391398Y0413647D01*
X0391112Y0413658D01*
X0390827Y0413661D01*
X0095551Y0413661D01*
X0095266Y0413658D01*
X0094980Y0413647D01*
X0094695Y0413630D01*
X0094411Y0413606D01*
X0094127Y0413575D01*
X0093844Y0413537D01*
X0093563Y0413492D01*
X0093282Y0413441D01*
X0093002Y0413383D01*
X0092724Y0413318D01*
X0092448Y0413246D01*
X0092174Y0413168D01*
X0091901Y0413083D01*
X0091631Y0412991D01*
X0091363Y0412893D01*
X0091097Y0412789D01*
X0090834Y0412678D01*
X0090574Y0412561D01*
X0090316Y0412438D01*
X0090062Y0412308D01*
X0089811Y0412172D01*
X0089563Y0412031D01*
X0089319Y0411883D01*
X0089078Y0411730D01*
X0088842Y0411570D01*
X0088609Y0411405D01*
X0088380Y0411235D01*
X0088155Y0411059D01*
X0087935Y0410877D01*
X0087719Y0410691D01*
X0087508Y0410499D01*
X0087301Y0410302D01*
X0087099Y0410100D01*
X0086902Y0409893D01*
X0086710Y0409682D01*
X0086524Y0409466D01*
X0086342Y0409246D01*
X0086166Y0409021D01*
X0085996Y0408792D01*
X0085831Y0408559D01*
X0085671Y0408323D01*
X0085518Y0408082D01*
X0085370Y0407838D01*
X0085229Y0407590D01*
X0085093Y0407339D01*
X0084963Y0407085D01*
X0084840Y0406827D01*
X0084723Y0406567D01*
X0084612Y0406304D01*
X0084508Y0406038D01*
X0084410Y0405770D01*
X0084318Y0405500D01*
X0084233Y0405227D01*
X0084155Y0404953D01*
X0084083Y0404677D01*
X0084018Y0404399D01*
X0083960Y0404119D01*
X0083909Y0403838D01*
X0083864Y0403557D01*
X0083826Y0403274D01*
X0083795Y0402990D01*
X0083771Y0402706D01*
X0083754Y0402421D01*
X0083743Y0402135D01*
X0083740Y0401850D01*
X0083740Y0346732D01*
X0150669Y0346732D01*
X0150669Y0267992D01*
X0233346Y0267992D01*
X0233346Y0220748D01*
X0150669Y0220748D01*
X0150669Y0193189D01*
X0083740Y0193189D01*
X0083740Y0169567D01*
X0083743Y0169282D01*
X0083754Y0168996D01*
X0083771Y0168711D01*
X0083795Y0168427D01*
X0083826Y0168143D01*
X0083864Y0167860D01*
X0083909Y0167579D01*
X0083960Y0167298D01*
X0084018Y0167018D01*
X0084083Y0166740D01*
X0084155Y0166464D01*
X0084233Y0166190D01*
X0084318Y0165917D01*
X0084410Y0165647D01*
X0084508Y0165379D01*
X0084612Y0165113D01*
X0084723Y0164850D01*
X0084840Y0164590D01*
X0084963Y0164332D01*
X0085093Y0164078D01*
X0085229Y0163827D01*
X0085370Y0163579D01*
X0085518Y0163335D01*
X0085671Y0163094D01*
X0085831Y0162858D01*
X0085996Y0162625D01*
X0086166Y0162396D01*
X0086342Y0162171D01*
X0086524Y0161951D01*
X0086710Y0161735D01*
X0086902Y0161524D01*
X0087099Y0161317D01*
X0087301Y0161115D01*
X0087508Y0160918D01*
X0087719Y0160726D01*
X0087935Y0160540D01*
X0088155Y0160358D01*
X0088380Y0160182D01*
X0088609Y0160012D01*
X0088842Y0159847D01*
X0089078Y0159687D01*
X0089319Y0159534D01*
X0089563Y0159386D01*
X0089811Y0159245D01*
X0090062Y0159109D01*
X0090316Y0158979D01*
X0090574Y0158856D01*
X0090834Y0158739D01*
X0091097Y0158628D01*
X0091363Y0158524D01*
X0091631Y0158426D01*
X0091901Y0158334D01*
X0092174Y0158249D01*
X0092448Y0158171D01*
X0092724Y0158099D01*
X0093002Y0158034D01*
X0093282Y0157976D01*
X0093563Y0157925D01*
X0093844Y0157880D01*
X0094127Y0157842D01*
X0094411Y0157811D01*
X0094695Y0157787D01*
X0094980Y0157770D01*
X0095266Y0157759D01*
X0095551Y0157756D01*
X0092205Y0171535D02*
X0092207Y0171680D01*
X0092213Y0171825D01*
X0092223Y0171970D01*
X0092237Y0172115D01*
X0092255Y0172259D01*
X0092276Y0172402D01*
X0092302Y0172545D01*
X0092331Y0172687D01*
X0092365Y0172829D01*
X0092402Y0172969D01*
X0092443Y0173108D01*
X0092488Y0173246D01*
X0092537Y0173383D01*
X0092589Y0173519D01*
X0092645Y0173653D01*
X0092705Y0173785D01*
X0092768Y0173916D01*
X0092835Y0174044D01*
X0092905Y0174172D01*
X0092979Y0174297D01*
X0093056Y0174420D01*
X0093136Y0174540D01*
X0093220Y0174659D01*
X0093307Y0174775D01*
X0093397Y0174889D01*
X0093490Y0175001D01*
X0093586Y0175109D01*
X0093686Y0175215D01*
X0093787Y0175319D01*
X0093892Y0175419D01*
X0094000Y0175517D01*
X0094110Y0175612D01*
X0094222Y0175703D01*
X0094337Y0175792D01*
X0094455Y0175877D01*
X0094575Y0175959D01*
X0094697Y0176038D01*
X0094821Y0176114D01*
X0094947Y0176186D01*
X0095075Y0176254D01*
X0095205Y0176319D01*
X0095336Y0176381D01*
X0095469Y0176438D01*
X0095604Y0176493D01*
X0095740Y0176543D01*
X0095878Y0176590D01*
X0096016Y0176633D01*
X0096156Y0176672D01*
X0096297Y0176707D01*
X0096439Y0176739D01*
X0096581Y0176766D01*
X0096724Y0176790D01*
X0096868Y0176810D01*
X0097013Y0176826D01*
X0097157Y0176838D01*
X0097302Y0176846D01*
X0097447Y0176850D01*
X0097593Y0176850D01*
X0097738Y0176846D01*
X0097883Y0176838D01*
X0098027Y0176826D01*
X0098172Y0176810D01*
X0098316Y0176790D01*
X0098459Y0176766D01*
X0098601Y0176739D01*
X0098743Y0176707D01*
X0098884Y0176672D01*
X0099024Y0176633D01*
X0099162Y0176590D01*
X0099300Y0176543D01*
X0099436Y0176493D01*
X0099571Y0176438D01*
X0099704Y0176381D01*
X0099835Y0176319D01*
X0099965Y0176254D01*
X0100093Y0176186D01*
X0100219Y0176114D01*
X0100343Y0176038D01*
X0100465Y0175959D01*
X0100585Y0175877D01*
X0100703Y0175792D01*
X0100818Y0175703D01*
X0100930Y0175612D01*
X0101040Y0175517D01*
X0101148Y0175419D01*
X0101253Y0175319D01*
X0101354Y0175215D01*
X0101454Y0175109D01*
X0101550Y0175001D01*
X0101643Y0174889D01*
X0101733Y0174775D01*
X0101820Y0174659D01*
X0101904Y0174540D01*
X0101984Y0174420D01*
X0102061Y0174297D01*
X0102135Y0174172D01*
X0102205Y0174044D01*
X0102272Y0173916D01*
X0102335Y0173785D01*
X0102395Y0173653D01*
X0102451Y0173519D01*
X0102503Y0173383D01*
X0102552Y0173246D01*
X0102597Y0173108D01*
X0102638Y0172969D01*
X0102675Y0172829D01*
X0102709Y0172687D01*
X0102738Y0172545D01*
X0102764Y0172402D01*
X0102785Y0172259D01*
X0102803Y0172115D01*
X0102817Y0171970D01*
X0102827Y0171825D01*
X0102833Y0171680D01*
X0102835Y0171535D01*
X0102833Y0171390D01*
X0102827Y0171245D01*
X0102817Y0171100D01*
X0102803Y0170955D01*
X0102785Y0170811D01*
X0102764Y0170668D01*
X0102738Y0170525D01*
X0102709Y0170383D01*
X0102675Y0170241D01*
X0102638Y0170101D01*
X0102597Y0169962D01*
X0102552Y0169824D01*
X0102503Y0169687D01*
X0102451Y0169551D01*
X0102395Y0169417D01*
X0102335Y0169285D01*
X0102272Y0169154D01*
X0102205Y0169026D01*
X0102135Y0168898D01*
X0102061Y0168773D01*
X0101984Y0168650D01*
X0101904Y0168530D01*
X0101820Y0168411D01*
X0101733Y0168295D01*
X0101643Y0168181D01*
X0101550Y0168069D01*
X0101454Y0167961D01*
X0101354Y0167855D01*
X0101253Y0167751D01*
X0101148Y0167651D01*
X0101040Y0167553D01*
X0100930Y0167458D01*
X0100818Y0167367D01*
X0100703Y0167278D01*
X0100585Y0167193D01*
X0100465Y0167111D01*
X0100343Y0167032D01*
X0100219Y0166956D01*
X0100093Y0166884D01*
X0099965Y0166816D01*
X0099835Y0166751D01*
X0099704Y0166689D01*
X0099571Y0166632D01*
X0099436Y0166577D01*
X0099300Y0166527D01*
X0099162Y0166480D01*
X0099024Y0166437D01*
X0098884Y0166398D01*
X0098743Y0166363D01*
X0098601Y0166331D01*
X0098459Y0166304D01*
X0098316Y0166280D01*
X0098172Y0166260D01*
X0098027Y0166244D01*
X0097883Y0166232D01*
X0097738Y0166224D01*
X0097593Y0166220D01*
X0097447Y0166220D01*
X0097302Y0166224D01*
X0097157Y0166232D01*
X0097013Y0166244D01*
X0096868Y0166260D01*
X0096724Y0166280D01*
X0096581Y0166304D01*
X0096439Y0166331D01*
X0096297Y0166363D01*
X0096156Y0166398D01*
X0096016Y0166437D01*
X0095878Y0166480D01*
X0095740Y0166527D01*
X0095604Y0166577D01*
X0095469Y0166632D01*
X0095336Y0166689D01*
X0095205Y0166751D01*
X0095075Y0166816D01*
X0094947Y0166884D01*
X0094821Y0166956D01*
X0094697Y0167032D01*
X0094575Y0167111D01*
X0094455Y0167193D01*
X0094337Y0167278D01*
X0094222Y0167367D01*
X0094110Y0167458D01*
X0094000Y0167553D01*
X0093892Y0167651D01*
X0093787Y0167751D01*
X0093686Y0167855D01*
X0093586Y0167961D01*
X0093490Y0168069D01*
X0093397Y0168181D01*
X0093307Y0168295D01*
X0093220Y0168411D01*
X0093136Y0168530D01*
X0093056Y0168650D01*
X0092979Y0168773D01*
X0092905Y0168898D01*
X0092835Y0169026D01*
X0092768Y0169154D01*
X0092705Y0169285D01*
X0092645Y0169417D01*
X0092589Y0169551D01*
X0092537Y0169687D01*
X0092488Y0169824D01*
X0092443Y0169962D01*
X0092402Y0170101D01*
X0092365Y0170241D01*
X0092331Y0170383D01*
X0092302Y0170525D01*
X0092276Y0170668D01*
X0092255Y0170811D01*
X0092237Y0170955D01*
X0092223Y0171100D01*
X0092213Y0171245D01*
X0092207Y0171390D01*
X0092205Y0171535D01*
X0160669Y0190827D02*
X0160671Y0190991D01*
X0160677Y0191155D01*
X0160687Y0191319D01*
X0160701Y0191483D01*
X0160719Y0191646D01*
X0160741Y0191809D01*
X0160768Y0191971D01*
X0160798Y0192133D01*
X0160832Y0192293D01*
X0160870Y0192453D01*
X0160911Y0192612D01*
X0160957Y0192770D01*
X0161007Y0192926D01*
X0161060Y0193082D01*
X0161117Y0193236D01*
X0161178Y0193388D01*
X0161243Y0193539D01*
X0161312Y0193689D01*
X0161384Y0193836D01*
X0161459Y0193982D01*
X0161539Y0194126D01*
X0161621Y0194268D01*
X0161707Y0194408D01*
X0161797Y0194545D01*
X0161890Y0194681D01*
X0161986Y0194814D01*
X0162086Y0194945D01*
X0162188Y0195073D01*
X0162294Y0195199D01*
X0162403Y0195322D01*
X0162515Y0195442D01*
X0162629Y0195560D01*
X0162747Y0195674D01*
X0162867Y0195786D01*
X0162990Y0195895D01*
X0163116Y0196001D01*
X0163244Y0196103D01*
X0163375Y0196203D01*
X0163508Y0196299D01*
X0163644Y0196392D01*
X0163781Y0196482D01*
X0163921Y0196568D01*
X0164063Y0196650D01*
X0164207Y0196730D01*
X0164353Y0196805D01*
X0164500Y0196877D01*
X0164650Y0196946D01*
X0164801Y0197011D01*
X0164953Y0197072D01*
X0165107Y0197129D01*
X0165263Y0197182D01*
X0165419Y0197232D01*
X0165577Y0197278D01*
X0165736Y0197319D01*
X0165896Y0197357D01*
X0166056Y0197391D01*
X0166218Y0197421D01*
X0166380Y0197448D01*
X0166543Y0197470D01*
X0166706Y0197488D01*
X0166870Y0197502D01*
X0167034Y0197512D01*
X0167198Y0197518D01*
X0167362Y0197520D01*
X0167526Y0197518D01*
X0167690Y0197512D01*
X0167854Y0197502D01*
X0168018Y0197488D01*
X0168181Y0197470D01*
X0168344Y0197448D01*
X0168506Y0197421D01*
X0168668Y0197391D01*
X0168828Y0197357D01*
X0168988Y0197319D01*
X0169147Y0197278D01*
X0169305Y0197232D01*
X0169461Y0197182D01*
X0169617Y0197129D01*
X0169771Y0197072D01*
X0169923Y0197011D01*
X0170074Y0196946D01*
X0170224Y0196877D01*
X0170371Y0196805D01*
X0170517Y0196730D01*
X0170661Y0196650D01*
X0170803Y0196568D01*
X0170943Y0196482D01*
X0171080Y0196392D01*
X0171216Y0196299D01*
X0171349Y0196203D01*
X0171480Y0196103D01*
X0171608Y0196001D01*
X0171734Y0195895D01*
X0171857Y0195786D01*
X0171977Y0195674D01*
X0172095Y0195560D01*
X0172209Y0195442D01*
X0172321Y0195322D01*
X0172430Y0195199D01*
X0172536Y0195073D01*
X0172638Y0194945D01*
X0172738Y0194814D01*
X0172834Y0194681D01*
X0172927Y0194545D01*
X0173017Y0194408D01*
X0173103Y0194268D01*
X0173185Y0194126D01*
X0173265Y0193982D01*
X0173340Y0193836D01*
X0173412Y0193689D01*
X0173481Y0193539D01*
X0173546Y0193388D01*
X0173607Y0193236D01*
X0173664Y0193082D01*
X0173717Y0192926D01*
X0173767Y0192770D01*
X0173813Y0192612D01*
X0173854Y0192453D01*
X0173892Y0192293D01*
X0173926Y0192133D01*
X0173956Y0191971D01*
X0173983Y0191809D01*
X0174005Y0191646D01*
X0174023Y0191483D01*
X0174037Y0191319D01*
X0174047Y0191155D01*
X0174053Y0190991D01*
X0174055Y0190827D01*
X0174053Y0190663D01*
X0174047Y0190499D01*
X0174037Y0190335D01*
X0174023Y0190171D01*
X0174005Y0190008D01*
X0173983Y0189845D01*
X0173956Y0189683D01*
X0173926Y0189521D01*
X0173892Y0189361D01*
X0173854Y0189201D01*
X0173813Y0189042D01*
X0173767Y0188884D01*
X0173717Y0188728D01*
X0173664Y0188572D01*
X0173607Y0188418D01*
X0173546Y0188266D01*
X0173481Y0188115D01*
X0173412Y0187965D01*
X0173340Y0187818D01*
X0173265Y0187672D01*
X0173185Y0187528D01*
X0173103Y0187386D01*
X0173017Y0187246D01*
X0172927Y0187109D01*
X0172834Y0186973D01*
X0172738Y0186840D01*
X0172638Y0186709D01*
X0172536Y0186581D01*
X0172430Y0186455D01*
X0172321Y0186332D01*
X0172209Y0186212D01*
X0172095Y0186094D01*
X0171977Y0185980D01*
X0171857Y0185868D01*
X0171734Y0185759D01*
X0171608Y0185653D01*
X0171480Y0185551D01*
X0171349Y0185451D01*
X0171216Y0185355D01*
X0171080Y0185262D01*
X0170943Y0185172D01*
X0170803Y0185086D01*
X0170661Y0185004D01*
X0170517Y0184924D01*
X0170371Y0184849D01*
X0170224Y0184777D01*
X0170074Y0184708D01*
X0169923Y0184643D01*
X0169771Y0184582D01*
X0169617Y0184525D01*
X0169461Y0184472D01*
X0169305Y0184422D01*
X0169147Y0184376D01*
X0168988Y0184335D01*
X0168828Y0184297D01*
X0168668Y0184263D01*
X0168506Y0184233D01*
X0168344Y0184206D01*
X0168181Y0184184D01*
X0168018Y0184166D01*
X0167854Y0184152D01*
X0167690Y0184142D01*
X0167526Y0184136D01*
X0167362Y0184134D01*
X0167198Y0184136D01*
X0167034Y0184142D01*
X0166870Y0184152D01*
X0166706Y0184166D01*
X0166543Y0184184D01*
X0166380Y0184206D01*
X0166218Y0184233D01*
X0166056Y0184263D01*
X0165896Y0184297D01*
X0165736Y0184335D01*
X0165577Y0184376D01*
X0165419Y0184422D01*
X0165263Y0184472D01*
X0165107Y0184525D01*
X0164953Y0184582D01*
X0164801Y0184643D01*
X0164650Y0184708D01*
X0164500Y0184777D01*
X0164353Y0184849D01*
X0164207Y0184924D01*
X0164063Y0185004D01*
X0163921Y0185086D01*
X0163781Y0185172D01*
X0163644Y0185262D01*
X0163508Y0185355D01*
X0163375Y0185451D01*
X0163244Y0185551D01*
X0163116Y0185653D01*
X0162990Y0185759D01*
X0162867Y0185868D01*
X0162747Y0185980D01*
X0162629Y0186094D01*
X0162515Y0186212D01*
X0162403Y0186332D01*
X0162294Y0186455D01*
X0162188Y0186581D01*
X0162086Y0186709D01*
X0161986Y0186840D01*
X0161890Y0186973D01*
X0161797Y0187109D01*
X0161707Y0187246D01*
X0161621Y0187386D01*
X0161539Y0187528D01*
X0161459Y0187672D01*
X0161384Y0187818D01*
X0161312Y0187965D01*
X0161243Y0188115D01*
X0161178Y0188266D01*
X0161117Y0188418D01*
X0161060Y0188572D01*
X0161007Y0188728D01*
X0160957Y0188884D01*
X0160911Y0189042D01*
X0160870Y0189201D01*
X0160832Y0189361D01*
X0160798Y0189521D01*
X0160768Y0189683D01*
X0160741Y0189845D01*
X0160719Y0190008D01*
X0160701Y0190171D01*
X0160687Y0190335D01*
X0160677Y0190499D01*
X0160671Y0190663D01*
X0160669Y0190827D01*
X0190630Y0171535D02*
X0190632Y0171680D01*
X0190638Y0171825D01*
X0190648Y0171970D01*
X0190662Y0172115D01*
X0190680Y0172259D01*
X0190701Y0172402D01*
X0190727Y0172545D01*
X0190756Y0172687D01*
X0190790Y0172829D01*
X0190827Y0172969D01*
X0190868Y0173108D01*
X0190913Y0173246D01*
X0190962Y0173383D01*
X0191014Y0173519D01*
X0191070Y0173653D01*
X0191130Y0173785D01*
X0191193Y0173916D01*
X0191260Y0174044D01*
X0191330Y0174172D01*
X0191404Y0174297D01*
X0191481Y0174420D01*
X0191561Y0174540D01*
X0191645Y0174659D01*
X0191732Y0174775D01*
X0191822Y0174889D01*
X0191915Y0175001D01*
X0192011Y0175109D01*
X0192111Y0175215D01*
X0192212Y0175319D01*
X0192317Y0175419D01*
X0192425Y0175517D01*
X0192535Y0175612D01*
X0192647Y0175703D01*
X0192762Y0175792D01*
X0192880Y0175877D01*
X0193000Y0175959D01*
X0193122Y0176038D01*
X0193246Y0176114D01*
X0193372Y0176186D01*
X0193500Y0176254D01*
X0193630Y0176319D01*
X0193761Y0176381D01*
X0193894Y0176438D01*
X0194029Y0176493D01*
X0194165Y0176543D01*
X0194303Y0176590D01*
X0194441Y0176633D01*
X0194581Y0176672D01*
X0194722Y0176707D01*
X0194864Y0176739D01*
X0195006Y0176766D01*
X0195149Y0176790D01*
X0195293Y0176810D01*
X0195438Y0176826D01*
X0195582Y0176838D01*
X0195727Y0176846D01*
X0195872Y0176850D01*
X0196018Y0176850D01*
X0196163Y0176846D01*
X0196308Y0176838D01*
X0196452Y0176826D01*
X0196597Y0176810D01*
X0196741Y0176790D01*
X0196884Y0176766D01*
X0197026Y0176739D01*
X0197168Y0176707D01*
X0197309Y0176672D01*
X0197449Y0176633D01*
X0197587Y0176590D01*
X0197725Y0176543D01*
X0197861Y0176493D01*
X0197996Y0176438D01*
X0198129Y0176381D01*
X0198260Y0176319D01*
X0198390Y0176254D01*
X0198518Y0176186D01*
X0198644Y0176114D01*
X0198768Y0176038D01*
X0198890Y0175959D01*
X0199010Y0175877D01*
X0199128Y0175792D01*
X0199243Y0175703D01*
X0199355Y0175612D01*
X0199465Y0175517D01*
X0199573Y0175419D01*
X0199678Y0175319D01*
X0199779Y0175215D01*
X0199879Y0175109D01*
X0199975Y0175001D01*
X0200068Y0174889D01*
X0200158Y0174775D01*
X0200245Y0174659D01*
X0200329Y0174540D01*
X0200409Y0174420D01*
X0200486Y0174297D01*
X0200560Y0174172D01*
X0200630Y0174044D01*
X0200697Y0173916D01*
X0200760Y0173785D01*
X0200820Y0173653D01*
X0200876Y0173519D01*
X0200928Y0173383D01*
X0200977Y0173246D01*
X0201022Y0173108D01*
X0201063Y0172969D01*
X0201100Y0172829D01*
X0201134Y0172687D01*
X0201163Y0172545D01*
X0201189Y0172402D01*
X0201210Y0172259D01*
X0201228Y0172115D01*
X0201242Y0171970D01*
X0201252Y0171825D01*
X0201258Y0171680D01*
X0201260Y0171535D01*
X0201258Y0171390D01*
X0201252Y0171245D01*
X0201242Y0171100D01*
X0201228Y0170955D01*
X0201210Y0170811D01*
X0201189Y0170668D01*
X0201163Y0170525D01*
X0201134Y0170383D01*
X0201100Y0170241D01*
X0201063Y0170101D01*
X0201022Y0169962D01*
X0200977Y0169824D01*
X0200928Y0169687D01*
X0200876Y0169551D01*
X0200820Y0169417D01*
X0200760Y0169285D01*
X0200697Y0169154D01*
X0200630Y0169026D01*
X0200560Y0168898D01*
X0200486Y0168773D01*
X0200409Y0168650D01*
X0200329Y0168530D01*
X0200245Y0168411D01*
X0200158Y0168295D01*
X0200068Y0168181D01*
X0199975Y0168069D01*
X0199879Y0167961D01*
X0199779Y0167855D01*
X0199678Y0167751D01*
X0199573Y0167651D01*
X0199465Y0167553D01*
X0199355Y0167458D01*
X0199243Y0167367D01*
X0199128Y0167278D01*
X0199010Y0167193D01*
X0198890Y0167111D01*
X0198768Y0167032D01*
X0198644Y0166956D01*
X0198518Y0166884D01*
X0198390Y0166816D01*
X0198260Y0166751D01*
X0198129Y0166689D01*
X0197996Y0166632D01*
X0197861Y0166577D01*
X0197725Y0166527D01*
X0197587Y0166480D01*
X0197449Y0166437D01*
X0197309Y0166398D01*
X0197168Y0166363D01*
X0197026Y0166331D01*
X0196884Y0166304D01*
X0196741Y0166280D01*
X0196597Y0166260D01*
X0196452Y0166244D01*
X0196308Y0166232D01*
X0196163Y0166224D01*
X0196018Y0166220D01*
X0195872Y0166220D01*
X0195727Y0166224D01*
X0195582Y0166232D01*
X0195438Y0166244D01*
X0195293Y0166260D01*
X0195149Y0166280D01*
X0195006Y0166304D01*
X0194864Y0166331D01*
X0194722Y0166363D01*
X0194581Y0166398D01*
X0194441Y0166437D01*
X0194303Y0166480D01*
X0194165Y0166527D01*
X0194029Y0166577D01*
X0193894Y0166632D01*
X0193761Y0166689D01*
X0193630Y0166751D01*
X0193500Y0166816D01*
X0193372Y0166884D01*
X0193246Y0166956D01*
X0193122Y0167032D01*
X0193000Y0167111D01*
X0192880Y0167193D01*
X0192762Y0167278D01*
X0192647Y0167367D01*
X0192535Y0167458D01*
X0192425Y0167553D01*
X0192317Y0167651D01*
X0192212Y0167751D01*
X0192111Y0167855D01*
X0192011Y0167961D01*
X0191915Y0168069D01*
X0191822Y0168181D01*
X0191732Y0168295D01*
X0191645Y0168411D01*
X0191561Y0168530D01*
X0191481Y0168650D01*
X0191404Y0168773D01*
X0191330Y0168898D01*
X0191260Y0169026D01*
X0191193Y0169154D01*
X0191130Y0169285D01*
X0191070Y0169417D01*
X0191014Y0169551D01*
X0190962Y0169687D01*
X0190913Y0169824D01*
X0190868Y0169962D01*
X0190827Y0170101D01*
X0190790Y0170241D01*
X0190756Y0170383D01*
X0190727Y0170525D01*
X0190701Y0170668D01*
X0190680Y0170811D01*
X0190662Y0170955D01*
X0190648Y0171100D01*
X0190638Y0171245D01*
X0190632Y0171390D01*
X0190630Y0171535D01*
X0345551Y0237087D02*
X0345551Y0268583D01*
X0377047Y0268583D01*
X0377047Y0237087D01*
X0345551Y0237087D01*
X0360669Y0210906D02*
X0360671Y0211070D01*
X0360677Y0211234D01*
X0360687Y0211398D01*
X0360701Y0211562D01*
X0360719Y0211725D01*
X0360741Y0211888D01*
X0360768Y0212050D01*
X0360798Y0212212D01*
X0360832Y0212372D01*
X0360870Y0212532D01*
X0360911Y0212691D01*
X0360957Y0212849D01*
X0361007Y0213005D01*
X0361060Y0213161D01*
X0361117Y0213315D01*
X0361178Y0213467D01*
X0361243Y0213618D01*
X0361312Y0213768D01*
X0361384Y0213915D01*
X0361459Y0214061D01*
X0361539Y0214205D01*
X0361621Y0214347D01*
X0361707Y0214487D01*
X0361797Y0214624D01*
X0361890Y0214760D01*
X0361986Y0214893D01*
X0362086Y0215024D01*
X0362188Y0215152D01*
X0362294Y0215278D01*
X0362403Y0215401D01*
X0362515Y0215521D01*
X0362629Y0215639D01*
X0362747Y0215753D01*
X0362867Y0215865D01*
X0362990Y0215974D01*
X0363116Y0216080D01*
X0363244Y0216182D01*
X0363375Y0216282D01*
X0363508Y0216378D01*
X0363644Y0216471D01*
X0363781Y0216561D01*
X0363921Y0216647D01*
X0364063Y0216729D01*
X0364207Y0216809D01*
X0364353Y0216884D01*
X0364500Y0216956D01*
X0364650Y0217025D01*
X0364801Y0217090D01*
X0364953Y0217151D01*
X0365107Y0217208D01*
X0365263Y0217261D01*
X0365419Y0217311D01*
X0365577Y0217357D01*
X0365736Y0217398D01*
X0365896Y0217436D01*
X0366056Y0217470D01*
X0366218Y0217500D01*
X0366380Y0217527D01*
X0366543Y0217549D01*
X0366706Y0217567D01*
X0366870Y0217581D01*
X0367034Y0217591D01*
X0367198Y0217597D01*
X0367362Y0217599D01*
X0367526Y0217597D01*
X0367690Y0217591D01*
X0367854Y0217581D01*
X0368018Y0217567D01*
X0368181Y0217549D01*
X0368344Y0217527D01*
X0368506Y0217500D01*
X0368668Y0217470D01*
X0368828Y0217436D01*
X0368988Y0217398D01*
X0369147Y0217357D01*
X0369305Y0217311D01*
X0369461Y0217261D01*
X0369617Y0217208D01*
X0369771Y0217151D01*
X0369923Y0217090D01*
X0370074Y0217025D01*
X0370224Y0216956D01*
X0370371Y0216884D01*
X0370517Y0216809D01*
X0370661Y0216729D01*
X0370803Y0216647D01*
X0370943Y0216561D01*
X0371080Y0216471D01*
X0371216Y0216378D01*
X0371349Y0216282D01*
X0371480Y0216182D01*
X0371608Y0216080D01*
X0371734Y0215974D01*
X0371857Y0215865D01*
X0371977Y0215753D01*
X0372095Y0215639D01*
X0372209Y0215521D01*
X0372321Y0215401D01*
X0372430Y0215278D01*
X0372536Y0215152D01*
X0372638Y0215024D01*
X0372738Y0214893D01*
X0372834Y0214760D01*
X0372927Y0214624D01*
X0373017Y0214487D01*
X0373103Y0214347D01*
X0373185Y0214205D01*
X0373265Y0214061D01*
X0373340Y0213915D01*
X0373412Y0213768D01*
X0373481Y0213618D01*
X0373546Y0213467D01*
X0373607Y0213315D01*
X0373664Y0213161D01*
X0373717Y0213005D01*
X0373767Y0212849D01*
X0373813Y0212691D01*
X0373854Y0212532D01*
X0373892Y0212372D01*
X0373926Y0212212D01*
X0373956Y0212050D01*
X0373983Y0211888D01*
X0374005Y0211725D01*
X0374023Y0211562D01*
X0374037Y0211398D01*
X0374047Y0211234D01*
X0374053Y0211070D01*
X0374055Y0210906D01*
X0374053Y0210742D01*
X0374047Y0210578D01*
X0374037Y0210414D01*
X0374023Y0210250D01*
X0374005Y0210087D01*
X0373983Y0209924D01*
X0373956Y0209762D01*
X0373926Y0209600D01*
X0373892Y0209440D01*
X0373854Y0209280D01*
X0373813Y0209121D01*
X0373767Y0208963D01*
X0373717Y0208807D01*
X0373664Y0208651D01*
X0373607Y0208497D01*
X0373546Y0208345D01*
X0373481Y0208194D01*
X0373412Y0208044D01*
X0373340Y0207897D01*
X0373265Y0207751D01*
X0373185Y0207607D01*
X0373103Y0207465D01*
X0373017Y0207325D01*
X0372927Y0207188D01*
X0372834Y0207052D01*
X0372738Y0206919D01*
X0372638Y0206788D01*
X0372536Y0206660D01*
X0372430Y0206534D01*
X0372321Y0206411D01*
X0372209Y0206291D01*
X0372095Y0206173D01*
X0371977Y0206059D01*
X0371857Y0205947D01*
X0371734Y0205838D01*
X0371608Y0205732D01*
X0371480Y0205630D01*
X0371349Y0205530D01*
X0371216Y0205434D01*
X0371080Y0205341D01*
X0370943Y0205251D01*
X0370803Y0205165D01*
X0370661Y0205083D01*
X0370517Y0205003D01*
X0370371Y0204928D01*
X0370224Y0204856D01*
X0370074Y0204787D01*
X0369923Y0204722D01*
X0369771Y0204661D01*
X0369617Y0204604D01*
X0369461Y0204551D01*
X0369305Y0204501D01*
X0369147Y0204455D01*
X0368988Y0204414D01*
X0368828Y0204376D01*
X0368668Y0204342D01*
X0368506Y0204312D01*
X0368344Y0204285D01*
X0368181Y0204263D01*
X0368018Y0204245D01*
X0367854Y0204231D01*
X0367690Y0204221D01*
X0367526Y0204215D01*
X0367362Y0204213D01*
X0367198Y0204215D01*
X0367034Y0204221D01*
X0366870Y0204231D01*
X0366706Y0204245D01*
X0366543Y0204263D01*
X0366380Y0204285D01*
X0366218Y0204312D01*
X0366056Y0204342D01*
X0365896Y0204376D01*
X0365736Y0204414D01*
X0365577Y0204455D01*
X0365419Y0204501D01*
X0365263Y0204551D01*
X0365107Y0204604D01*
X0364953Y0204661D01*
X0364801Y0204722D01*
X0364650Y0204787D01*
X0364500Y0204856D01*
X0364353Y0204928D01*
X0364207Y0205003D01*
X0364063Y0205083D01*
X0363921Y0205165D01*
X0363781Y0205251D01*
X0363644Y0205341D01*
X0363508Y0205434D01*
X0363375Y0205530D01*
X0363244Y0205630D01*
X0363116Y0205732D01*
X0362990Y0205838D01*
X0362867Y0205947D01*
X0362747Y0206059D01*
X0362629Y0206173D01*
X0362515Y0206291D01*
X0362403Y0206411D01*
X0362294Y0206534D01*
X0362188Y0206660D01*
X0362086Y0206788D01*
X0361986Y0206919D01*
X0361890Y0207052D01*
X0361797Y0207188D01*
X0361707Y0207325D01*
X0361621Y0207465D01*
X0361539Y0207607D01*
X0361459Y0207751D01*
X0361384Y0207897D01*
X0361312Y0208044D01*
X0361243Y0208194D01*
X0361178Y0208345D01*
X0361117Y0208497D01*
X0361060Y0208651D01*
X0361007Y0208807D01*
X0360957Y0208963D01*
X0360911Y0209121D01*
X0360870Y0209280D01*
X0360832Y0209440D01*
X0360798Y0209600D01*
X0360768Y0209762D01*
X0360741Y0209924D01*
X0360719Y0210087D01*
X0360701Y0210250D01*
X0360687Y0210414D01*
X0360677Y0210578D01*
X0360671Y0210742D01*
X0360669Y0210906D01*
X0383543Y0171535D02*
X0383545Y0171680D01*
X0383551Y0171825D01*
X0383561Y0171970D01*
X0383575Y0172115D01*
X0383593Y0172259D01*
X0383614Y0172402D01*
X0383640Y0172545D01*
X0383669Y0172687D01*
X0383703Y0172829D01*
X0383740Y0172969D01*
X0383781Y0173108D01*
X0383826Y0173246D01*
X0383875Y0173383D01*
X0383927Y0173519D01*
X0383983Y0173653D01*
X0384043Y0173785D01*
X0384106Y0173916D01*
X0384173Y0174044D01*
X0384243Y0174172D01*
X0384317Y0174297D01*
X0384394Y0174420D01*
X0384474Y0174540D01*
X0384558Y0174659D01*
X0384645Y0174775D01*
X0384735Y0174889D01*
X0384828Y0175001D01*
X0384924Y0175109D01*
X0385024Y0175215D01*
X0385125Y0175319D01*
X0385230Y0175419D01*
X0385338Y0175517D01*
X0385448Y0175612D01*
X0385560Y0175703D01*
X0385675Y0175792D01*
X0385793Y0175877D01*
X0385913Y0175959D01*
X0386035Y0176038D01*
X0386159Y0176114D01*
X0386285Y0176186D01*
X0386413Y0176254D01*
X0386543Y0176319D01*
X0386674Y0176381D01*
X0386807Y0176438D01*
X0386942Y0176493D01*
X0387078Y0176543D01*
X0387216Y0176590D01*
X0387354Y0176633D01*
X0387494Y0176672D01*
X0387635Y0176707D01*
X0387777Y0176739D01*
X0387919Y0176766D01*
X0388062Y0176790D01*
X0388206Y0176810D01*
X0388351Y0176826D01*
X0388495Y0176838D01*
X0388640Y0176846D01*
X0388785Y0176850D01*
X0388931Y0176850D01*
X0389076Y0176846D01*
X0389221Y0176838D01*
X0389365Y0176826D01*
X0389510Y0176810D01*
X0389654Y0176790D01*
X0389797Y0176766D01*
X0389939Y0176739D01*
X0390081Y0176707D01*
X0390222Y0176672D01*
X0390362Y0176633D01*
X0390500Y0176590D01*
X0390638Y0176543D01*
X0390774Y0176493D01*
X0390909Y0176438D01*
X0391042Y0176381D01*
X0391173Y0176319D01*
X0391303Y0176254D01*
X0391431Y0176186D01*
X0391557Y0176114D01*
X0391681Y0176038D01*
X0391803Y0175959D01*
X0391923Y0175877D01*
X0392041Y0175792D01*
X0392156Y0175703D01*
X0392268Y0175612D01*
X0392378Y0175517D01*
X0392486Y0175419D01*
X0392591Y0175319D01*
X0392692Y0175215D01*
X0392792Y0175109D01*
X0392888Y0175001D01*
X0392981Y0174889D01*
X0393071Y0174775D01*
X0393158Y0174659D01*
X0393242Y0174540D01*
X0393322Y0174420D01*
X0393399Y0174297D01*
X0393473Y0174172D01*
X0393543Y0174044D01*
X0393610Y0173916D01*
X0393673Y0173785D01*
X0393733Y0173653D01*
X0393789Y0173519D01*
X0393841Y0173383D01*
X0393890Y0173246D01*
X0393935Y0173108D01*
X0393976Y0172969D01*
X0394013Y0172829D01*
X0394047Y0172687D01*
X0394076Y0172545D01*
X0394102Y0172402D01*
X0394123Y0172259D01*
X0394141Y0172115D01*
X0394155Y0171970D01*
X0394165Y0171825D01*
X0394171Y0171680D01*
X0394173Y0171535D01*
X0394171Y0171390D01*
X0394165Y0171245D01*
X0394155Y0171100D01*
X0394141Y0170955D01*
X0394123Y0170811D01*
X0394102Y0170668D01*
X0394076Y0170525D01*
X0394047Y0170383D01*
X0394013Y0170241D01*
X0393976Y0170101D01*
X0393935Y0169962D01*
X0393890Y0169824D01*
X0393841Y0169687D01*
X0393789Y0169551D01*
X0393733Y0169417D01*
X0393673Y0169285D01*
X0393610Y0169154D01*
X0393543Y0169026D01*
X0393473Y0168898D01*
X0393399Y0168773D01*
X0393322Y0168650D01*
X0393242Y0168530D01*
X0393158Y0168411D01*
X0393071Y0168295D01*
X0392981Y0168181D01*
X0392888Y0168069D01*
X0392792Y0167961D01*
X0392692Y0167855D01*
X0392591Y0167751D01*
X0392486Y0167651D01*
X0392378Y0167553D01*
X0392268Y0167458D01*
X0392156Y0167367D01*
X0392041Y0167278D01*
X0391923Y0167193D01*
X0391803Y0167111D01*
X0391681Y0167032D01*
X0391557Y0166956D01*
X0391431Y0166884D01*
X0391303Y0166816D01*
X0391173Y0166751D01*
X0391042Y0166689D01*
X0390909Y0166632D01*
X0390774Y0166577D01*
X0390638Y0166527D01*
X0390500Y0166480D01*
X0390362Y0166437D01*
X0390222Y0166398D01*
X0390081Y0166363D01*
X0389939Y0166331D01*
X0389797Y0166304D01*
X0389654Y0166280D01*
X0389510Y0166260D01*
X0389365Y0166244D01*
X0389221Y0166232D01*
X0389076Y0166224D01*
X0388931Y0166220D01*
X0388785Y0166220D01*
X0388640Y0166224D01*
X0388495Y0166232D01*
X0388351Y0166244D01*
X0388206Y0166260D01*
X0388062Y0166280D01*
X0387919Y0166304D01*
X0387777Y0166331D01*
X0387635Y0166363D01*
X0387494Y0166398D01*
X0387354Y0166437D01*
X0387216Y0166480D01*
X0387078Y0166527D01*
X0386942Y0166577D01*
X0386807Y0166632D01*
X0386674Y0166689D01*
X0386543Y0166751D01*
X0386413Y0166816D01*
X0386285Y0166884D01*
X0386159Y0166956D01*
X0386035Y0167032D01*
X0385913Y0167111D01*
X0385793Y0167193D01*
X0385675Y0167278D01*
X0385560Y0167367D01*
X0385448Y0167458D01*
X0385338Y0167553D01*
X0385230Y0167651D01*
X0385125Y0167751D01*
X0385024Y0167855D01*
X0384924Y0167961D01*
X0384828Y0168069D01*
X0384735Y0168181D01*
X0384645Y0168295D01*
X0384558Y0168411D01*
X0384474Y0168530D01*
X0384394Y0168650D01*
X0384317Y0168773D01*
X0384243Y0168898D01*
X0384173Y0169026D01*
X0384106Y0169154D01*
X0384043Y0169285D01*
X0383983Y0169417D01*
X0383927Y0169551D01*
X0383875Y0169687D01*
X0383826Y0169824D01*
X0383781Y0169962D01*
X0383740Y0170101D01*
X0383703Y0170241D01*
X0383669Y0170383D01*
X0383640Y0170525D01*
X0383614Y0170668D01*
X0383593Y0170811D01*
X0383575Y0170955D01*
X0383561Y0171100D01*
X0383551Y0171245D01*
X0383545Y0171390D01*
X0383543Y0171535D01*
X0360669Y0320748D02*
X0360671Y0320912D01*
X0360677Y0321076D01*
X0360687Y0321240D01*
X0360701Y0321404D01*
X0360719Y0321567D01*
X0360741Y0321730D01*
X0360768Y0321892D01*
X0360798Y0322054D01*
X0360832Y0322214D01*
X0360870Y0322374D01*
X0360911Y0322533D01*
X0360957Y0322691D01*
X0361007Y0322847D01*
X0361060Y0323003D01*
X0361117Y0323157D01*
X0361178Y0323309D01*
X0361243Y0323460D01*
X0361312Y0323610D01*
X0361384Y0323757D01*
X0361459Y0323903D01*
X0361539Y0324047D01*
X0361621Y0324189D01*
X0361707Y0324329D01*
X0361797Y0324466D01*
X0361890Y0324602D01*
X0361986Y0324735D01*
X0362086Y0324866D01*
X0362188Y0324994D01*
X0362294Y0325120D01*
X0362403Y0325243D01*
X0362515Y0325363D01*
X0362629Y0325481D01*
X0362747Y0325595D01*
X0362867Y0325707D01*
X0362990Y0325816D01*
X0363116Y0325922D01*
X0363244Y0326024D01*
X0363375Y0326124D01*
X0363508Y0326220D01*
X0363644Y0326313D01*
X0363781Y0326403D01*
X0363921Y0326489D01*
X0364063Y0326571D01*
X0364207Y0326651D01*
X0364353Y0326726D01*
X0364500Y0326798D01*
X0364650Y0326867D01*
X0364801Y0326932D01*
X0364953Y0326993D01*
X0365107Y0327050D01*
X0365263Y0327103D01*
X0365419Y0327153D01*
X0365577Y0327199D01*
X0365736Y0327240D01*
X0365896Y0327278D01*
X0366056Y0327312D01*
X0366218Y0327342D01*
X0366380Y0327369D01*
X0366543Y0327391D01*
X0366706Y0327409D01*
X0366870Y0327423D01*
X0367034Y0327433D01*
X0367198Y0327439D01*
X0367362Y0327441D01*
X0367526Y0327439D01*
X0367690Y0327433D01*
X0367854Y0327423D01*
X0368018Y0327409D01*
X0368181Y0327391D01*
X0368344Y0327369D01*
X0368506Y0327342D01*
X0368668Y0327312D01*
X0368828Y0327278D01*
X0368988Y0327240D01*
X0369147Y0327199D01*
X0369305Y0327153D01*
X0369461Y0327103D01*
X0369617Y0327050D01*
X0369771Y0326993D01*
X0369923Y0326932D01*
X0370074Y0326867D01*
X0370224Y0326798D01*
X0370371Y0326726D01*
X0370517Y0326651D01*
X0370661Y0326571D01*
X0370803Y0326489D01*
X0370943Y0326403D01*
X0371080Y0326313D01*
X0371216Y0326220D01*
X0371349Y0326124D01*
X0371480Y0326024D01*
X0371608Y0325922D01*
X0371734Y0325816D01*
X0371857Y0325707D01*
X0371977Y0325595D01*
X0372095Y0325481D01*
X0372209Y0325363D01*
X0372321Y0325243D01*
X0372430Y0325120D01*
X0372536Y0324994D01*
X0372638Y0324866D01*
X0372738Y0324735D01*
X0372834Y0324602D01*
X0372927Y0324466D01*
X0373017Y0324329D01*
X0373103Y0324189D01*
X0373185Y0324047D01*
X0373265Y0323903D01*
X0373340Y0323757D01*
X0373412Y0323610D01*
X0373481Y0323460D01*
X0373546Y0323309D01*
X0373607Y0323157D01*
X0373664Y0323003D01*
X0373717Y0322847D01*
X0373767Y0322691D01*
X0373813Y0322533D01*
X0373854Y0322374D01*
X0373892Y0322214D01*
X0373926Y0322054D01*
X0373956Y0321892D01*
X0373983Y0321730D01*
X0374005Y0321567D01*
X0374023Y0321404D01*
X0374037Y0321240D01*
X0374047Y0321076D01*
X0374053Y0320912D01*
X0374055Y0320748D01*
X0374053Y0320584D01*
X0374047Y0320420D01*
X0374037Y0320256D01*
X0374023Y0320092D01*
X0374005Y0319929D01*
X0373983Y0319766D01*
X0373956Y0319604D01*
X0373926Y0319442D01*
X0373892Y0319282D01*
X0373854Y0319122D01*
X0373813Y0318963D01*
X0373767Y0318805D01*
X0373717Y0318649D01*
X0373664Y0318493D01*
X0373607Y0318339D01*
X0373546Y0318187D01*
X0373481Y0318036D01*
X0373412Y0317886D01*
X0373340Y0317739D01*
X0373265Y0317593D01*
X0373185Y0317449D01*
X0373103Y0317307D01*
X0373017Y0317167D01*
X0372927Y0317030D01*
X0372834Y0316894D01*
X0372738Y0316761D01*
X0372638Y0316630D01*
X0372536Y0316502D01*
X0372430Y0316376D01*
X0372321Y0316253D01*
X0372209Y0316133D01*
X0372095Y0316015D01*
X0371977Y0315901D01*
X0371857Y0315789D01*
X0371734Y0315680D01*
X0371608Y0315574D01*
X0371480Y0315472D01*
X0371349Y0315372D01*
X0371216Y0315276D01*
X0371080Y0315183D01*
X0370943Y0315093D01*
X0370803Y0315007D01*
X0370661Y0314925D01*
X0370517Y0314845D01*
X0370371Y0314770D01*
X0370224Y0314698D01*
X0370074Y0314629D01*
X0369923Y0314564D01*
X0369771Y0314503D01*
X0369617Y0314446D01*
X0369461Y0314393D01*
X0369305Y0314343D01*
X0369147Y0314297D01*
X0368988Y0314256D01*
X0368828Y0314218D01*
X0368668Y0314184D01*
X0368506Y0314154D01*
X0368344Y0314127D01*
X0368181Y0314105D01*
X0368018Y0314087D01*
X0367854Y0314073D01*
X0367690Y0314063D01*
X0367526Y0314057D01*
X0367362Y0314055D01*
X0367198Y0314057D01*
X0367034Y0314063D01*
X0366870Y0314073D01*
X0366706Y0314087D01*
X0366543Y0314105D01*
X0366380Y0314127D01*
X0366218Y0314154D01*
X0366056Y0314184D01*
X0365896Y0314218D01*
X0365736Y0314256D01*
X0365577Y0314297D01*
X0365419Y0314343D01*
X0365263Y0314393D01*
X0365107Y0314446D01*
X0364953Y0314503D01*
X0364801Y0314564D01*
X0364650Y0314629D01*
X0364500Y0314698D01*
X0364353Y0314770D01*
X0364207Y0314845D01*
X0364063Y0314925D01*
X0363921Y0315007D01*
X0363781Y0315093D01*
X0363644Y0315183D01*
X0363508Y0315276D01*
X0363375Y0315372D01*
X0363244Y0315472D01*
X0363116Y0315574D01*
X0362990Y0315680D01*
X0362867Y0315789D01*
X0362747Y0315901D01*
X0362629Y0316015D01*
X0362515Y0316133D01*
X0362403Y0316253D01*
X0362294Y0316376D01*
X0362188Y0316502D01*
X0362086Y0316630D01*
X0361986Y0316761D01*
X0361890Y0316894D01*
X0361797Y0317030D01*
X0361707Y0317167D01*
X0361621Y0317307D01*
X0361539Y0317449D01*
X0361459Y0317593D01*
X0361384Y0317739D01*
X0361312Y0317886D01*
X0361243Y0318036D01*
X0361178Y0318187D01*
X0361117Y0318339D01*
X0361060Y0318493D01*
X0361007Y0318649D01*
X0360957Y0318805D01*
X0360911Y0318963D01*
X0360870Y0319122D01*
X0360832Y0319282D01*
X0360798Y0319442D01*
X0360768Y0319604D01*
X0360741Y0319766D01*
X0360719Y0319929D01*
X0360701Y0320092D01*
X0360687Y0320256D01*
X0360677Y0320420D01*
X0360671Y0320584D01*
X0360669Y0320748D01*
X0383543Y0399882D02*
X0383545Y0400027D01*
X0383551Y0400172D01*
X0383561Y0400317D01*
X0383575Y0400462D01*
X0383593Y0400606D01*
X0383614Y0400749D01*
X0383640Y0400892D01*
X0383669Y0401034D01*
X0383703Y0401176D01*
X0383740Y0401316D01*
X0383781Y0401455D01*
X0383826Y0401593D01*
X0383875Y0401730D01*
X0383927Y0401866D01*
X0383983Y0402000D01*
X0384043Y0402132D01*
X0384106Y0402263D01*
X0384173Y0402391D01*
X0384243Y0402519D01*
X0384317Y0402644D01*
X0384394Y0402767D01*
X0384474Y0402887D01*
X0384558Y0403006D01*
X0384645Y0403122D01*
X0384735Y0403236D01*
X0384828Y0403348D01*
X0384924Y0403456D01*
X0385024Y0403562D01*
X0385125Y0403666D01*
X0385230Y0403766D01*
X0385338Y0403864D01*
X0385448Y0403959D01*
X0385560Y0404050D01*
X0385675Y0404139D01*
X0385793Y0404224D01*
X0385913Y0404306D01*
X0386035Y0404385D01*
X0386159Y0404461D01*
X0386285Y0404533D01*
X0386413Y0404601D01*
X0386543Y0404666D01*
X0386674Y0404728D01*
X0386807Y0404785D01*
X0386942Y0404840D01*
X0387078Y0404890D01*
X0387216Y0404937D01*
X0387354Y0404980D01*
X0387494Y0405019D01*
X0387635Y0405054D01*
X0387777Y0405086D01*
X0387919Y0405113D01*
X0388062Y0405137D01*
X0388206Y0405157D01*
X0388351Y0405173D01*
X0388495Y0405185D01*
X0388640Y0405193D01*
X0388785Y0405197D01*
X0388931Y0405197D01*
X0389076Y0405193D01*
X0389221Y0405185D01*
X0389365Y0405173D01*
X0389510Y0405157D01*
X0389654Y0405137D01*
X0389797Y0405113D01*
X0389939Y0405086D01*
X0390081Y0405054D01*
X0390222Y0405019D01*
X0390362Y0404980D01*
X0390500Y0404937D01*
X0390638Y0404890D01*
X0390774Y0404840D01*
X0390909Y0404785D01*
X0391042Y0404728D01*
X0391173Y0404666D01*
X0391303Y0404601D01*
X0391431Y0404533D01*
X0391557Y0404461D01*
X0391681Y0404385D01*
X0391803Y0404306D01*
X0391923Y0404224D01*
X0392041Y0404139D01*
X0392156Y0404050D01*
X0392268Y0403959D01*
X0392378Y0403864D01*
X0392486Y0403766D01*
X0392591Y0403666D01*
X0392692Y0403562D01*
X0392792Y0403456D01*
X0392888Y0403348D01*
X0392981Y0403236D01*
X0393071Y0403122D01*
X0393158Y0403006D01*
X0393242Y0402887D01*
X0393322Y0402767D01*
X0393399Y0402644D01*
X0393473Y0402519D01*
X0393543Y0402391D01*
X0393610Y0402263D01*
X0393673Y0402132D01*
X0393733Y0402000D01*
X0393789Y0401866D01*
X0393841Y0401730D01*
X0393890Y0401593D01*
X0393935Y0401455D01*
X0393976Y0401316D01*
X0394013Y0401176D01*
X0394047Y0401034D01*
X0394076Y0400892D01*
X0394102Y0400749D01*
X0394123Y0400606D01*
X0394141Y0400462D01*
X0394155Y0400317D01*
X0394165Y0400172D01*
X0394171Y0400027D01*
X0394173Y0399882D01*
X0394171Y0399737D01*
X0394165Y0399592D01*
X0394155Y0399447D01*
X0394141Y0399302D01*
X0394123Y0399158D01*
X0394102Y0399015D01*
X0394076Y0398872D01*
X0394047Y0398730D01*
X0394013Y0398588D01*
X0393976Y0398448D01*
X0393935Y0398309D01*
X0393890Y0398171D01*
X0393841Y0398034D01*
X0393789Y0397898D01*
X0393733Y0397764D01*
X0393673Y0397632D01*
X0393610Y0397501D01*
X0393543Y0397373D01*
X0393473Y0397245D01*
X0393399Y0397120D01*
X0393322Y0396997D01*
X0393242Y0396877D01*
X0393158Y0396758D01*
X0393071Y0396642D01*
X0392981Y0396528D01*
X0392888Y0396416D01*
X0392792Y0396308D01*
X0392692Y0396202D01*
X0392591Y0396098D01*
X0392486Y0395998D01*
X0392378Y0395900D01*
X0392268Y0395805D01*
X0392156Y0395714D01*
X0392041Y0395625D01*
X0391923Y0395540D01*
X0391803Y0395458D01*
X0391681Y0395379D01*
X0391557Y0395303D01*
X0391431Y0395231D01*
X0391303Y0395163D01*
X0391173Y0395098D01*
X0391042Y0395036D01*
X0390909Y0394979D01*
X0390774Y0394924D01*
X0390638Y0394874D01*
X0390500Y0394827D01*
X0390362Y0394784D01*
X0390222Y0394745D01*
X0390081Y0394710D01*
X0389939Y0394678D01*
X0389797Y0394651D01*
X0389654Y0394627D01*
X0389510Y0394607D01*
X0389365Y0394591D01*
X0389221Y0394579D01*
X0389076Y0394571D01*
X0388931Y0394567D01*
X0388785Y0394567D01*
X0388640Y0394571D01*
X0388495Y0394579D01*
X0388351Y0394591D01*
X0388206Y0394607D01*
X0388062Y0394627D01*
X0387919Y0394651D01*
X0387777Y0394678D01*
X0387635Y0394710D01*
X0387494Y0394745D01*
X0387354Y0394784D01*
X0387216Y0394827D01*
X0387078Y0394874D01*
X0386942Y0394924D01*
X0386807Y0394979D01*
X0386674Y0395036D01*
X0386543Y0395098D01*
X0386413Y0395163D01*
X0386285Y0395231D01*
X0386159Y0395303D01*
X0386035Y0395379D01*
X0385913Y0395458D01*
X0385793Y0395540D01*
X0385675Y0395625D01*
X0385560Y0395714D01*
X0385448Y0395805D01*
X0385338Y0395900D01*
X0385230Y0395998D01*
X0385125Y0396098D01*
X0385024Y0396202D01*
X0384924Y0396308D01*
X0384828Y0396416D01*
X0384735Y0396528D01*
X0384645Y0396642D01*
X0384558Y0396758D01*
X0384474Y0396877D01*
X0384394Y0396997D01*
X0384317Y0397120D01*
X0384243Y0397245D01*
X0384173Y0397373D01*
X0384106Y0397501D01*
X0384043Y0397632D01*
X0383983Y0397764D01*
X0383927Y0397898D01*
X0383875Y0398034D01*
X0383826Y0398171D01*
X0383781Y0398309D01*
X0383740Y0398448D01*
X0383703Y0398588D01*
X0383669Y0398730D01*
X0383640Y0398872D01*
X0383614Y0399015D01*
X0383593Y0399158D01*
X0383575Y0399302D01*
X0383561Y0399447D01*
X0383551Y0399592D01*
X0383545Y0399737D01*
X0383543Y0399882D01*
X0190630Y0399882D02*
X0190632Y0400027D01*
X0190638Y0400172D01*
X0190648Y0400317D01*
X0190662Y0400462D01*
X0190680Y0400606D01*
X0190701Y0400749D01*
X0190727Y0400892D01*
X0190756Y0401034D01*
X0190790Y0401176D01*
X0190827Y0401316D01*
X0190868Y0401455D01*
X0190913Y0401593D01*
X0190962Y0401730D01*
X0191014Y0401866D01*
X0191070Y0402000D01*
X0191130Y0402132D01*
X0191193Y0402263D01*
X0191260Y0402391D01*
X0191330Y0402519D01*
X0191404Y0402644D01*
X0191481Y0402767D01*
X0191561Y0402887D01*
X0191645Y0403006D01*
X0191732Y0403122D01*
X0191822Y0403236D01*
X0191915Y0403348D01*
X0192011Y0403456D01*
X0192111Y0403562D01*
X0192212Y0403666D01*
X0192317Y0403766D01*
X0192425Y0403864D01*
X0192535Y0403959D01*
X0192647Y0404050D01*
X0192762Y0404139D01*
X0192880Y0404224D01*
X0193000Y0404306D01*
X0193122Y0404385D01*
X0193246Y0404461D01*
X0193372Y0404533D01*
X0193500Y0404601D01*
X0193630Y0404666D01*
X0193761Y0404728D01*
X0193894Y0404785D01*
X0194029Y0404840D01*
X0194165Y0404890D01*
X0194303Y0404937D01*
X0194441Y0404980D01*
X0194581Y0405019D01*
X0194722Y0405054D01*
X0194864Y0405086D01*
X0195006Y0405113D01*
X0195149Y0405137D01*
X0195293Y0405157D01*
X0195438Y0405173D01*
X0195582Y0405185D01*
X0195727Y0405193D01*
X0195872Y0405197D01*
X0196018Y0405197D01*
X0196163Y0405193D01*
X0196308Y0405185D01*
X0196452Y0405173D01*
X0196597Y0405157D01*
X0196741Y0405137D01*
X0196884Y0405113D01*
X0197026Y0405086D01*
X0197168Y0405054D01*
X0197309Y0405019D01*
X0197449Y0404980D01*
X0197587Y0404937D01*
X0197725Y0404890D01*
X0197861Y0404840D01*
X0197996Y0404785D01*
X0198129Y0404728D01*
X0198260Y0404666D01*
X0198390Y0404601D01*
X0198518Y0404533D01*
X0198644Y0404461D01*
X0198768Y0404385D01*
X0198890Y0404306D01*
X0199010Y0404224D01*
X0199128Y0404139D01*
X0199243Y0404050D01*
X0199355Y0403959D01*
X0199465Y0403864D01*
X0199573Y0403766D01*
X0199678Y0403666D01*
X0199779Y0403562D01*
X0199879Y0403456D01*
X0199975Y0403348D01*
X0200068Y0403236D01*
X0200158Y0403122D01*
X0200245Y0403006D01*
X0200329Y0402887D01*
X0200409Y0402767D01*
X0200486Y0402644D01*
X0200560Y0402519D01*
X0200630Y0402391D01*
X0200697Y0402263D01*
X0200760Y0402132D01*
X0200820Y0402000D01*
X0200876Y0401866D01*
X0200928Y0401730D01*
X0200977Y0401593D01*
X0201022Y0401455D01*
X0201063Y0401316D01*
X0201100Y0401176D01*
X0201134Y0401034D01*
X0201163Y0400892D01*
X0201189Y0400749D01*
X0201210Y0400606D01*
X0201228Y0400462D01*
X0201242Y0400317D01*
X0201252Y0400172D01*
X0201258Y0400027D01*
X0201260Y0399882D01*
X0201258Y0399737D01*
X0201252Y0399592D01*
X0201242Y0399447D01*
X0201228Y0399302D01*
X0201210Y0399158D01*
X0201189Y0399015D01*
X0201163Y0398872D01*
X0201134Y0398730D01*
X0201100Y0398588D01*
X0201063Y0398448D01*
X0201022Y0398309D01*
X0200977Y0398171D01*
X0200928Y0398034D01*
X0200876Y0397898D01*
X0200820Y0397764D01*
X0200760Y0397632D01*
X0200697Y0397501D01*
X0200630Y0397373D01*
X0200560Y0397245D01*
X0200486Y0397120D01*
X0200409Y0396997D01*
X0200329Y0396877D01*
X0200245Y0396758D01*
X0200158Y0396642D01*
X0200068Y0396528D01*
X0199975Y0396416D01*
X0199879Y0396308D01*
X0199779Y0396202D01*
X0199678Y0396098D01*
X0199573Y0395998D01*
X0199465Y0395900D01*
X0199355Y0395805D01*
X0199243Y0395714D01*
X0199128Y0395625D01*
X0199010Y0395540D01*
X0198890Y0395458D01*
X0198768Y0395379D01*
X0198644Y0395303D01*
X0198518Y0395231D01*
X0198390Y0395163D01*
X0198260Y0395098D01*
X0198129Y0395036D01*
X0197996Y0394979D01*
X0197861Y0394924D01*
X0197725Y0394874D01*
X0197587Y0394827D01*
X0197449Y0394784D01*
X0197309Y0394745D01*
X0197168Y0394710D01*
X0197026Y0394678D01*
X0196884Y0394651D01*
X0196741Y0394627D01*
X0196597Y0394607D01*
X0196452Y0394591D01*
X0196308Y0394579D01*
X0196163Y0394571D01*
X0196018Y0394567D01*
X0195872Y0394567D01*
X0195727Y0394571D01*
X0195582Y0394579D01*
X0195438Y0394591D01*
X0195293Y0394607D01*
X0195149Y0394627D01*
X0195006Y0394651D01*
X0194864Y0394678D01*
X0194722Y0394710D01*
X0194581Y0394745D01*
X0194441Y0394784D01*
X0194303Y0394827D01*
X0194165Y0394874D01*
X0194029Y0394924D01*
X0193894Y0394979D01*
X0193761Y0395036D01*
X0193630Y0395098D01*
X0193500Y0395163D01*
X0193372Y0395231D01*
X0193246Y0395303D01*
X0193122Y0395379D01*
X0193000Y0395458D01*
X0192880Y0395540D01*
X0192762Y0395625D01*
X0192647Y0395714D01*
X0192535Y0395805D01*
X0192425Y0395900D01*
X0192317Y0395998D01*
X0192212Y0396098D01*
X0192111Y0396202D01*
X0192011Y0396308D01*
X0191915Y0396416D01*
X0191822Y0396528D01*
X0191732Y0396642D01*
X0191645Y0396758D01*
X0191561Y0396877D01*
X0191481Y0396997D01*
X0191404Y0397120D01*
X0191330Y0397245D01*
X0191260Y0397373D01*
X0191193Y0397501D01*
X0191130Y0397632D01*
X0191070Y0397764D01*
X0191014Y0397898D01*
X0190962Y0398034D01*
X0190913Y0398171D01*
X0190868Y0398309D01*
X0190827Y0398448D01*
X0190790Y0398588D01*
X0190756Y0398730D01*
X0190727Y0398872D01*
X0190701Y0399015D01*
X0190680Y0399158D01*
X0190662Y0399302D01*
X0190648Y0399447D01*
X0190638Y0399592D01*
X0190632Y0399737D01*
X0190630Y0399882D01*
X0160669Y0380591D02*
X0160671Y0380755D01*
X0160677Y0380919D01*
X0160687Y0381083D01*
X0160701Y0381247D01*
X0160719Y0381410D01*
X0160741Y0381573D01*
X0160768Y0381735D01*
X0160798Y0381897D01*
X0160832Y0382057D01*
X0160870Y0382217D01*
X0160911Y0382376D01*
X0160957Y0382534D01*
X0161007Y0382690D01*
X0161060Y0382846D01*
X0161117Y0383000D01*
X0161178Y0383152D01*
X0161243Y0383303D01*
X0161312Y0383453D01*
X0161384Y0383600D01*
X0161459Y0383746D01*
X0161539Y0383890D01*
X0161621Y0384032D01*
X0161707Y0384172D01*
X0161797Y0384309D01*
X0161890Y0384445D01*
X0161986Y0384578D01*
X0162086Y0384709D01*
X0162188Y0384837D01*
X0162294Y0384963D01*
X0162403Y0385086D01*
X0162515Y0385206D01*
X0162629Y0385324D01*
X0162747Y0385438D01*
X0162867Y0385550D01*
X0162990Y0385659D01*
X0163116Y0385765D01*
X0163244Y0385867D01*
X0163375Y0385967D01*
X0163508Y0386063D01*
X0163644Y0386156D01*
X0163781Y0386246D01*
X0163921Y0386332D01*
X0164063Y0386414D01*
X0164207Y0386494D01*
X0164353Y0386569D01*
X0164500Y0386641D01*
X0164650Y0386710D01*
X0164801Y0386775D01*
X0164953Y0386836D01*
X0165107Y0386893D01*
X0165263Y0386946D01*
X0165419Y0386996D01*
X0165577Y0387042D01*
X0165736Y0387083D01*
X0165896Y0387121D01*
X0166056Y0387155D01*
X0166218Y0387185D01*
X0166380Y0387212D01*
X0166543Y0387234D01*
X0166706Y0387252D01*
X0166870Y0387266D01*
X0167034Y0387276D01*
X0167198Y0387282D01*
X0167362Y0387284D01*
X0167526Y0387282D01*
X0167690Y0387276D01*
X0167854Y0387266D01*
X0168018Y0387252D01*
X0168181Y0387234D01*
X0168344Y0387212D01*
X0168506Y0387185D01*
X0168668Y0387155D01*
X0168828Y0387121D01*
X0168988Y0387083D01*
X0169147Y0387042D01*
X0169305Y0386996D01*
X0169461Y0386946D01*
X0169617Y0386893D01*
X0169771Y0386836D01*
X0169923Y0386775D01*
X0170074Y0386710D01*
X0170224Y0386641D01*
X0170371Y0386569D01*
X0170517Y0386494D01*
X0170661Y0386414D01*
X0170803Y0386332D01*
X0170943Y0386246D01*
X0171080Y0386156D01*
X0171216Y0386063D01*
X0171349Y0385967D01*
X0171480Y0385867D01*
X0171608Y0385765D01*
X0171734Y0385659D01*
X0171857Y0385550D01*
X0171977Y0385438D01*
X0172095Y0385324D01*
X0172209Y0385206D01*
X0172321Y0385086D01*
X0172430Y0384963D01*
X0172536Y0384837D01*
X0172638Y0384709D01*
X0172738Y0384578D01*
X0172834Y0384445D01*
X0172927Y0384309D01*
X0173017Y0384172D01*
X0173103Y0384032D01*
X0173185Y0383890D01*
X0173265Y0383746D01*
X0173340Y0383600D01*
X0173412Y0383453D01*
X0173481Y0383303D01*
X0173546Y0383152D01*
X0173607Y0383000D01*
X0173664Y0382846D01*
X0173717Y0382690D01*
X0173767Y0382534D01*
X0173813Y0382376D01*
X0173854Y0382217D01*
X0173892Y0382057D01*
X0173926Y0381897D01*
X0173956Y0381735D01*
X0173983Y0381573D01*
X0174005Y0381410D01*
X0174023Y0381247D01*
X0174037Y0381083D01*
X0174047Y0380919D01*
X0174053Y0380755D01*
X0174055Y0380591D01*
X0174053Y0380427D01*
X0174047Y0380263D01*
X0174037Y0380099D01*
X0174023Y0379935D01*
X0174005Y0379772D01*
X0173983Y0379609D01*
X0173956Y0379447D01*
X0173926Y0379285D01*
X0173892Y0379125D01*
X0173854Y0378965D01*
X0173813Y0378806D01*
X0173767Y0378648D01*
X0173717Y0378492D01*
X0173664Y0378336D01*
X0173607Y0378182D01*
X0173546Y0378030D01*
X0173481Y0377879D01*
X0173412Y0377729D01*
X0173340Y0377582D01*
X0173265Y0377436D01*
X0173185Y0377292D01*
X0173103Y0377150D01*
X0173017Y0377010D01*
X0172927Y0376873D01*
X0172834Y0376737D01*
X0172738Y0376604D01*
X0172638Y0376473D01*
X0172536Y0376345D01*
X0172430Y0376219D01*
X0172321Y0376096D01*
X0172209Y0375976D01*
X0172095Y0375858D01*
X0171977Y0375744D01*
X0171857Y0375632D01*
X0171734Y0375523D01*
X0171608Y0375417D01*
X0171480Y0375315D01*
X0171349Y0375215D01*
X0171216Y0375119D01*
X0171080Y0375026D01*
X0170943Y0374936D01*
X0170803Y0374850D01*
X0170661Y0374768D01*
X0170517Y0374688D01*
X0170371Y0374613D01*
X0170224Y0374541D01*
X0170074Y0374472D01*
X0169923Y0374407D01*
X0169771Y0374346D01*
X0169617Y0374289D01*
X0169461Y0374236D01*
X0169305Y0374186D01*
X0169147Y0374140D01*
X0168988Y0374099D01*
X0168828Y0374061D01*
X0168668Y0374027D01*
X0168506Y0373997D01*
X0168344Y0373970D01*
X0168181Y0373948D01*
X0168018Y0373930D01*
X0167854Y0373916D01*
X0167690Y0373906D01*
X0167526Y0373900D01*
X0167362Y0373898D01*
X0167198Y0373900D01*
X0167034Y0373906D01*
X0166870Y0373916D01*
X0166706Y0373930D01*
X0166543Y0373948D01*
X0166380Y0373970D01*
X0166218Y0373997D01*
X0166056Y0374027D01*
X0165896Y0374061D01*
X0165736Y0374099D01*
X0165577Y0374140D01*
X0165419Y0374186D01*
X0165263Y0374236D01*
X0165107Y0374289D01*
X0164953Y0374346D01*
X0164801Y0374407D01*
X0164650Y0374472D01*
X0164500Y0374541D01*
X0164353Y0374613D01*
X0164207Y0374688D01*
X0164063Y0374768D01*
X0163921Y0374850D01*
X0163781Y0374936D01*
X0163644Y0375026D01*
X0163508Y0375119D01*
X0163375Y0375215D01*
X0163244Y0375315D01*
X0163116Y0375417D01*
X0162990Y0375523D01*
X0162867Y0375632D01*
X0162747Y0375744D01*
X0162629Y0375858D01*
X0162515Y0375976D01*
X0162403Y0376096D01*
X0162294Y0376219D01*
X0162188Y0376345D01*
X0162086Y0376473D01*
X0161986Y0376604D01*
X0161890Y0376737D01*
X0161797Y0376873D01*
X0161707Y0377010D01*
X0161621Y0377150D01*
X0161539Y0377292D01*
X0161459Y0377436D01*
X0161384Y0377582D01*
X0161312Y0377729D01*
X0161243Y0377879D01*
X0161178Y0378030D01*
X0161117Y0378182D01*
X0161060Y0378336D01*
X0161007Y0378492D01*
X0160957Y0378648D01*
X0160911Y0378806D01*
X0160870Y0378965D01*
X0160832Y0379125D01*
X0160798Y0379285D01*
X0160768Y0379447D01*
X0160741Y0379609D01*
X0160719Y0379772D01*
X0160701Y0379935D01*
X0160687Y0380099D01*
X0160677Y0380263D01*
X0160671Y0380427D01*
X0160669Y0380591D01*
X0092205Y0399882D02*
X0092207Y0400027D01*
X0092213Y0400172D01*
X0092223Y0400317D01*
X0092237Y0400462D01*
X0092255Y0400606D01*
X0092276Y0400749D01*
X0092302Y0400892D01*
X0092331Y0401034D01*
X0092365Y0401176D01*
X0092402Y0401316D01*
X0092443Y0401455D01*
X0092488Y0401593D01*
X0092537Y0401730D01*
X0092589Y0401866D01*
X0092645Y0402000D01*
X0092705Y0402132D01*
X0092768Y0402263D01*
X0092835Y0402391D01*
X0092905Y0402519D01*
X0092979Y0402644D01*
X0093056Y0402767D01*
X0093136Y0402887D01*
X0093220Y0403006D01*
X0093307Y0403122D01*
X0093397Y0403236D01*
X0093490Y0403348D01*
X0093586Y0403456D01*
X0093686Y0403562D01*
X0093787Y0403666D01*
X0093892Y0403766D01*
X0094000Y0403864D01*
X0094110Y0403959D01*
X0094222Y0404050D01*
X0094337Y0404139D01*
X0094455Y0404224D01*
X0094575Y0404306D01*
X0094697Y0404385D01*
X0094821Y0404461D01*
X0094947Y0404533D01*
X0095075Y0404601D01*
X0095205Y0404666D01*
X0095336Y0404728D01*
X0095469Y0404785D01*
X0095604Y0404840D01*
X0095740Y0404890D01*
X0095878Y0404937D01*
X0096016Y0404980D01*
X0096156Y0405019D01*
X0096297Y0405054D01*
X0096439Y0405086D01*
X0096581Y0405113D01*
X0096724Y0405137D01*
X0096868Y0405157D01*
X0097013Y0405173D01*
X0097157Y0405185D01*
X0097302Y0405193D01*
X0097447Y0405197D01*
X0097593Y0405197D01*
X0097738Y0405193D01*
X0097883Y0405185D01*
X0098027Y0405173D01*
X0098172Y0405157D01*
X0098316Y0405137D01*
X0098459Y0405113D01*
X0098601Y0405086D01*
X0098743Y0405054D01*
X0098884Y0405019D01*
X0099024Y0404980D01*
X0099162Y0404937D01*
X0099300Y0404890D01*
X0099436Y0404840D01*
X0099571Y0404785D01*
X0099704Y0404728D01*
X0099835Y0404666D01*
X0099965Y0404601D01*
X0100093Y0404533D01*
X0100219Y0404461D01*
X0100343Y0404385D01*
X0100465Y0404306D01*
X0100585Y0404224D01*
X0100703Y0404139D01*
X0100818Y0404050D01*
X0100930Y0403959D01*
X0101040Y0403864D01*
X0101148Y0403766D01*
X0101253Y0403666D01*
X0101354Y0403562D01*
X0101454Y0403456D01*
X0101550Y0403348D01*
X0101643Y0403236D01*
X0101733Y0403122D01*
X0101820Y0403006D01*
X0101904Y0402887D01*
X0101984Y0402767D01*
X0102061Y0402644D01*
X0102135Y0402519D01*
X0102205Y0402391D01*
X0102272Y0402263D01*
X0102335Y0402132D01*
X0102395Y0402000D01*
X0102451Y0401866D01*
X0102503Y0401730D01*
X0102552Y0401593D01*
X0102597Y0401455D01*
X0102638Y0401316D01*
X0102675Y0401176D01*
X0102709Y0401034D01*
X0102738Y0400892D01*
X0102764Y0400749D01*
X0102785Y0400606D01*
X0102803Y0400462D01*
X0102817Y0400317D01*
X0102827Y0400172D01*
X0102833Y0400027D01*
X0102835Y0399882D01*
X0102833Y0399737D01*
X0102827Y0399592D01*
X0102817Y0399447D01*
X0102803Y0399302D01*
X0102785Y0399158D01*
X0102764Y0399015D01*
X0102738Y0398872D01*
X0102709Y0398730D01*
X0102675Y0398588D01*
X0102638Y0398448D01*
X0102597Y0398309D01*
X0102552Y0398171D01*
X0102503Y0398034D01*
X0102451Y0397898D01*
X0102395Y0397764D01*
X0102335Y0397632D01*
X0102272Y0397501D01*
X0102205Y0397373D01*
X0102135Y0397245D01*
X0102061Y0397120D01*
X0101984Y0396997D01*
X0101904Y0396877D01*
X0101820Y0396758D01*
X0101733Y0396642D01*
X0101643Y0396528D01*
X0101550Y0396416D01*
X0101454Y0396308D01*
X0101354Y0396202D01*
X0101253Y0396098D01*
X0101148Y0395998D01*
X0101040Y0395900D01*
X0100930Y0395805D01*
X0100818Y0395714D01*
X0100703Y0395625D01*
X0100585Y0395540D01*
X0100465Y0395458D01*
X0100343Y0395379D01*
X0100219Y0395303D01*
X0100093Y0395231D01*
X0099965Y0395163D01*
X0099835Y0395098D01*
X0099704Y0395036D01*
X0099571Y0394979D01*
X0099436Y0394924D01*
X0099300Y0394874D01*
X0099162Y0394827D01*
X0099024Y0394784D01*
X0098884Y0394745D01*
X0098743Y0394710D01*
X0098601Y0394678D01*
X0098459Y0394651D01*
X0098316Y0394627D01*
X0098172Y0394607D01*
X0098027Y0394591D01*
X0097883Y0394579D01*
X0097738Y0394571D01*
X0097593Y0394567D01*
X0097447Y0394567D01*
X0097302Y0394571D01*
X0097157Y0394579D01*
X0097013Y0394591D01*
X0096868Y0394607D01*
X0096724Y0394627D01*
X0096581Y0394651D01*
X0096439Y0394678D01*
X0096297Y0394710D01*
X0096156Y0394745D01*
X0096016Y0394784D01*
X0095878Y0394827D01*
X0095740Y0394874D01*
X0095604Y0394924D01*
X0095469Y0394979D01*
X0095336Y0395036D01*
X0095205Y0395098D01*
X0095075Y0395163D01*
X0094947Y0395231D01*
X0094821Y0395303D01*
X0094697Y0395379D01*
X0094575Y0395458D01*
X0094455Y0395540D01*
X0094337Y0395625D01*
X0094222Y0395714D01*
X0094110Y0395805D01*
X0094000Y0395900D01*
X0093892Y0395998D01*
X0093787Y0396098D01*
X0093686Y0396202D01*
X0093586Y0396308D01*
X0093490Y0396416D01*
X0093397Y0396528D01*
X0093307Y0396642D01*
X0093220Y0396758D01*
X0093136Y0396877D01*
X0093056Y0396997D01*
X0092979Y0397120D01*
X0092905Y0397245D01*
X0092835Y0397373D01*
X0092768Y0397501D01*
X0092705Y0397632D01*
X0092645Y0397764D01*
X0092589Y0397898D01*
X0092537Y0398034D01*
X0092488Y0398171D01*
X0092443Y0398309D01*
X0092402Y0398448D01*
X0092365Y0398588D01*
X0092331Y0398730D01*
X0092302Y0398872D01*
X0092276Y0399015D01*
X0092255Y0399158D01*
X0092237Y0399302D01*
X0092223Y0399447D01*
X0092213Y0399592D01*
X0092207Y0399737D01*
X0092205Y0399882D01*
D11*
X0182362Y0402244D02*
X0182362Y0268189D01*
X0182362Y0220354D02*
X0182362Y0169567D01*
X0182363Y0169567D02*
X0182366Y0169296D01*
X0182376Y0169025D01*
X0182392Y0168754D01*
X0182415Y0168484D01*
X0182445Y0168215D01*
X0182481Y0167946D01*
X0182523Y0167678D01*
X0182572Y0167411D01*
X0182627Y0167146D01*
X0182689Y0166882D01*
X0182757Y0166619D01*
X0182831Y0166359D01*
X0182912Y0166100D01*
X0182999Y0165843D01*
X0183092Y0165588D01*
X0183191Y0165336D01*
X0183297Y0165086D01*
X0183408Y0164839D01*
X0183525Y0164594D01*
X0183648Y0164353D01*
X0183777Y0164114D01*
X0183912Y0163879D01*
X0184052Y0163647D01*
X0184198Y0163418D01*
X0184349Y0163193D01*
X0184506Y0162972D01*
X0184668Y0162755D01*
X0184835Y0162541D01*
X0185007Y0162332D01*
X0185185Y0162127D01*
X0185367Y0161926D01*
X0185554Y0161730D01*
X0185746Y0161538D01*
X0185942Y0161351D01*
X0186143Y0161169D01*
X0186348Y0160991D01*
X0186557Y0160819D01*
X0186771Y0160652D01*
X0186988Y0160490D01*
X0187209Y0160333D01*
X0187434Y0160182D01*
X0187663Y0160036D01*
X0187895Y0159896D01*
X0188130Y0159761D01*
X0188369Y0159632D01*
X0188610Y0159509D01*
X0188855Y0159392D01*
X0189102Y0159281D01*
X0189352Y0159175D01*
X0189604Y0159076D01*
X0189859Y0158983D01*
X0190116Y0158896D01*
X0190375Y0158815D01*
X0190635Y0158741D01*
X0190898Y0158673D01*
X0191162Y0158611D01*
X0191427Y0158556D01*
X0191694Y0158507D01*
X0191962Y0158465D01*
X0192231Y0158429D01*
X0192500Y0158399D01*
X0192770Y0158376D01*
X0193041Y0158360D01*
X0193312Y0158350D01*
X0193583Y0158347D01*
X0182363Y0402244D02*
X0182366Y0402515D01*
X0182376Y0402786D01*
X0182392Y0403057D01*
X0182415Y0403327D01*
X0182445Y0403596D01*
X0182481Y0403865D01*
X0182523Y0404133D01*
X0182572Y0404400D01*
X0182627Y0404665D01*
X0182689Y0404929D01*
X0182757Y0405192D01*
X0182831Y0405452D01*
X0182912Y0405711D01*
X0182999Y0405968D01*
X0183092Y0406223D01*
X0183191Y0406475D01*
X0183297Y0406725D01*
X0183408Y0406972D01*
X0183525Y0407217D01*
X0183648Y0407458D01*
X0183777Y0407697D01*
X0183912Y0407932D01*
X0184052Y0408164D01*
X0184198Y0408393D01*
X0184349Y0408618D01*
X0184506Y0408839D01*
X0184668Y0409056D01*
X0184835Y0409270D01*
X0185007Y0409479D01*
X0185185Y0409684D01*
X0185367Y0409885D01*
X0185554Y0410081D01*
X0185746Y0410273D01*
X0185942Y0410460D01*
X0186143Y0410642D01*
X0186348Y0410820D01*
X0186557Y0410992D01*
X0186771Y0411159D01*
X0186988Y0411321D01*
X0187209Y0411478D01*
X0187434Y0411629D01*
X0187663Y0411775D01*
X0187895Y0411915D01*
X0188130Y0412050D01*
X0188369Y0412179D01*
X0188610Y0412302D01*
X0188855Y0412419D01*
X0189102Y0412530D01*
X0189352Y0412636D01*
X0189604Y0412735D01*
X0189859Y0412828D01*
X0190116Y0412915D01*
X0190375Y0412996D01*
X0190635Y0413070D01*
X0190898Y0413138D01*
X0191162Y0413200D01*
X0191427Y0413255D01*
X0191694Y0413304D01*
X0191962Y0413346D01*
X0192231Y0413382D01*
X0192500Y0413412D01*
X0192770Y0413435D01*
X0193041Y0413451D01*
X0193312Y0413461D01*
X0193583Y0413464D01*
D12*
X0325335Y0389134D02*
X0325335Y0379134D01*
X0330335Y0379134D01*
X0330335Y0389134D01*
X0325335Y0389134D01*
X0335177Y0389134D02*
X0335177Y0379134D01*
X0340177Y0379134D01*
X0340177Y0389134D01*
X0335177Y0389134D01*
X0379055Y0385748D02*
X0379055Y0375748D01*
X0389055Y0375748D01*
X0389055Y0385748D01*
X0399055Y0385748D01*
X0399055Y0185748D01*
X0379055Y0185748D01*
X0379055Y0375748D01*
X0379055Y0385748D02*
X0389055Y0385748D01*
X0274843Y0258307D02*
X0264843Y0258307D01*
X0264843Y0248307D01*
X0254843Y0248307D01*
X0254843Y0258307D01*
X0264843Y0258307D01*
X0274843Y0258307D02*
X0274843Y0238307D01*
X0254843Y0238307D01*
X0254843Y0248307D01*
X0265982Y0228386D02*
X0277482Y0228386D01*
X0277482Y0208386D01*
X0265982Y0208386D01*
X0269232Y0208386D01*
X0265982Y0211386D01*
X0265982Y0208386D01*
X0265982Y0228386D01*
X0265982Y0211097D02*
X0266296Y0211097D01*
X0265982Y0210598D02*
X0266836Y0210598D01*
X0267376Y0210100D02*
X0265982Y0210100D01*
X0265982Y0209601D02*
X0267916Y0209601D01*
X0268456Y0209103D02*
X0265982Y0209103D01*
X0265982Y0208604D02*
X0268996Y0208604D01*
X0289173Y0213524D02*
X0289173Y0218524D01*
X0299173Y0218524D01*
X0299173Y0213524D01*
X0289173Y0213524D01*
X0289173Y0218445D02*
X0289173Y0223445D01*
X0299173Y0223445D01*
X0299173Y0218445D01*
X0289173Y0218445D01*
X0289173Y0223366D02*
X0289173Y0228366D01*
X0299173Y0228366D01*
X0299173Y0223366D01*
X0289173Y0223366D01*
X0294094Y0213406D02*
X0294094Y0208406D01*
X0304094Y0208406D01*
X0304094Y0213406D01*
X0294094Y0213406D01*
D13*
X0302178Y0215157D02*
X0302611Y0214724D01*
X0303479Y0214724D01*
X0303913Y0215157D01*
X0303045Y0216025D02*
X0302611Y0216025D01*
X0302178Y0215591D01*
X0302178Y0215157D01*
X0302611Y0216025D02*
X0302178Y0216458D01*
X0302178Y0216892D01*
X0302611Y0217326D01*
X0303479Y0217326D01*
X0303913Y0216892D01*
X0305124Y0216892D02*
X0305124Y0216025D01*
X0305558Y0215591D01*
X0306859Y0215591D01*
X0305992Y0215591D02*
X0305124Y0214724D01*
X0306859Y0214724D02*
X0306859Y0217326D01*
X0305558Y0217326D01*
X0305124Y0216892D01*
X0305124Y0219645D02*
X0305992Y0220512D01*
X0305558Y0220512D02*
X0306859Y0220512D01*
X0306859Y0219645D02*
X0306859Y0222247D01*
X0305558Y0222247D01*
X0305124Y0221813D01*
X0305124Y0220946D01*
X0305558Y0220512D01*
X0303913Y0220946D02*
X0302178Y0220946D01*
X0302611Y0222247D02*
X0303913Y0220946D01*
X0302611Y0219645D02*
X0302611Y0222247D01*
X0302533Y0224487D02*
X0303400Y0224487D01*
X0303834Y0224921D01*
X0303834Y0225789D02*
X0302966Y0226222D01*
X0302533Y0226222D01*
X0302099Y0225789D01*
X0302099Y0224921D01*
X0302533Y0224487D01*
X0303834Y0225789D02*
X0303834Y0227090D01*
X0302099Y0227090D01*
X0305046Y0226656D02*
X0305046Y0225789D01*
X0305479Y0225355D01*
X0306780Y0225355D01*
X0305913Y0225355D02*
X0305046Y0224487D01*
X0306780Y0224487D02*
X0306780Y0227090D01*
X0305479Y0227090D01*
X0305046Y0226656D01*
X0306982Y0212208D02*
X0306982Y0209606D01*
X0306115Y0209606D02*
X0307850Y0209606D01*
X0309061Y0210039D02*
X0309495Y0209606D01*
X0310362Y0209606D01*
X0310796Y0210039D01*
X0310796Y0211774D01*
X0310362Y0212208D01*
X0309495Y0212208D01*
X0309061Y0211774D01*
X0307850Y0211340D02*
X0306982Y0212208D01*
X0253906Y0212011D02*
X0253906Y0209842D01*
X0253473Y0209409D01*
X0252605Y0209409D01*
X0252172Y0209842D01*
X0252172Y0212011D01*
X0250960Y0211143D02*
X0250092Y0212011D01*
X0250092Y0209409D01*
X0249225Y0209409D02*
X0250960Y0209409D01*
X0326535Y0390542D02*
X0329137Y0390542D01*
X0329137Y0391844D01*
X0328703Y0392277D01*
X0327836Y0392277D01*
X0327402Y0391844D01*
X0327402Y0390542D01*
X0327402Y0391410D02*
X0326535Y0392277D01*
X0326535Y0393489D02*
X0328269Y0395224D01*
X0328703Y0395224D01*
X0329137Y0394790D01*
X0329137Y0393923D01*
X0328703Y0393489D01*
X0326535Y0393489D02*
X0326535Y0395224D01*
X0336377Y0395224D02*
X0336377Y0393489D01*
X0336377Y0394356D02*
X0338979Y0394356D01*
X0338112Y0393489D01*
X0338546Y0392277D02*
X0337678Y0392277D01*
X0337245Y0391844D01*
X0337245Y0390542D01*
X0336377Y0390542D02*
X0338979Y0390542D01*
X0338979Y0391844D01*
X0338546Y0392277D01*
X0337245Y0391410D02*
X0336377Y0392277D01*
M02*
