G75*
%MOIN*%
%OFA0B0*%
%FSLAX25Y25*%
%IPPOS*%
%LPD*%
%AMOC8*
5,1,8,0,0,1.08239X$1,22.5*
%
%ADD10C,0.00000*%
%ADD11C,0.01000*%
%ADD12C,0.02000*%
%ADD13C,0.00600*%
%ADD14C,0.00500*%
D10*
X0095551Y0157756D02*
X0390827Y0157756D01*
X0391112Y0157759D01*
X0391398Y0157770D01*
X0391683Y0157787D01*
X0391967Y0157811D01*
X0392251Y0157842D01*
X0392534Y0157880D01*
X0392815Y0157925D01*
X0393096Y0157976D01*
X0393376Y0158034D01*
X0393654Y0158099D01*
X0393930Y0158171D01*
X0394204Y0158249D01*
X0394477Y0158334D01*
X0394747Y0158426D01*
X0395015Y0158524D01*
X0395281Y0158628D01*
X0395544Y0158739D01*
X0395804Y0158856D01*
X0396062Y0158979D01*
X0396316Y0159109D01*
X0396567Y0159245D01*
X0396815Y0159386D01*
X0397059Y0159534D01*
X0397300Y0159687D01*
X0397536Y0159847D01*
X0397769Y0160012D01*
X0397998Y0160182D01*
X0398223Y0160358D01*
X0398443Y0160540D01*
X0398659Y0160726D01*
X0398870Y0160918D01*
X0399077Y0161115D01*
X0399279Y0161317D01*
X0399476Y0161524D01*
X0399668Y0161735D01*
X0399854Y0161951D01*
X0400036Y0162171D01*
X0400212Y0162396D01*
X0400382Y0162625D01*
X0400547Y0162858D01*
X0400707Y0163094D01*
X0400860Y0163335D01*
X0401008Y0163579D01*
X0401149Y0163827D01*
X0401285Y0164078D01*
X0401415Y0164332D01*
X0401538Y0164590D01*
X0401655Y0164850D01*
X0401766Y0165113D01*
X0401870Y0165379D01*
X0401968Y0165647D01*
X0402060Y0165917D01*
X0402145Y0166190D01*
X0402223Y0166464D01*
X0402295Y0166740D01*
X0402360Y0167018D01*
X0402418Y0167298D01*
X0402469Y0167579D01*
X0402514Y0167860D01*
X0402552Y0168143D01*
X0402583Y0168427D01*
X0402607Y0168711D01*
X0402624Y0168996D01*
X0402635Y0169282D01*
X0402638Y0169567D01*
X0402638Y0401850D01*
X0402635Y0402135D01*
X0402624Y0402421D01*
X0402607Y0402706D01*
X0402583Y0402990D01*
X0402552Y0403274D01*
X0402514Y0403557D01*
X0402469Y0403838D01*
X0402418Y0404119D01*
X0402360Y0404399D01*
X0402295Y0404677D01*
X0402223Y0404953D01*
X0402145Y0405227D01*
X0402060Y0405500D01*
X0401968Y0405770D01*
X0401870Y0406038D01*
X0401766Y0406304D01*
X0401655Y0406567D01*
X0401538Y0406827D01*
X0401415Y0407085D01*
X0401285Y0407339D01*
X0401149Y0407590D01*
X0401008Y0407838D01*
X0400860Y0408082D01*
X0400707Y0408323D01*
X0400547Y0408559D01*
X0400382Y0408792D01*
X0400212Y0409021D01*
X0400036Y0409246D01*
X0399854Y0409466D01*
X0399668Y0409682D01*
X0399476Y0409893D01*
X0399279Y0410100D01*
X0399077Y0410302D01*
X0398870Y0410499D01*
X0398659Y0410691D01*
X0398443Y0410877D01*
X0398223Y0411059D01*
X0397998Y0411235D01*
X0397769Y0411405D01*
X0397536Y0411570D01*
X0397300Y0411730D01*
X0397059Y0411883D01*
X0396815Y0412031D01*
X0396567Y0412172D01*
X0396316Y0412308D01*
X0396062Y0412438D01*
X0395804Y0412561D01*
X0395544Y0412678D01*
X0395281Y0412789D01*
X0395015Y0412893D01*
X0394747Y0412991D01*
X0394477Y0413083D01*
X0394204Y0413168D01*
X0393930Y0413246D01*
X0393654Y0413318D01*
X0393376Y0413383D01*
X0393096Y0413441D01*
X0392815Y0413492D01*
X0392534Y0413537D01*
X0392251Y0413575D01*
X0391967Y0413606D01*
X0391683Y0413630D01*
X0391398Y0413647D01*
X0391112Y0413658D01*
X0390827Y0413661D01*
X0095551Y0413661D01*
X0095266Y0413658D01*
X0094980Y0413647D01*
X0094695Y0413630D01*
X0094411Y0413606D01*
X0094127Y0413575D01*
X0093844Y0413537D01*
X0093563Y0413492D01*
X0093282Y0413441D01*
X0093002Y0413383D01*
X0092724Y0413318D01*
X0092448Y0413246D01*
X0092174Y0413168D01*
X0091901Y0413083D01*
X0091631Y0412991D01*
X0091363Y0412893D01*
X0091097Y0412789D01*
X0090834Y0412678D01*
X0090574Y0412561D01*
X0090316Y0412438D01*
X0090062Y0412308D01*
X0089811Y0412172D01*
X0089563Y0412031D01*
X0089319Y0411883D01*
X0089078Y0411730D01*
X0088842Y0411570D01*
X0088609Y0411405D01*
X0088380Y0411235D01*
X0088155Y0411059D01*
X0087935Y0410877D01*
X0087719Y0410691D01*
X0087508Y0410499D01*
X0087301Y0410302D01*
X0087099Y0410100D01*
X0086902Y0409893D01*
X0086710Y0409682D01*
X0086524Y0409466D01*
X0086342Y0409246D01*
X0086166Y0409021D01*
X0085996Y0408792D01*
X0085831Y0408559D01*
X0085671Y0408323D01*
X0085518Y0408082D01*
X0085370Y0407838D01*
X0085229Y0407590D01*
X0085093Y0407339D01*
X0084963Y0407085D01*
X0084840Y0406827D01*
X0084723Y0406567D01*
X0084612Y0406304D01*
X0084508Y0406038D01*
X0084410Y0405770D01*
X0084318Y0405500D01*
X0084233Y0405227D01*
X0084155Y0404953D01*
X0084083Y0404677D01*
X0084018Y0404399D01*
X0083960Y0404119D01*
X0083909Y0403838D01*
X0083864Y0403557D01*
X0083826Y0403274D01*
X0083795Y0402990D01*
X0083771Y0402706D01*
X0083754Y0402421D01*
X0083743Y0402135D01*
X0083740Y0401850D01*
X0083740Y0346732D01*
X0150669Y0346732D01*
X0150669Y0267992D01*
X0233346Y0267992D01*
X0233346Y0220748D01*
X0150669Y0220748D01*
X0150669Y0193189D01*
X0083740Y0193189D01*
X0083740Y0169567D01*
X0083743Y0169282D01*
X0083754Y0168996D01*
X0083771Y0168711D01*
X0083795Y0168427D01*
X0083826Y0168143D01*
X0083864Y0167860D01*
X0083909Y0167579D01*
X0083960Y0167298D01*
X0084018Y0167018D01*
X0084083Y0166740D01*
X0084155Y0166464D01*
X0084233Y0166190D01*
X0084318Y0165917D01*
X0084410Y0165647D01*
X0084508Y0165379D01*
X0084612Y0165113D01*
X0084723Y0164850D01*
X0084840Y0164590D01*
X0084963Y0164332D01*
X0085093Y0164078D01*
X0085229Y0163827D01*
X0085370Y0163579D01*
X0085518Y0163335D01*
X0085671Y0163094D01*
X0085831Y0162858D01*
X0085996Y0162625D01*
X0086166Y0162396D01*
X0086342Y0162171D01*
X0086524Y0161951D01*
X0086710Y0161735D01*
X0086902Y0161524D01*
X0087099Y0161317D01*
X0087301Y0161115D01*
X0087508Y0160918D01*
X0087719Y0160726D01*
X0087935Y0160540D01*
X0088155Y0160358D01*
X0088380Y0160182D01*
X0088609Y0160012D01*
X0088842Y0159847D01*
X0089078Y0159687D01*
X0089319Y0159534D01*
X0089563Y0159386D01*
X0089811Y0159245D01*
X0090062Y0159109D01*
X0090316Y0158979D01*
X0090574Y0158856D01*
X0090834Y0158739D01*
X0091097Y0158628D01*
X0091363Y0158524D01*
X0091631Y0158426D01*
X0091901Y0158334D01*
X0092174Y0158249D01*
X0092448Y0158171D01*
X0092724Y0158099D01*
X0093002Y0158034D01*
X0093282Y0157976D01*
X0093563Y0157925D01*
X0093844Y0157880D01*
X0094127Y0157842D01*
X0094411Y0157811D01*
X0094695Y0157787D01*
X0094980Y0157770D01*
X0095266Y0157759D01*
X0095551Y0157756D01*
X0092205Y0171535D02*
X0092207Y0171680D01*
X0092213Y0171825D01*
X0092223Y0171970D01*
X0092237Y0172115D01*
X0092255Y0172259D01*
X0092276Y0172402D01*
X0092302Y0172545D01*
X0092331Y0172687D01*
X0092365Y0172829D01*
X0092402Y0172969D01*
X0092443Y0173108D01*
X0092488Y0173246D01*
X0092537Y0173383D01*
X0092589Y0173519D01*
X0092645Y0173653D01*
X0092705Y0173785D01*
X0092768Y0173916D01*
X0092835Y0174044D01*
X0092905Y0174172D01*
X0092979Y0174297D01*
X0093056Y0174420D01*
X0093136Y0174540D01*
X0093220Y0174659D01*
X0093307Y0174775D01*
X0093397Y0174889D01*
X0093490Y0175001D01*
X0093586Y0175109D01*
X0093686Y0175215D01*
X0093787Y0175319D01*
X0093892Y0175419D01*
X0094000Y0175517D01*
X0094110Y0175612D01*
X0094222Y0175703D01*
X0094337Y0175792D01*
X0094455Y0175877D01*
X0094575Y0175959D01*
X0094697Y0176038D01*
X0094821Y0176114D01*
X0094947Y0176186D01*
X0095075Y0176254D01*
X0095205Y0176319D01*
X0095336Y0176381D01*
X0095469Y0176438D01*
X0095604Y0176493D01*
X0095740Y0176543D01*
X0095878Y0176590D01*
X0096016Y0176633D01*
X0096156Y0176672D01*
X0096297Y0176707D01*
X0096439Y0176739D01*
X0096581Y0176766D01*
X0096724Y0176790D01*
X0096868Y0176810D01*
X0097013Y0176826D01*
X0097157Y0176838D01*
X0097302Y0176846D01*
X0097447Y0176850D01*
X0097593Y0176850D01*
X0097738Y0176846D01*
X0097883Y0176838D01*
X0098027Y0176826D01*
X0098172Y0176810D01*
X0098316Y0176790D01*
X0098459Y0176766D01*
X0098601Y0176739D01*
X0098743Y0176707D01*
X0098884Y0176672D01*
X0099024Y0176633D01*
X0099162Y0176590D01*
X0099300Y0176543D01*
X0099436Y0176493D01*
X0099571Y0176438D01*
X0099704Y0176381D01*
X0099835Y0176319D01*
X0099965Y0176254D01*
X0100093Y0176186D01*
X0100219Y0176114D01*
X0100343Y0176038D01*
X0100465Y0175959D01*
X0100585Y0175877D01*
X0100703Y0175792D01*
X0100818Y0175703D01*
X0100930Y0175612D01*
X0101040Y0175517D01*
X0101148Y0175419D01*
X0101253Y0175319D01*
X0101354Y0175215D01*
X0101454Y0175109D01*
X0101550Y0175001D01*
X0101643Y0174889D01*
X0101733Y0174775D01*
X0101820Y0174659D01*
X0101904Y0174540D01*
X0101984Y0174420D01*
X0102061Y0174297D01*
X0102135Y0174172D01*
X0102205Y0174044D01*
X0102272Y0173916D01*
X0102335Y0173785D01*
X0102395Y0173653D01*
X0102451Y0173519D01*
X0102503Y0173383D01*
X0102552Y0173246D01*
X0102597Y0173108D01*
X0102638Y0172969D01*
X0102675Y0172829D01*
X0102709Y0172687D01*
X0102738Y0172545D01*
X0102764Y0172402D01*
X0102785Y0172259D01*
X0102803Y0172115D01*
X0102817Y0171970D01*
X0102827Y0171825D01*
X0102833Y0171680D01*
X0102835Y0171535D01*
X0102833Y0171390D01*
X0102827Y0171245D01*
X0102817Y0171100D01*
X0102803Y0170955D01*
X0102785Y0170811D01*
X0102764Y0170668D01*
X0102738Y0170525D01*
X0102709Y0170383D01*
X0102675Y0170241D01*
X0102638Y0170101D01*
X0102597Y0169962D01*
X0102552Y0169824D01*
X0102503Y0169687D01*
X0102451Y0169551D01*
X0102395Y0169417D01*
X0102335Y0169285D01*
X0102272Y0169154D01*
X0102205Y0169026D01*
X0102135Y0168898D01*
X0102061Y0168773D01*
X0101984Y0168650D01*
X0101904Y0168530D01*
X0101820Y0168411D01*
X0101733Y0168295D01*
X0101643Y0168181D01*
X0101550Y0168069D01*
X0101454Y0167961D01*
X0101354Y0167855D01*
X0101253Y0167751D01*
X0101148Y0167651D01*
X0101040Y0167553D01*
X0100930Y0167458D01*
X0100818Y0167367D01*
X0100703Y0167278D01*
X0100585Y0167193D01*
X0100465Y0167111D01*
X0100343Y0167032D01*
X0100219Y0166956D01*
X0100093Y0166884D01*
X0099965Y0166816D01*
X0099835Y0166751D01*
X0099704Y0166689D01*
X0099571Y0166632D01*
X0099436Y0166577D01*
X0099300Y0166527D01*
X0099162Y0166480D01*
X0099024Y0166437D01*
X0098884Y0166398D01*
X0098743Y0166363D01*
X0098601Y0166331D01*
X0098459Y0166304D01*
X0098316Y0166280D01*
X0098172Y0166260D01*
X0098027Y0166244D01*
X0097883Y0166232D01*
X0097738Y0166224D01*
X0097593Y0166220D01*
X0097447Y0166220D01*
X0097302Y0166224D01*
X0097157Y0166232D01*
X0097013Y0166244D01*
X0096868Y0166260D01*
X0096724Y0166280D01*
X0096581Y0166304D01*
X0096439Y0166331D01*
X0096297Y0166363D01*
X0096156Y0166398D01*
X0096016Y0166437D01*
X0095878Y0166480D01*
X0095740Y0166527D01*
X0095604Y0166577D01*
X0095469Y0166632D01*
X0095336Y0166689D01*
X0095205Y0166751D01*
X0095075Y0166816D01*
X0094947Y0166884D01*
X0094821Y0166956D01*
X0094697Y0167032D01*
X0094575Y0167111D01*
X0094455Y0167193D01*
X0094337Y0167278D01*
X0094222Y0167367D01*
X0094110Y0167458D01*
X0094000Y0167553D01*
X0093892Y0167651D01*
X0093787Y0167751D01*
X0093686Y0167855D01*
X0093586Y0167961D01*
X0093490Y0168069D01*
X0093397Y0168181D01*
X0093307Y0168295D01*
X0093220Y0168411D01*
X0093136Y0168530D01*
X0093056Y0168650D01*
X0092979Y0168773D01*
X0092905Y0168898D01*
X0092835Y0169026D01*
X0092768Y0169154D01*
X0092705Y0169285D01*
X0092645Y0169417D01*
X0092589Y0169551D01*
X0092537Y0169687D01*
X0092488Y0169824D01*
X0092443Y0169962D01*
X0092402Y0170101D01*
X0092365Y0170241D01*
X0092331Y0170383D01*
X0092302Y0170525D01*
X0092276Y0170668D01*
X0092255Y0170811D01*
X0092237Y0170955D01*
X0092223Y0171100D01*
X0092213Y0171245D01*
X0092207Y0171390D01*
X0092205Y0171535D01*
X0160669Y0190827D02*
X0160671Y0190991D01*
X0160677Y0191155D01*
X0160687Y0191319D01*
X0160701Y0191483D01*
X0160719Y0191646D01*
X0160741Y0191809D01*
X0160768Y0191971D01*
X0160798Y0192133D01*
X0160832Y0192293D01*
X0160870Y0192453D01*
X0160911Y0192612D01*
X0160957Y0192770D01*
X0161007Y0192926D01*
X0161060Y0193082D01*
X0161117Y0193236D01*
X0161178Y0193388D01*
X0161243Y0193539D01*
X0161312Y0193689D01*
X0161384Y0193836D01*
X0161459Y0193982D01*
X0161539Y0194126D01*
X0161621Y0194268D01*
X0161707Y0194408D01*
X0161797Y0194545D01*
X0161890Y0194681D01*
X0161986Y0194814D01*
X0162086Y0194945D01*
X0162188Y0195073D01*
X0162294Y0195199D01*
X0162403Y0195322D01*
X0162515Y0195442D01*
X0162629Y0195560D01*
X0162747Y0195674D01*
X0162867Y0195786D01*
X0162990Y0195895D01*
X0163116Y0196001D01*
X0163244Y0196103D01*
X0163375Y0196203D01*
X0163508Y0196299D01*
X0163644Y0196392D01*
X0163781Y0196482D01*
X0163921Y0196568D01*
X0164063Y0196650D01*
X0164207Y0196730D01*
X0164353Y0196805D01*
X0164500Y0196877D01*
X0164650Y0196946D01*
X0164801Y0197011D01*
X0164953Y0197072D01*
X0165107Y0197129D01*
X0165263Y0197182D01*
X0165419Y0197232D01*
X0165577Y0197278D01*
X0165736Y0197319D01*
X0165896Y0197357D01*
X0166056Y0197391D01*
X0166218Y0197421D01*
X0166380Y0197448D01*
X0166543Y0197470D01*
X0166706Y0197488D01*
X0166870Y0197502D01*
X0167034Y0197512D01*
X0167198Y0197518D01*
X0167362Y0197520D01*
X0167526Y0197518D01*
X0167690Y0197512D01*
X0167854Y0197502D01*
X0168018Y0197488D01*
X0168181Y0197470D01*
X0168344Y0197448D01*
X0168506Y0197421D01*
X0168668Y0197391D01*
X0168828Y0197357D01*
X0168988Y0197319D01*
X0169147Y0197278D01*
X0169305Y0197232D01*
X0169461Y0197182D01*
X0169617Y0197129D01*
X0169771Y0197072D01*
X0169923Y0197011D01*
X0170074Y0196946D01*
X0170224Y0196877D01*
X0170371Y0196805D01*
X0170517Y0196730D01*
X0170661Y0196650D01*
X0170803Y0196568D01*
X0170943Y0196482D01*
X0171080Y0196392D01*
X0171216Y0196299D01*
X0171349Y0196203D01*
X0171480Y0196103D01*
X0171608Y0196001D01*
X0171734Y0195895D01*
X0171857Y0195786D01*
X0171977Y0195674D01*
X0172095Y0195560D01*
X0172209Y0195442D01*
X0172321Y0195322D01*
X0172430Y0195199D01*
X0172536Y0195073D01*
X0172638Y0194945D01*
X0172738Y0194814D01*
X0172834Y0194681D01*
X0172927Y0194545D01*
X0173017Y0194408D01*
X0173103Y0194268D01*
X0173185Y0194126D01*
X0173265Y0193982D01*
X0173340Y0193836D01*
X0173412Y0193689D01*
X0173481Y0193539D01*
X0173546Y0193388D01*
X0173607Y0193236D01*
X0173664Y0193082D01*
X0173717Y0192926D01*
X0173767Y0192770D01*
X0173813Y0192612D01*
X0173854Y0192453D01*
X0173892Y0192293D01*
X0173926Y0192133D01*
X0173956Y0191971D01*
X0173983Y0191809D01*
X0174005Y0191646D01*
X0174023Y0191483D01*
X0174037Y0191319D01*
X0174047Y0191155D01*
X0174053Y0190991D01*
X0174055Y0190827D01*
X0174053Y0190663D01*
X0174047Y0190499D01*
X0174037Y0190335D01*
X0174023Y0190171D01*
X0174005Y0190008D01*
X0173983Y0189845D01*
X0173956Y0189683D01*
X0173926Y0189521D01*
X0173892Y0189361D01*
X0173854Y0189201D01*
X0173813Y0189042D01*
X0173767Y0188884D01*
X0173717Y0188728D01*
X0173664Y0188572D01*
X0173607Y0188418D01*
X0173546Y0188266D01*
X0173481Y0188115D01*
X0173412Y0187965D01*
X0173340Y0187818D01*
X0173265Y0187672D01*
X0173185Y0187528D01*
X0173103Y0187386D01*
X0173017Y0187246D01*
X0172927Y0187109D01*
X0172834Y0186973D01*
X0172738Y0186840D01*
X0172638Y0186709D01*
X0172536Y0186581D01*
X0172430Y0186455D01*
X0172321Y0186332D01*
X0172209Y0186212D01*
X0172095Y0186094D01*
X0171977Y0185980D01*
X0171857Y0185868D01*
X0171734Y0185759D01*
X0171608Y0185653D01*
X0171480Y0185551D01*
X0171349Y0185451D01*
X0171216Y0185355D01*
X0171080Y0185262D01*
X0170943Y0185172D01*
X0170803Y0185086D01*
X0170661Y0185004D01*
X0170517Y0184924D01*
X0170371Y0184849D01*
X0170224Y0184777D01*
X0170074Y0184708D01*
X0169923Y0184643D01*
X0169771Y0184582D01*
X0169617Y0184525D01*
X0169461Y0184472D01*
X0169305Y0184422D01*
X0169147Y0184376D01*
X0168988Y0184335D01*
X0168828Y0184297D01*
X0168668Y0184263D01*
X0168506Y0184233D01*
X0168344Y0184206D01*
X0168181Y0184184D01*
X0168018Y0184166D01*
X0167854Y0184152D01*
X0167690Y0184142D01*
X0167526Y0184136D01*
X0167362Y0184134D01*
X0167198Y0184136D01*
X0167034Y0184142D01*
X0166870Y0184152D01*
X0166706Y0184166D01*
X0166543Y0184184D01*
X0166380Y0184206D01*
X0166218Y0184233D01*
X0166056Y0184263D01*
X0165896Y0184297D01*
X0165736Y0184335D01*
X0165577Y0184376D01*
X0165419Y0184422D01*
X0165263Y0184472D01*
X0165107Y0184525D01*
X0164953Y0184582D01*
X0164801Y0184643D01*
X0164650Y0184708D01*
X0164500Y0184777D01*
X0164353Y0184849D01*
X0164207Y0184924D01*
X0164063Y0185004D01*
X0163921Y0185086D01*
X0163781Y0185172D01*
X0163644Y0185262D01*
X0163508Y0185355D01*
X0163375Y0185451D01*
X0163244Y0185551D01*
X0163116Y0185653D01*
X0162990Y0185759D01*
X0162867Y0185868D01*
X0162747Y0185980D01*
X0162629Y0186094D01*
X0162515Y0186212D01*
X0162403Y0186332D01*
X0162294Y0186455D01*
X0162188Y0186581D01*
X0162086Y0186709D01*
X0161986Y0186840D01*
X0161890Y0186973D01*
X0161797Y0187109D01*
X0161707Y0187246D01*
X0161621Y0187386D01*
X0161539Y0187528D01*
X0161459Y0187672D01*
X0161384Y0187818D01*
X0161312Y0187965D01*
X0161243Y0188115D01*
X0161178Y0188266D01*
X0161117Y0188418D01*
X0161060Y0188572D01*
X0161007Y0188728D01*
X0160957Y0188884D01*
X0160911Y0189042D01*
X0160870Y0189201D01*
X0160832Y0189361D01*
X0160798Y0189521D01*
X0160768Y0189683D01*
X0160741Y0189845D01*
X0160719Y0190008D01*
X0160701Y0190171D01*
X0160687Y0190335D01*
X0160677Y0190499D01*
X0160671Y0190663D01*
X0160669Y0190827D01*
X0190630Y0171535D02*
X0190632Y0171680D01*
X0190638Y0171825D01*
X0190648Y0171970D01*
X0190662Y0172115D01*
X0190680Y0172259D01*
X0190701Y0172402D01*
X0190727Y0172545D01*
X0190756Y0172687D01*
X0190790Y0172829D01*
X0190827Y0172969D01*
X0190868Y0173108D01*
X0190913Y0173246D01*
X0190962Y0173383D01*
X0191014Y0173519D01*
X0191070Y0173653D01*
X0191130Y0173785D01*
X0191193Y0173916D01*
X0191260Y0174044D01*
X0191330Y0174172D01*
X0191404Y0174297D01*
X0191481Y0174420D01*
X0191561Y0174540D01*
X0191645Y0174659D01*
X0191732Y0174775D01*
X0191822Y0174889D01*
X0191915Y0175001D01*
X0192011Y0175109D01*
X0192111Y0175215D01*
X0192212Y0175319D01*
X0192317Y0175419D01*
X0192425Y0175517D01*
X0192535Y0175612D01*
X0192647Y0175703D01*
X0192762Y0175792D01*
X0192880Y0175877D01*
X0193000Y0175959D01*
X0193122Y0176038D01*
X0193246Y0176114D01*
X0193372Y0176186D01*
X0193500Y0176254D01*
X0193630Y0176319D01*
X0193761Y0176381D01*
X0193894Y0176438D01*
X0194029Y0176493D01*
X0194165Y0176543D01*
X0194303Y0176590D01*
X0194441Y0176633D01*
X0194581Y0176672D01*
X0194722Y0176707D01*
X0194864Y0176739D01*
X0195006Y0176766D01*
X0195149Y0176790D01*
X0195293Y0176810D01*
X0195438Y0176826D01*
X0195582Y0176838D01*
X0195727Y0176846D01*
X0195872Y0176850D01*
X0196018Y0176850D01*
X0196163Y0176846D01*
X0196308Y0176838D01*
X0196452Y0176826D01*
X0196597Y0176810D01*
X0196741Y0176790D01*
X0196884Y0176766D01*
X0197026Y0176739D01*
X0197168Y0176707D01*
X0197309Y0176672D01*
X0197449Y0176633D01*
X0197587Y0176590D01*
X0197725Y0176543D01*
X0197861Y0176493D01*
X0197996Y0176438D01*
X0198129Y0176381D01*
X0198260Y0176319D01*
X0198390Y0176254D01*
X0198518Y0176186D01*
X0198644Y0176114D01*
X0198768Y0176038D01*
X0198890Y0175959D01*
X0199010Y0175877D01*
X0199128Y0175792D01*
X0199243Y0175703D01*
X0199355Y0175612D01*
X0199465Y0175517D01*
X0199573Y0175419D01*
X0199678Y0175319D01*
X0199779Y0175215D01*
X0199879Y0175109D01*
X0199975Y0175001D01*
X0200068Y0174889D01*
X0200158Y0174775D01*
X0200245Y0174659D01*
X0200329Y0174540D01*
X0200409Y0174420D01*
X0200486Y0174297D01*
X0200560Y0174172D01*
X0200630Y0174044D01*
X0200697Y0173916D01*
X0200760Y0173785D01*
X0200820Y0173653D01*
X0200876Y0173519D01*
X0200928Y0173383D01*
X0200977Y0173246D01*
X0201022Y0173108D01*
X0201063Y0172969D01*
X0201100Y0172829D01*
X0201134Y0172687D01*
X0201163Y0172545D01*
X0201189Y0172402D01*
X0201210Y0172259D01*
X0201228Y0172115D01*
X0201242Y0171970D01*
X0201252Y0171825D01*
X0201258Y0171680D01*
X0201260Y0171535D01*
X0201258Y0171390D01*
X0201252Y0171245D01*
X0201242Y0171100D01*
X0201228Y0170955D01*
X0201210Y0170811D01*
X0201189Y0170668D01*
X0201163Y0170525D01*
X0201134Y0170383D01*
X0201100Y0170241D01*
X0201063Y0170101D01*
X0201022Y0169962D01*
X0200977Y0169824D01*
X0200928Y0169687D01*
X0200876Y0169551D01*
X0200820Y0169417D01*
X0200760Y0169285D01*
X0200697Y0169154D01*
X0200630Y0169026D01*
X0200560Y0168898D01*
X0200486Y0168773D01*
X0200409Y0168650D01*
X0200329Y0168530D01*
X0200245Y0168411D01*
X0200158Y0168295D01*
X0200068Y0168181D01*
X0199975Y0168069D01*
X0199879Y0167961D01*
X0199779Y0167855D01*
X0199678Y0167751D01*
X0199573Y0167651D01*
X0199465Y0167553D01*
X0199355Y0167458D01*
X0199243Y0167367D01*
X0199128Y0167278D01*
X0199010Y0167193D01*
X0198890Y0167111D01*
X0198768Y0167032D01*
X0198644Y0166956D01*
X0198518Y0166884D01*
X0198390Y0166816D01*
X0198260Y0166751D01*
X0198129Y0166689D01*
X0197996Y0166632D01*
X0197861Y0166577D01*
X0197725Y0166527D01*
X0197587Y0166480D01*
X0197449Y0166437D01*
X0197309Y0166398D01*
X0197168Y0166363D01*
X0197026Y0166331D01*
X0196884Y0166304D01*
X0196741Y0166280D01*
X0196597Y0166260D01*
X0196452Y0166244D01*
X0196308Y0166232D01*
X0196163Y0166224D01*
X0196018Y0166220D01*
X0195872Y0166220D01*
X0195727Y0166224D01*
X0195582Y0166232D01*
X0195438Y0166244D01*
X0195293Y0166260D01*
X0195149Y0166280D01*
X0195006Y0166304D01*
X0194864Y0166331D01*
X0194722Y0166363D01*
X0194581Y0166398D01*
X0194441Y0166437D01*
X0194303Y0166480D01*
X0194165Y0166527D01*
X0194029Y0166577D01*
X0193894Y0166632D01*
X0193761Y0166689D01*
X0193630Y0166751D01*
X0193500Y0166816D01*
X0193372Y0166884D01*
X0193246Y0166956D01*
X0193122Y0167032D01*
X0193000Y0167111D01*
X0192880Y0167193D01*
X0192762Y0167278D01*
X0192647Y0167367D01*
X0192535Y0167458D01*
X0192425Y0167553D01*
X0192317Y0167651D01*
X0192212Y0167751D01*
X0192111Y0167855D01*
X0192011Y0167961D01*
X0191915Y0168069D01*
X0191822Y0168181D01*
X0191732Y0168295D01*
X0191645Y0168411D01*
X0191561Y0168530D01*
X0191481Y0168650D01*
X0191404Y0168773D01*
X0191330Y0168898D01*
X0191260Y0169026D01*
X0191193Y0169154D01*
X0191130Y0169285D01*
X0191070Y0169417D01*
X0191014Y0169551D01*
X0190962Y0169687D01*
X0190913Y0169824D01*
X0190868Y0169962D01*
X0190827Y0170101D01*
X0190790Y0170241D01*
X0190756Y0170383D01*
X0190727Y0170525D01*
X0190701Y0170668D01*
X0190680Y0170811D01*
X0190662Y0170955D01*
X0190648Y0171100D01*
X0190638Y0171245D01*
X0190632Y0171390D01*
X0190630Y0171535D01*
X0345551Y0237087D02*
X0345551Y0268583D01*
X0377047Y0268583D01*
X0377047Y0237087D01*
X0345551Y0237087D01*
X0360669Y0210906D02*
X0360671Y0211070D01*
X0360677Y0211234D01*
X0360687Y0211398D01*
X0360701Y0211562D01*
X0360719Y0211725D01*
X0360741Y0211888D01*
X0360768Y0212050D01*
X0360798Y0212212D01*
X0360832Y0212372D01*
X0360870Y0212532D01*
X0360911Y0212691D01*
X0360957Y0212849D01*
X0361007Y0213005D01*
X0361060Y0213161D01*
X0361117Y0213315D01*
X0361178Y0213467D01*
X0361243Y0213618D01*
X0361312Y0213768D01*
X0361384Y0213915D01*
X0361459Y0214061D01*
X0361539Y0214205D01*
X0361621Y0214347D01*
X0361707Y0214487D01*
X0361797Y0214624D01*
X0361890Y0214760D01*
X0361986Y0214893D01*
X0362086Y0215024D01*
X0362188Y0215152D01*
X0362294Y0215278D01*
X0362403Y0215401D01*
X0362515Y0215521D01*
X0362629Y0215639D01*
X0362747Y0215753D01*
X0362867Y0215865D01*
X0362990Y0215974D01*
X0363116Y0216080D01*
X0363244Y0216182D01*
X0363375Y0216282D01*
X0363508Y0216378D01*
X0363644Y0216471D01*
X0363781Y0216561D01*
X0363921Y0216647D01*
X0364063Y0216729D01*
X0364207Y0216809D01*
X0364353Y0216884D01*
X0364500Y0216956D01*
X0364650Y0217025D01*
X0364801Y0217090D01*
X0364953Y0217151D01*
X0365107Y0217208D01*
X0365263Y0217261D01*
X0365419Y0217311D01*
X0365577Y0217357D01*
X0365736Y0217398D01*
X0365896Y0217436D01*
X0366056Y0217470D01*
X0366218Y0217500D01*
X0366380Y0217527D01*
X0366543Y0217549D01*
X0366706Y0217567D01*
X0366870Y0217581D01*
X0367034Y0217591D01*
X0367198Y0217597D01*
X0367362Y0217599D01*
X0367526Y0217597D01*
X0367690Y0217591D01*
X0367854Y0217581D01*
X0368018Y0217567D01*
X0368181Y0217549D01*
X0368344Y0217527D01*
X0368506Y0217500D01*
X0368668Y0217470D01*
X0368828Y0217436D01*
X0368988Y0217398D01*
X0369147Y0217357D01*
X0369305Y0217311D01*
X0369461Y0217261D01*
X0369617Y0217208D01*
X0369771Y0217151D01*
X0369923Y0217090D01*
X0370074Y0217025D01*
X0370224Y0216956D01*
X0370371Y0216884D01*
X0370517Y0216809D01*
X0370661Y0216729D01*
X0370803Y0216647D01*
X0370943Y0216561D01*
X0371080Y0216471D01*
X0371216Y0216378D01*
X0371349Y0216282D01*
X0371480Y0216182D01*
X0371608Y0216080D01*
X0371734Y0215974D01*
X0371857Y0215865D01*
X0371977Y0215753D01*
X0372095Y0215639D01*
X0372209Y0215521D01*
X0372321Y0215401D01*
X0372430Y0215278D01*
X0372536Y0215152D01*
X0372638Y0215024D01*
X0372738Y0214893D01*
X0372834Y0214760D01*
X0372927Y0214624D01*
X0373017Y0214487D01*
X0373103Y0214347D01*
X0373185Y0214205D01*
X0373265Y0214061D01*
X0373340Y0213915D01*
X0373412Y0213768D01*
X0373481Y0213618D01*
X0373546Y0213467D01*
X0373607Y0213315D01*
X0373664Y0213161D01*
X0373717Y0213005D01*
X0373767Y0212849D01*
X0373813Y0212691D01*
X0373854Y0212532D01*
X0373892Y0212372D01*
X0373926Y0212212D01*
X0373956Y0212050D01*
X0373983Y0211888D01*
X0374005Y0211725D01*
X0374023Y0211562D01*
X0374037Y0211398D01*
X0374047Y0211234D01*
X0374053Y0211070D01*
X0374055Y0210906D01*
X0374053Y0210742D01*
X0374047Y0210578D01*
X0374037Y0210414D01*
X0374023Y0210250D01*
X0374005Y0210087D01*
X0373983Y0209924D01*
X0373956Y0209762D01*
X0373926Y0209600D01*
X0373892Y0209440D01*
X0373854Y0209280D01*
X0373813Y0209121D01*
X0373767Y0208963D01*
X0373717Y0208807D01*
X0373664Y0208651D01*
X0373607Y0208497D01*
X0373546Y0208345D01*
X0373481Y0208194D01*
X0373412Y0208044D01*
X0373340Y0207897D01*
X0373265Y0207751D01*
X0373185Y0207607D01*
X0373103Y0207465D01*
X0373017Y0207325D01*
X0372927Y0207188D01*
X0372834Y0207052D01*
X0372738Y0206919D01*
X0372638Y0206788D01*
X0372536Y0206660D01*
X0372430Y0206534D01*
X0372321Y0206411D01*
X0372209Y0206291D01*
X0372095Y0206173D01*
X0371977Y0206059D01*
X0371857Y0205947D01*
X0371734Y0205838D01*
X0371608Y0205732D01*
X0371480Y0205630D01*
X0371349Y0205530D01*
X0371216Y0205434D01*
X0371080Y0205341D01*
X0370943Y0205251D01*
X0370803Y0205165D01*
X0370661Y0205083D01*
X0370517Y0205003D01*
X0370371Y0204928D01*
X0370224Y0204856D01*
X0370074Y0204787D01*
X0369923Y0204722D01*
X0369771Y0204661D01*
X0369617Y0204604D01*
X0369461Y0204551D01*
X0369305Y0204501D01*
X0369147Y0204455D01*
X0368988Y0204414D01*
X0368828Y0204376D01*
X0368668Y0204342D01*
X0368506Y0204312D01*
X0368344Y0204285D01*
X0368181Y0204263D01*
X0368018Y0204245D01*
X0367854Y0204231D01*
X0367690Y0204221D01*
X0367526Y0204215D01*
X0367362Y0204213D01*
X0367198Y0204215D01*
X0367034Y0204221D01*
X0366870Y0204231D01*
X0366706Y0204245D01*
X0366543Y0204263D01*
X0366380Y0204285D01*
X0366218Y0204312D01*
X0366056Y0204342D01*
X0365896Y0204376D01*
X0365736Y0204414D01*
X0365577Y0204455D01*
X0365419Y0204501D01*
X0365263Y0204551D01*
X0365107Y0204604D01*
X0364953Y0204661D01*
X0364801Y0204722D01*
X0364650Y0204787D01*
X0364500Y0204856D01*
X0364353Y0204928D01*
X0364207Y0205003D01*
X0364063Y0205083D01*
X0363921Y0205165D01*
X0363781Y0205251D01*
X0363644Y0205341D01*
X0363508Y0205434D01*
X0363375Y0205530D01*
X0363244Y0205630D01*
X0363116Y0205732D01*
X0362990Y0205838D01*
X0362867Y0205947D01*
X0362747Y0206059D01*
X0362629Y0206173D01*
X0362515Y0206291D01*
X0362403Y0206411D01*
X0362294Y0206534D01*
X0362188Y0206660D01*
X0362086Y0206788D01*
X0361986Y0206919D01*
X0361890Y0207052D01*
X0361797Y0207188D01*
X0361707Y0207325D01*
X0361621Y0207465D01*
X0361539Y0207607D01*
X0361459Y0207751D01*
X0361384Y0207897D01*
X0361312Y0208044D01*
X0361243Y0208194D01*
X0361178Y0208345D01*
X0361117Y0208497D01*
X0361060Y0208651D01*
X0361007Y0208807D01*
X0360957Y0208963D01*
X0360911Y0209121D01*
X0360870Y0209280D01*
X0360832Y0209440D01*
X0360798Y0209600D01*
X0360768Y0209762D01*
X0360741Y0209924D01*
X0360719Y0210087D01*
X0360701Y0210250D01*
X0360687Y0210414D01*
X0360677Y0210578D01*
X0360671Y0210742D01*
X0360669Y0210906D01*
X0383543Y0171535D02*
X0383545Y0171680D01*
X0383551Y0171825D01*
X0383561Y0171970D01*
X0383575Y0172115D01*
X0383593Y0172259D01*
X0383614Y0172402D01*
X0383640Y0172545D01*
X0383669Y0172687D01*
X0383703Y0172829D01*
X0383740Y0172969D01*
X0383781Y0173108D01*
X0383826Y0173246D01*
X0383875Y0173383D01*
X0383927Y0173519D01*
X0383983Y0173653D01*
X0384043Y0173785D01*
X0384106Y0173916D01*
X0384173Y0174044D01*
X0384243Y0174172D01*
X0384317Y0174297D01*
X0384394Y0174420D01*
X0384474Y0174540D01*
X0384558Y0174659D01*
X0384645Y0174775D01*
X0384735Y0174889D01*
X0384828Y0175001D01*
X0384924Y0175109D01*
X0385024Y0175215D01*
X0385125Y0175319D01*
X0385230Y0175419D01*
X0385338Y0175517D01*
X0385448Y0175612D01*
X0385560Y0175703D01*
X0385675Y0175792D01*
X0385793Y0175877D01*
X0385913Y0175959D01*
X0386035Y0176038D01*
X0386159Y0176114D01*
X0386285Y0176186D01*
X0386413Y0176254D01*
X0386543Y0176319D01*
X0386674Y0176381D01*
X0386807Y0176438D01*
X0386942Y0176493D01*
X0387078Y0176543D01*
X0387216Y0176590D01*
X0387354Y0176633D01*
X0387494Y0176672D01*
X0387635Y0176707D01*
X0387777Y0176739D01*
X0387919Y0176766D01*
X0388062Y0176790D01*
X0388206Y0176810D01*
X0388351Y0176826D01*
X0388495Y0176838D01*
X0388640Y0176846D01*
X0388785Y0176850D01*
X0388931Y0176850D01*
X0389076Y0176846D01*
X0389221Y0176838D01*
X0389365Y0176826D01*
X0389510Y0176810D01*
X0389654Y0176790D01*
X0389797Y0176766D01*
X0389939Y0176739D01*
X0390081Y0176707D01*
X0390222Y0176672D01*
X0390362Y0176633D01*
X0390500Y0176590D01*
X0390638Y0176543D01*
X0390774Y0176493D01*
X0390909Y0176438D01*
X0391042Y0176381D01*
X0391173Y0176319D01*
X0391303Y0176254D01*
X0391431Y0176186D01*
X0391557Y0176114D01*
X0391681Y0176038D01*
X0391803Y0175959D01*
X0391923Y0175877D01*
X0392041Y0175792D01*
X0392156Y0175703D01*
X0392268Y0175612D01*
X0392378Y0175517D01*
X0392486Y0175419D01*
X0392591Y0175319D01*
X0392692Y0175215D01*
X0392792Y0175109D01*
X0392888Y0175001D01*
X0392981Y0174889D01*
X0393071Y0174775D01*
X0393158Y0174659D01*
X0393242Y0174540D01*
X0393322Y0174420D01*
X0393399Y0174297D01*
X0393473Y0174172D01*
X0393543Y0174044D01*
X0393610Y0173916D01*
X0393673Y0173785D01*
X0393733Y0173653D01*
X0393789Y0173519D01*
X0393841Y0173383D01*
X0393890Y0173246D01*
X0393935Y0173108D01*
X0393976Y0172969D01*
X0394013Y0172829D01*
X0394047Y0172687D01*
X0394076Y0172545D01*
X0394102Y0172402D01*
X0394123Y0172259D01*
X0394141Y0172115D01*
X0394155Y0171970D01*
X0394165Y0171825D01*
X0394171Y0171680D01*
X0394173Y0171535D01*
X0394171Y0171390D01*
X0394165Y0171245D01*
X0394155Y0171100D01*
X0394141Y0170955D01*
X0394123Y0170811D01*
X0394102Y0170668D01*
X0394076Y0170525D01*
X0394047Y0170383D01*
X0394013Y0170241D01*
X0393976Y0170101D01*
X0393935Y0169962D01*
X0393890Y0169824D01*
X0393841Y0169687D01*
X0393789Y0169551D01*
X0393733Y0169417D01*
X0393673Y0169285D01*
X0393610Y0169154D01*
X0393543Y0169026D01*
X0393473Y0168898D01*
X0393399Y0168773D01*
X0393322Y0168650D01*
X0393242Y0168530D01*
X0393158Y0168411D01*
X0393071Y0168295D01*
X0392981Y0168181D01*
X0392888Y0168069D01*
X0392792Y0167961D01*
X0392692Y0167855D01*
X0392591Y0167751D01*
X0392486Y0167651D01*
X0392378Y0167553D01*
X0392268Y0167458D01*
X0392156Y0167367D01*
X0392041Y0167278D01*
X0391923Y0167193D01*
X0391803Y0167111D01*
X0391681Y0167032D01*
X0391557Y0166956D01*
X0391431Y0166884D01*
X0391303Y0166816D01*
X0391173Y0166751D01*
X0391042Y0166689D01*
X0390909Y0166632D01*
X0390774Y0166577D01*
X0390638Y0166527D01*
X0390500Y0166480D01*
X0390362Y0166437D01*
X0390222Y0166398D01*
X0390081Y0166363D01*
X0389939Y0166331D01*
X0389797Y0166304D01*
X0389654Y0166280D01*
X0389510Y0166260D01*
X0389365Y0166244D01*
X0389221Y0166232D01*
X0389076Y0166224D01*
X0388931Y0166220D01*
X0388785Y0166220D01*
X0388640Y0166224D01*
X0388495Y0166232D01*
X0388351Y0166244D01*
X0388206Y0166260D01*
X0388062Y0166280D01*
X0387919Y0166304D01*
X0387777Y0166331D01*
X0387635Y0166363D01*
X0387494Y0166398D01*
X0387354Y0166437D01*
X0387216Y0166480D01*
X0387078Y0166527D01*
X0386942Y0166577D01*
X0386807Y0166632D01*
X0386674Y0166689D01*
X0386543Y0166751D01*
X0386413Y0166816D01*
X0386285Y0166884D01*
X0386159Y0166956D01*
X0386035Y0167032D01*
X0385913Y0167111D01*
X0385793Y0167193D01*
X0385675Y0167278D01*
X0385560Y0167367D01*
X0385448Y0167458D01*
X0385338Y0167553D01*
X0385230Y0167651D01*
X0385125Y0167751D01*
X0385024Y0167855D01*
X0384924Y0167961D01*
X0384828Y0168069D01*
X0384735Y0168181D01*
X0384645Y0168295D01*
X0384558Y0168411D01*
X0384474Y0168530D01*
X0384394Y0168650D01*
X0384317Y0168773D01*
X0384243Y0168898D01*
X0384173Y0169026D01*
X0384106Y0169154D01*
X0384043Y0169285D01*
X0383983Y0169417D01*
X0383927Y0169551D01*
X0383875Y0169687D01*
X0383826Y0169824D01*
X0383781Y0169962D01*
X0383740Y0170101D01*
X0383703Y0170241D01*
X0383669Y0170383D01*
X0383640Y0170525D01*
X0383614Y0170668D01*
X0383593Y0170811D01*
X0383575Y0170955D01*
X0383561Y0171100D01*
X0383551Y0171245D01*
X0383545Y0171390D01*
X0383543Y0171535D01*
X0360669Y0320748D02*
X0360671Y0320912D01*
X0360677Y0321076D01*
X0360687Y0321240D01*
X0360701Y0321404D01*
X0360719Y0321567D01*
X0360741Y0321730D01*
X0360768Y0321892D01*
X0360798Y0322054D01*
X0360832Y0322214D01*
X0360870Y0322374D01*
X0360911Y0322533D01*
X0360957Y0322691D01*
X0361007Y0322847D01*
X0361060Y0323003D01*
X0361117Y0323157D01*
X0361178Y0323309D01*
X0361243Y0323460D01*
X0361312Y0323610D01*
X0361384Y0323757D01*
X0361459Y0323903D01*
X0361539Y0324047D01*
X0361621Y0324189D01*
X0361707Y0324329D01*
X0361797Y0324466D01*
X0361890Y0324602D01*
X0361986Y0324735D01*
X0362086Y0324866D01*
X0362188Y0324994D01*
X0362294Y0325120D01*
X0362403Y0325243D01*
X0362515Y0325363D01*
X0362629Y0325481D01*
X0362747Y0325595D01*
X0362867Y0325707D01*
X0362990Y0325816D01*
X0363116Y0325922D01*
X0363244Y0326024D01*
X0363375Y0326124D01*
X0363508Y0326220D01*
X0363644Y0326313D01*
X0363781Y0326403D01*
X0363921Y0326489D01*
X0364063Y0326571D01*
X0364207Y0326651D01*
X0364353Y0326726D01*
X0364500Y0326798D01*
X0364650Y0326867D01*
X0364801Y0326932D01*
X0364953Y0326993D01*
X0365107Y0327050D01*
X0365263Y0327103D01*
X0365419Y0327153D01*
X0365577Y0327199D01*
X0365736Y0327240D01*
X0365896Y0327278D01*
X0366056Y0327312D01*
X0366218Y0327342D01*
X0366380Y0327369D01*
X0366543Y0327391D01*
X0366706Y0327409D01*
X0366870Y0327423D01*
X0367034Y0327433D01*
X0367198Y0327439D01*
X0367362Y0327441D01*
X0367526Y0327439D01*
X0367690Y0327433D01*
X0367854Y0327423D01*
X0368018Y0327409D01*
X0368181Y0327391D01*
X0368344Y0327369D01*
X0368506Y0327342D01*
X0368668Y0327312D01*
X0368828Y0327278D01*
X0368988Y0327240D01*
X0369147Y0327199D01*
X0369305Y0327153D01*
X0369461Y0327103D01*
X0369617Y0327050D01*
X0369771Y0326993D01*
X0369923Y0326932D01*
X0370074Y0326867D01*
X0370224Y0326798D01*
X0370371Y0326726D01*
X0370517Y0326651D01*
X0370661Y0326571D01*
X0370803Y0326489D01*
X0370943Y0326403D01*
X0371080Y0326313D01*
X0371216Y0326220D01*
X0371349Y0326124D01*
X0371480Y0326024D01*
X0371608Y0325922D01*
X0371734Y0325816D01*
X0371857Y0325707D01*
X0371977Y0325595D01*
X0372095Y0325481D01*
X0372209Y0325363D01*
X0372321Y0325243D01*
X0372430Y0325120D01*
X0372536Y0324994D01*
X0372638Y0324866D01*
X0372738Y0324735D01*
X0372834Y0324602D01*
X0372927Y0324466D01*
X0373017Y0324329D01*
X0373103Y0324189D01*
X0373185Y0324047D01*
X0373265Y0323903D01*
X0373340Y0323757D01*
X0373412Y0323610D01*
X0373481Y0323460D01*
X0373546Y0323309D01*
X0373607Y0323157D01*
X0373664Y0323003D01*
X0373717Y0322847D01*
X0373767Y0322691D01*
X0373813Y0322533D01*
X0373854Y0322374D01*
X0373892Y0322214D01*
X0373926Y0322054D01*
X0373956Y0321892D01*
X0373983Y0321730D01*
X0374005Y0321567D01*
X0374023Y0321404D01*
X0374037Y0321240D01*
X0374047Y0321076D01*
X0374053Y0320912D01*
X0374055Y0320748D01*
X0374053Y0320584D01*
X0374047Y0320420D01*
X0374037Y0320256D01*
X0374023Y0320092D01*
X0374005Y0319929D01*
X0373983Y0319766D01*
X0373956Y0319604D01*
X0373926Y0319442D01*
X0373892Y0319282D01*
X0373854Y0319122D01*
X0373813Y0318963D01*
X0373767Y0318805D01*
X0373717Y0318649D01*
X0373664Y0318493D01*
X0373607Y0318339D01*
X0373546Y0318187D01*
X0373481Y0318036D01*
X0373412Y0317886D01*
X0373340Y0317739D01*
X0373265Y0317593D01*
X0373185Y0317449D01*
X0373103Y0317307D01*
X0373017Y0317167D01*
X0372927Y0317030D01*
X0372834Y0316894D01*
X0372738Y0316761D01*
X0372638Y0316630D01*
X0372536Y0316502D01*
X0372430Y0316376D01*
X0372321Y0316253D01*
X0372209Y0316133D01*
X0372095Y0316015D01*
X0371977Y0315901D01*
X0371857Y0315789D01*
X0371734Y0315680D01*
X0371608Y0315574D01*
X0371480Y0315472D01*
X0371349Y0315372D01*
X0371216Y0315276D01*
X0371080Y0315183D01*
X0370943Y0315093D01*
X0370803Y0315007D01*
X0370661Y0314925D01*
X0370517Y0314845D01*
X0370371Y0314770D01*
X0370224Y0314698D01*
X0370074Y0314629D01*
X0369923Y0314564D01*
X0369771Y0314503D01*
X0369617Y0314446D01*
X0369461Y0314393D01*
X0369305Y0314343D01*
X0369147Y0314297D01*
X0368988Y0314256D01*
X0368828Y0314218D01*
X0368668Y0314184D01*
X0368506Y0314154D01*
X0368344Y0314127D01*
X0368181Y0314105D01*
X0368018Y0314087D01*
X0367854Y0314073D01*
X0367690Y0314063D01*
X0367526Y0314057D01*
X0367362Y0314055D01*
X0367198Y0314057D01*
X0367034Y0314063D01*
X0366870Y0314073D01*
X0366706Y0314087D01*
X0366543Y0314105D01*
X0366380Y0314127D01*
X0366218Y0314154D01*
X0366056Y0314184D01*
X0365896Y0314218D01*
X0365736Y0314256D01*
X0365577Y0314297D01*
X0365419Y0314343D01*
X0365263Y0314393D01*
X0365107Y0314446D01*
X0364953Y0314503D01*
X0364801Y0314564D01*
X0364650Y0314629D01*
X0364500Y0314698D01*
X0364353Y0314770D01*
X0364207Y0314845D01*
X0364063Y0314925D01*
X0363921Y0315007D01*
X0363781Y0315093D01*
X0363644Y0315183D01*
X0363508Y0315276D01*
X0363375Y0315372D01*
X0363244Y0315472D01*
X0363116Y0315574D01*
X0362990Y0315680D01*
X0362867Y0315789D01*
X0362747Y0315901D01*
X0362629Y0316015D01*
X0362515Y0316133D01*
X0362403Y0316253D01*
X0362294Y0316376D01*
X0362188Y0316502D01*
X0362086Y0316630D01*
X0361986Y0316761D01*
X0361890Y0316894D01*
X0361797Y0317030D01*
X0361707Y0317167D01*
X0361621Y0317307D01*
X0361539Y0317449D01*
X0361459Y0317593D01*
X0361384Y0317739D01*
X0361312Y0317886D01*
X0361243Y0318036D01*
X0361178Y0318187D01*
X0361117Y0318339D01*
X0361060Y0318493D01*
X0361007Y0318649D01*
X0360957Y0318805D01*
X0360911Y0318963D01*
X0360870Y0319122D01*
X0360832Y0319282D01*
X0360798Y0319442D01*
X0360768Y0319604D01*
X0360741Y0319766D01*
X0360719Y0319929D01*
X0360701Y0320092D01*
X0360687Y0320256D01*
X0360677Y0320420D01*
X0360671Y0320584D01*
X0360669Y0320748D01*
X0383543Y0399882D02*
X0383545Y0400027D01*
X0383551Y0400172D01*
X0383561Y0400317D01*
X0383575Y0400462D01*
X0383593Y0400606D01*
X0383614Y0400749D01*
X0383640Y0400892D01*
X0383669Y0401034D01*
X0383703Y0401176D01*
X0383740Y0401316D01*
X0383781Y0401455D01*
X0383826Y0401593D01*
X0383875Y0401730D01*
X0383927Y0401866D01*
X0383983Y0402000D01*
X0384043Y0402132D01*
X0384106Y0402263D01*
X0384173Y0402391D01*
X0384243Y0402519D01*
X0384317Y0402644D01*
X0384394Y0402767D01*
X0384474Y0402887D01*
X0384558Y0403006D01*
X0384645Y0403122D01*
X0384735Y0403236D01*
X0384828Y0403348D01*
X0384924Y0403456D01*
X0385024Y0403562D01*
X0385125Y0403666D01*
X0385230Y0403766D01*
X0385338Y0403864D01*
X0385448Y0403959D01*
X0385560Y0404050D01*
X0385675Y0404139D01*
X0385793Y0404224D01*
X0385913Y0404306D01*
X0386035Y0404385D01*
X0386159Y0404461D01*
X0386285Y0404533D01*
X0386413Y0404601D01*
X0386543Y0404666D01*
X0386674Y0404728D01*
X0386807Y0404785D01*
X0386942Y0404840D01*
X0387078Y0404890D01*
X0387216Y0404937D01*
X0387354Y0404980D01*
X0387494Y0405019D01*
X0387635Y0405054D01*
X0387777Y0405086D01*
X0387919Y0405113D01*
X0388062Y0405137D01*
X0388206Y0405157D01*
X0388351Y0405173D01*
X0388495Y0405185D01*
X0388640Y0405193D01*
X0388785Y0405197D01*
X0388931Y0405197D01*
X0389076Y0405193D01*
X0389221Y0405185D01*
X0389365Y0405173D01*
X0389510Y0405157D01*
X0389654Y0405137D01*
X0389797Y0405113D01*
X0389939Y0405086D01*
X0390081Y0405054D01*
X0390222Y0405019D01*
X0390362Y0404980D01*
X0390500Y0404937D01*
X0390638Y0404890D01*
X0390774Y0404840D01*
X0390909Y0404785D01*
X0391042Y0404728D01*
X0391173Y0404666D01*
X0391303Y0404601D01*
X0391431Y0404533D01*
X0391557Y0404461D01*
X0391681Y0404385D01*
X0391803Y0404306D01*
X0391923Y0404224D01*
X0392041Y0404139D01*
X0392156Y0404050D01*
X0392268Y0403959D01*
X0392378Y0403864D01*
X0392486Y0403766D01*
X0392591Y0403666D01*
X0392692Y0403562D01*
X0392792Y0403456D01*
X0392888Y0403348D01*
X0392981Y0403236D01*
X0393071Y0403122D01*
X0393158Y0403006D01*
X0393242Y0402887D01*
X0393322Y0402767D01*
X0393399Y0402644D01*
X0393473Y0402519D01*
X0393543Y0402391D01*
X0393610Y0402263D01*
X0393673Y0402132D01*
X0393733Y0402000D01*
X0393789Y0401866D01*
X0393841Y0401730D01*
X0393890Y0401593D01*
X0393935Y0401455D01*
X0393976Y0401316D01*
X0394013Y0401176D01*
X0394047Y0401034D01*
X0394076Y0400892D01*
X0394102Y0400749D01*
X0394123Y0400606D01*
X0394141Y0400462D01*
X0394155Y0400317D01*
X0394165Y0400172D01*
X0394171Y0400027D01*
X0394173Y0399882D01*
X0394171Y0399737D01*
X0394165Y0399592D01*
X0394155Y0399447D01*
X0394141Y0399302D01*
X0394123Y0399158D01*
X0394102Y0399015D01*
X0394076Y0398872D01*
X0394047Y0398730D01*
X0394013Y0398588D01*
X0393976Y0398448D01*
X0393935Y0398309D01*
X0393890Y0398171D01*
X0393841Y0398034D01*
X0393789Y0397898D01*
X0393733Y0397764D01*
X0393673Y0397632D01*
X0393610Y0397501D01*
X0393543Y0397373D01*
X0393473Y0397245D01*
X0393399Y0397120D01*
X0393322Y0396997D01*
X0393242Y0396877D01*
X0393158Y0396758D01*
X0393071Y0396642D01*
X0392981Y0396528D01*
X0392888Y0396416D01*
X0392792Y0396308D01*
X0392692Y0396202D01*
X0392591Y0396098D01*
X0392486Y0395998D01*
X0392378Y0395900D01*
X0392268Y0395805D01*
X0392156Y0395714D01*
X0392041Y0395625D01*
X0391923Y0395540D01*
X0391803Y0395458D01*
X0391681Y0395379D01*
X0391557Y0395303D01*
X0391431Y0395231D01*
X0391303Y0395163D01*
X0391173Y0395098D01*
X0391042Y0395036D01*
X0390909Y0394979D01*
X0390774Y0394924D01*
X0390638Y0394874D01*
X0390500Y0394827D01*
X0390362Y0394784D01*
X0390222Y0394745D01*
X0390081Y0394710D01*
X0389939Y0394678D01*
X0389797Y0394651D01*
X0389654Y0394627D01*
X0389510Y0394607D01*
X0389365Y0394591D01*
X0389221Y0394579D01*
X0389076Y0394571D01*
X0388931Y0394567D01*
X0388785Y0394567D01*
X0388640Y0394571D01*
X0388495Y0394579D01*
X0388351Y0394591D01*
X0388206Y0394607D01*
X0388062Y0394627D01*
X0387919Y0394651D01*
X0387777Y0394678D01*
X0387635Y0394710D01*
X0387494Y0394745D01*
X0387354Y0394784D01*
X0387216Y0394827D01*
X0387078Y0394874D01*
X0386942Y0394924D01*
X0386807Y0394979D01*
X0386674Y0395036D01*
X0386543Y0395098D01*
X0386413Y0395163D01*
X0386285Y0395231D01*
X0386159Y0395303D01*
X0386035Y0395379D01*
X0385913Y0395458D01*
X0385793Y0395540D01*
X0385675Y0395625D01*
X0385560Y0395714D01*
X0385448Y0395805D01*
X0385338Y0395900D01*
X0385230Y0395998D01*
X0385125Y0396098D01*
X0385024Y0396202D01*
X0384924Y0396308D01*
X0384828Y0396416D01*
X0384735Y0396528D01*
X0384645Y0396642D01*
X0384558Y0396758D01*
X0384474Y0396877D01*
X0384394Y0396997D01*
X0384317Y0397120D01*
X0384243Y0397245D01*
X0384173Y0397373D01*
X0384106Y0397501D01*
X0384043Y0397632D01*
X0383983Y0397764D01*
X0383927Y0397898D01*
X0383875Y0398034D01*
X0383826Y0398171D01*
X0383781Y0398309D01*
X0383740Y0398448D01*
X0383703Y0398588D01*
X0383669Y0398730D01*
X0383640Y0398872D01*
X0383614Y0399015D01*
X0383593Y0399158D01*
X0383575Y0399302D01*
X0383561Y0399447D01*
X0383551Y0399592D01*
X0383545Y0399737D01*
X0383543Y0399882D01*
X0190630Y0399882D02*
X0190632Y0400027D01*
X0190638Y0400172D01*
X0190648Y0400317D01*
X0190662Y0400462D01*
X0190680Y0400606D01*
X0190701Y0400749D01*
X0190727Y0400892D01*
X0190756Y0401034D01*
X0190790Y0401176D01*
X0190827Y0401316D01*
X0190868Y0401455D01*
X0190913Y0401593D01*
X0190962Y0401730D01*
X0191014Y0401866D01*
X0191070Y0402000D01*
X0191130Y0402132D01*
X0191193Y0402263D01*
X0191260Y0402391D01*
X0191330Y0402519D01*
X0191404Y0402644D01*
X0191481Y0402767D01*
X0191561Y0402887D01*
X0191645Y0403006D01*
X0191732Y0403122D01*
X0191822Y0403236D01*
X0191915Y0403348D01*
X0192011Y0403456D01*
X0192111Y0403562D01*
X0192212Y0403666D01*
X0192317Y0403766D01*
X0192425Y0403864D01*
X0192535Y0403959D01*
X0192647Y0404050D01*
X0192762Y0404139D01*
X0192880Y0404224D01*
X0193000Y0404306D01*
X0193122Y0404385D01*
X0193246Y0404461D01*
X0193372Y0404533D01*
X0193500Y0404601D01*
X0193630Y0404666D01*
X0193761Y0404728D01*
X0193894Y0404785D01*
X0194029Y0404840D01*
X0194165Y0404890D01*
X0194303Y0404937D01*
X0194441Y0404980D01*
X0194581Y0405019D01*
X0194722Y0405054D01*
X0194864Y0405086D01*
X0195006Y0405113D01*
X0195149Y0405137D01*
X0195293Y0405157D01*
X0195438Y0405173D01*
X0195582Y0405185D01*
X0195727Y0405193D01*
X0195872Y0405197D01*
X0196018Y0405197D01*
X0196163Y0405193D01*
X0196308Y0405185D01*
X0196452Y0405173D01*
X0196597Y0405157D01*
X0196741Y0405137D01*
X0196884Y0405113D01*
X0197026Y0405086D01*
X0197168Y0405054D01*
X0197309Y0405019D01*
X0197449Y0404980D01*
X0197587Y0404937D01*
X0197725Y0404890D01*
X0197861Y0404840D01*
X0197996Y0404785D01*
X0198129Y0404728D01*
X0198260Y0404666D01*
X0198390Y0404601D01*
X0198518Y0404533D01*
X0198644Y0404461D01*
X0198768Y0404385D01*
X0198890Y0404306D01*
X0199010Y0404224D01*
X0199128Y0404139D01*
X0199243Y0404050D01*
X0199355Y0403959D01*
X0199465Y0403864D01*
X0199573Y0403766D01*
X0199678Y0403666D01*
X0199779Y0403562D01*
X0199879Y0403456D01*
X0199975Y0403348D01*
X0200068Y0403236D01*
X0200158Y0403122D01*
X0200245Y0403006D01*
X0200329Y0402887D01*
X0200409Y0402767D01*
X0200486Y0402644D01*
X0200560Y0402519D01*
X0200630Y0402391D01*
X0200697Y0402263D01*
X0200760Y0402132D01*
X0200820Y0402000D01*
X0200876Y0401866D01*
X0200928Y0401730D01*
X0200977Y0401593D01*
X0201022Y0401455D01*
X0201063Y0401316D01*
X0201100Y0401176D01*
X0201134Y0401034D01*
X0201163Y0400892D01*
X0201189Y0400749D01*
X0201210Y0400606D01*
X0201228Y0400462D01*
X0201242Y0400317D01*
X0201252Y0400172D01*
X0201258Y0400027D01*
X0201260Y0399882D01*
X0201258Y0399737D01*
X0201252Y0399592D01*
X0201242Y0399447D01*
X0201228Y0399302D01*
X0201210Y0399158D01*
X0201189Y0399015D01*
X0201163Y0398872D01*
X0201134Y0398730D01*
X0201100Y0398588D01*
X0201063Y0398448D01*
X0201022Y0398309D01*
X0200977Y0398171D01*
X0200928Y0398034D01*
X0200876Y0397898D01*
X0200820Y0397764D01*
X0200760Y0397632D01*
X0200697Y0397501D01*
X0200630Y0397373D01*
X0200560Y0397245D01*
X0200486Y0397120D01*
X0200409Y0396997D01*
X0200329Y0396877D01*
X0200245Y0396758D01*
X0200158Y0396642D01*
X0200068Y0396528D01*
X0199975Y0396416D01*
X0199879Y0396308D01*
X0199779Y0396202D01*
X0199678Y0396098D01*
X0199573Y0395998D01*
X0199465Y0395900D01*
X0199355Y0395805D01*
X0199243Y0395714D01*
X0199128Y0395625D01*
X0199010Y0395540D01*
X0198890Y0395458D01*
X0198768Y0395379D01*
X0198644Y0395303D01*
X0198518Y0395231D01*
X0198390Y0395163D01*
X0198260Y0395098D01*
X0198129Y0395036D01*
X0197996Y0394979D01*
X0197861Y0394924D01*
X0197725Y0394874D01*
X0197587Y0394827D01*
X0197449Y0394784D01*
X0197309Y0394745D01*
X0197168Y0394710D01*
X0197026Y0394678D01*
X0196884Y0394651D01*
X0196741Y0394627D01*
X0196597Y0394607D01*
X0196452Y0394591D01*
X0196308Y0394579D01*
X0196163Y0394571D01*
X0196018Y0394567D01*
X0195872Y0394567D01*
X0195727Y0394571D01*
X0195582Y0394579D01*
X0195438Y0394591D01*
X0195293Y0394607D01*
X0195149Y0394627D01*
X0195006Y0394651D01*
X0194864Y0394678D01*
X0194722Y0394710D01*
X0194581Y0394745D01*
X0194441Y0394784D01*
X0194303Y0394827D01*
X0194165Y0394874D01*
X0194029Y0394924D01*
X0193894Y0394979D01*
X0193761Y0395036D01*
X0193630Y0395098D01*
X0193500Y0395163D01*
X0193372Y0395231D01*
X0193246Y0395303D01*
X0193122Y0395379D01*
X0193000Y0395458D01*
X0192880Y0395540D01*
X0192762Y0395625D01*
X0192647Y0395714D01*
X0192535Y0395805D01*
X0192425Y0395900D01*
X0192317Y0395998D01*
X0192212Y0396098D01*
X0192111Y0396202D01*
X0192011Y0396308D01*
X0191915Y0396416D01*
X0191822Y0396528D01*
X0191732Y0396642D01*
X0191645Y0396758D01*
X0191561Y0396877D01*
X0191481Y0396997D01*
X0191404Y0397120D01*
X0191330Y0397245D01*
X0191260Y0397373D01*
X0191193Y0397501D01*
X0191130Y0397632D01*
X0191070Y0397764D01*
X0191014Y0397898D01*
X0190962Y0398034D01*
X0190913Y0398171D01*
X0190868Y0398309D01*
X0190827Y0398448D01*
X0190790Y0398588D01*
X0190756Y0398730D01*
X0190727Y0398872D01*
X0190701Y0399015D01*
X0190680Y0399158D01*
X0190662Y0399302D01*
X0190648Y0399447D01*
X0190638Y0399592D01*
X0190632Y0399737D01*
X0190630Y0399882D01*
X0160669Y0380591D02*
X0160671Y0380755D01*
X0160677Y0380919D01*
X0160687Y0381083D01*
X0160701Y0381247D01*
X0160719Y0381410D01*
X0160741Y0381573D01*
X0160768Y0381735D01*
X0160798Y0381897D01*
X0160832Y0382057D01*
X0160870Y0382217D01*
X0160911Y0382376D01*
X0160957Y0382534D01*
X0161007Y0382690D01*
X0161060Y0382846D01*
X0161117Y0383000D01*
X0161178Y0383152D01*
X0161243Y0383303D01*
X0161312Y0383453D01*
X0161384Y0383600D01*
X0161459Y0383746D01*
X0161539Y0383890D01*
X0161621Y0384032D01*
X0161707Y0384172D01*
X0161797Y0384309D01*
X0161890Y0384445D01*
X0161986Y0384578D01*
X0162086Y0384709D01*
X0162188Y0384837D01*
X0162294Y0384963D01*
X0162403Y0385086D01*
X0162515Y0385206D01*
X0162629Y0385324D01*
X0162747Y0385438D01*
X0162867Y0385550D01*
X0162990Y0385659D01*
X0163116Y0385765D01*
X0163244Y0385867D01*
X0163375Y0385967D01*
X0163508Y0386063D01*
X0163644Y0386156D01*
X0163781Y0386246D01*
X0163921Y0386332D01*
X0164063Y0386414D01*
X0164207Y0386494D01*
X0164353Y0386569D01*
X0164500Y0386641D01*
X0164650Y0386710D01*
X0164801Y0386775D01*
X0164953Y0386836D01*
X0165107Y0386893D01*
X0165263Y0386946D01*
X0165419Y0386996D01*
X0165577Y0387042D01*
X0165736Y0387083D01*
X0165896Y0387121D01*
X0166056Y0387155D01*
X0166218Y0387185D01*
X0166380Y0387212D01*
X0166543Y0387234D01*
X0166706Y0387252D01*
X0166870Y0387266D01*
X0167034Y0387276D01*
X0167198Y0387282D01*
X0167362Y0387284D01*
X0167526Y0387282D01*
X0167690Y0387276D01*
X0167854Y0387266D01*
X0168018Y0387252D01*
X0168181Y0387234D01*
X0168344Y0387212D01*
X0168506Y0387185D01*
X0168668Y0387155D01*
X0168828Y0387121D01*
X0168988Y0387083D01*
X0169147Y0387042D01*
X0169305Y0386996D01*
X0169461Y0386946D01*
X0169617Y0386893D01*
X0169771Y0386836D01*
X0169923Y0386775D01*
X0170074Y0386710D01*
X0170224Y0386641D01*
X0170371Y0386569D01*
X0170517Y0386494D01*
X0170661Y0386414D01*
X0170803Y0386332D01*
X0170943Y0386246D01*
X0171080Y0386156D01*
X0171216Y0386063D01*
X0171349Y0385967D01*
X0171480Y0385867D01*
X0171608Y0385765D01*
X0171734Y0385659D01*
X0171857Y0385550D01*
X0171977Y0385438D01*
X0172095Y0385324D01*
X0172209Y0385206D01*
X0172321Y0385086D01*
X0172430Y0384963D01*
X0172536Y0384837D01*
X0172638Y0384709D01*
X0172738Y0384578D01*
X0172834Y0384445D01*
X0172927Y0384309D01*
X0173017Y0384172D01*
X0173103Y0384032D01*
X0173185Y0383890D01*
X0173265Y0383746D01*
X0173340Y0383600D01*
X0173412Y0383453D01*
X0173481Y0383303D01*
X0173546Y0383152D01*
X0173607Y0383000D01*
X0173664Y0382846D01*
X0173717Y0382690D01*
X0173767Y0382534D01*
X0173813Y0382376D01*
X0173854Y0382217D01*
X0173892Y0382057D01*
X0173926Y0381897D01*
X0173956Y0381735D01*
X0173983Y0381573D01*
X0174005Y0381410D01*
X0174023Y0381247D01*
X0174037Y0381083D01*
X0174047Y0380919D01*
X0174053Y0380755D01*
X0174055Y0380591D01*
X0174053Y0380427D01*
X0174047Y0380263D01*
X0174037Y0380099D01*
X0174023Y0379935D01*
X0174005Y0379772D01*
X0173983Y0379609D01*
X0173956Y0379447D01*
X0173926Y0379285D01*
X0173892Y0379125D01*
X0173854Y0378965D01*
X0173813Y0378806D01*
X0173767Y0378648D01*
X0173717Y0378492D01*
X0173664Y0378336D01*
X0173607Y0378182D01*
X0173546Y0378030D01*
X0173481Y0377879D01*
X0173412Y0377729D01*
X0173340Y0377582D01*
X0173265Y0377436D01*
X0173185Y0377292D01*
X0173103Y0377150D01*
X0173017Y0377010D01*
X0172927Y0376873D01*
X0172834Y0376737D01*
X0172738Y0376604D01*
X0172638Y0376473D01*
X0172536Y0376345D01*
X0172430Y0376219D01*
X0172321Y0376096D01*
X0172209Y0375976D01*
X0172095Y0375858D01*
X0171977Y0375744D01*
X0171857Y0375632D01*
X0171734Y0375523D01*
X0171608Y0375417D01*
X0171480Y0375315D01*
X0171349Y0375215D01*
X0171216Y0375119D01*
X0171080Y0375026D01*
X0170943Y0374936D01*
X0170803Y0374850D01*
X0170661Y0374768D01*
X0170517Y0374688D01*
X0170371Y0374613D01*
X0170224Y0374541D01*
X0170074Y0374472D01*
X0169923Y0374407D01*
X0169771Y0374346D01*
X0169617Y0374289D01*
X0169461Y0374236D01*
X0169305Y0374186D01*
X0169147Y0374140D01*
X0168988Y0374099D01*
X0168828Y0374061D01*
X0168668Y0374027D01*
X0168506Y0373997D01*
X0168344Y0373970D01*
X0168181Y0373948D01*
X0168018Y0373930D01*
X0167854Y0373916D01*
X0167690Y0373906D01*
X0167526Y0373900D01*
X0167362Y0373898D01*
X0167198Y0373900D01*
X0167034Y0373906D01*
X0166870Y0373916D01*
X0166706Y0373930D01*
X0166543Y0373948D01*
X0166380Y0373970D01*
X0166218Y0373997D01*
X0166056Y0374027D01*
X0165896Y0374061D01*
X0165736Y0374099D01*
X0165577Y0374140D01*
X0165419Y0374186D01*
X0165263Y0374236D01*
X0165107Y0374289D01*
X0164953Y0374346D01*
X0164801Y0374407D01*
X0164650Y0374472D01*
X0164500Y0374541D01*
X0164353Y0374613D01*
X0164207Y0374688D01*
X0164063Y0374768D01*
X0163921Y0374850D01*
X0163781Y0374936D01*
X0163644Y0375026D01*
X0163508Y0375119D01*
X0163375Y0375215D01*
X0163244Y0375315D01*
X0163116Y0375417D01*
X0162990Y0375523D01*
X0162867Y0375632D01*
X0162747Y0375744D01*
X0162629Y0375858D01*
X0162515Y0375976D01*
X0162403Y0376096D01*
X0162294Y0376219D01*
X0162188Y0376345D01*
X0162086Y0376473D01*
X0161986Y0376604D01*
X0161890Y0376737D01*
X0161797Y0376873D01*
X0161707Y0377010D01*
X0161621Y0377150D01*
X0161539Y0377292D01*
X0161459Y0377436D01*
X0161384Y0377582D01*
X0161312Y0377729D01*
X0161243Y0377879D01*
X0161178Y0378030D01*
X0161117Y0378182D01*
X0161060Y0378336D01*
X0161007Y0378492D01*
X0160957Y0378648D01*
X0160911Y0378806D01*
X0160870Y0378965D01*
X0160832Y0379125D01*
X0160798Y0379285D01*
X0160768Y0379447D01*
X0160741Y0379609D01*
X0160719Y0379772D01*
X0160701Y0379935D01*
X0160687Y0380099D01*
X0160677Y0380263D01*
X0160671Y0380427D01*
X0160669Y0380591D01*
X0092205Y0399882D02*
X0092207Y0400027D01*
X0092213Y0400172D01*
X0092223Y0400317D01*
X0092237Y0400462D01*
X0092255Y0400606D01*
X0092276Y0400749D01*
X0092302Y0400892D01*
X0092331Y0401034D01*
X0092365Y0401176D01*
X0092402Y0401316D01*
X0092443Y0401455D01*
X0092488Y0401593D01*
X0092537Y0401730D01*
X0092589Y0401866D01*
X0092645Y0402000D01*
X0092705Y0402132D01*
X0092768Y0402263D01*
X0092835Y0402391D01*
X0092905Y0402519D01*
X0092979Y0402644D01*
X0093056Y0402767D01*
X0093136Y0402887D01*
X0093220Y0403006D01*
X0093307Y0403122D01*
X0093397Y0403236D01*
X0093490Y0403348D01*
X0093586Y0403456D01*
X0093686Y0403562D01*
X0093787Y0403666D01*
X0093892Y0403766D01*
X0094000Y0403864D01*
X0094110Y0403959D01*
X0094222Y0404050D01*
X0094337Y0404139D01*
X0094455Y0404224D01*
X0094575Y0404306D01*
X0094697Y0404385D01*
X0094821Y0404461D01*
X0094947Y0404533D01*
X0095075Y0404601D01*
X0095205Y0404666D01*
X0095336Y0404728D01*
X0095469Y0404785D01*
X0095604Y0404840D01*
X0095740Y0404890D01*
X0095878Y0404937D01*
X0096016Y0404980D01*
X0096156Y0405019D01*
X0096297Y0405054D01*
X0096439Y0405086D01*
X0096581Y0405113D01*
X0096724Y0405137D01*
X0096868Y0405157D01*
X0097013Y0405173D01*
X0097157Y0405185D01*
X0097302Y0405193D01*
X0097447Y0405197D01*
X0097593Y0405197D01*
X0097738Y0405193D01*
X0097883Y0405185D01*
X0098027Y0405173D01*
X0098172Y0405157D01*
X0098316Y0405137D01*
X0098459Y0405113D01*
X0098601Y0405086D01*
X0098743Y0405054D01*
X0098884Y0405019D01*
X0099024Y0404980D01*
X0099162Y0404937D01*
X0099300Y0404890D01*
X0099436Y0404840D01*
X0099571Y0404785D01*
X0099704Y0404728D01*
X0099835Y0404666D01*
X0099965Y0404601D01*
X0100093Y0404533D01*
X0100219Y0404461D01*
X0100343Y0404385D01*
X0100465Y0404306D01*
X0100585Y0404224D01*
X0100703Y0404139D01*
X0100818Y0404050D01*
X0100930Y0403959D01*
X0101040Y0403864D01*
X0101148Y0403766D01*
X0101253Y0403666D01*
X0101354Y0403562D01*
X0101454Y0403456D01*
X0101550Y0403348D01*
X0101643Y0403236D01*
X0101733Y0403122D01*
X0101820Y0403006D01*
X0101904Y0402887D01*
X0101984Y0402767D01*
X0102061Y0402644D01*
X0102135Y0402519D01*
X0102205Y0402391D01*
X0102272Y0402263D01*
X0102335Y0402132D01*
X0102395Y0402000D01*
X0102451Y0401866D01*
X0102503Y0401730D01*
X0102552Y0401593D01*
X0102597Y0401455D01*
X0102638Y0401316D01*
X0102675Y0401176D01*
X0102709Y0401034D01*
X0102738Y0400892D01*
X0102764Y0400749D01*
X0102785Y0400606D01*
X0102803Y0400462D01*
X0102817Y0400317D01*
X0102827Y0400172D01*
X0102833Y0400027D01*
X0102835Y0399882D01*
X0102833Y0399737D01*
X0102827Y0399592D01*
X0102817Y0399447D01*
X0102803Y0399302D01*
X0102785Y0399158D01*
X0102764Y0399015D01*
X0102738Y0398872D01*
X0102709Y0398730D01*
X0102675Y0398588D01*
X0102638Y0398448D01*
X0102597Y0398309D01*
X0102552Y0398171D01*
X0102503Y0398034D01*
X0102451Y0397898D01*
X0102395Y0397764D01*
X0102335Y0397632D01*
X0102272Y0397501D01*
X0102205Y0397373D01*
X0102135Y0397245D01*
X0102061Y0397120D01*
X0101984Y0396997D01*
X0101904Y0396877D01*
X0101820Y0396758D01*
X0101733Y0396642D01*
X0101643Y0396528D01*
X0101550Y0396416D01*
X0101454Y0396308D01*
X0101354Y0396202D01*
X0101253Y0396098D01*
X0101148Y0395998D01*
X0101040Y0395900D01*
X0100930Y0395805D01*
X0100818Y0395714D01*
X0100703Y0395625D01*
X0100585Y0395540D01*
X0100465Y0395458D01*
X0100343Y0395379D01*
X0100219Y0395303D01*
X0100093Y0395231D01*
X0099965Y0395163D01*
X0099835Y0395098D01*
X0099704Y0395036D01*
X0099571Y0394979D01*
X0099436Y0394924D01*
X0099300Y0394874D01*
X0099162Y0394827D01*
X0099024Y0394784D01*
X0098884Y0394745D01*
X0098743Y0394710D01*
X0098601Y0394678D01*
X0098459Y0394651D01*
X0098316Y0394627D01*
X0098172Y0394607D01*
X0098027Y0394591D01*
X0097883Y0394579D01*
X0097738Y0394571D01*
X0097593Y0394567D01*
X0097447Y0394567D01*
X0097302Y0394571D01*
X0097157Y0394579D01*
X0097013Y0394591D01*
X0096868Y0394607D01*
X0096724Y0394627D01*
X0096581Y0394651D01*
X0096439Y0394678D01*
X0096297Y0394710D01*
X0096156Y0394745D01*
X0096016Y0394784D01*
X0095878Y0394827D01*
X0095740Y0394874D01*
X0095604Y0394924D01*
X0095469Y0394979D01*
X0095336Y0395036D01*
X0095205Y0395098D01*
X0095075Y0395163D01*
X0094947Y0395231D01*
X0094821Y0395303D01*
X0094697Y0395379D01*
X0094575Y0395458D01*
X0094455Y0395540D01*
X0094337Y0395625D01*
X0094222Y0395714D01*
X0094110Y0395805D01*
X0094000Y0395900D01*
X0093892Y0395998D01*
X0093787Y0396098D01*
X0093686Y0396202D01*
X0093586Y0396308D01*
X0093490Y0396416D01*
X0093397Y0396528D01*
X0093307Y0396642D01*
X0093220Y0396758D01*
X0093136Y0396877D01*
X0093056Y0396997D01*
X0092979Y0397120D01*
X0092905Y0397245D01*
X0092835Y0397373D01*
X0092768Y0397501D01*
X0092705Y0397632D01*
X0092645Y0397764D01*
X0092589Y0397898D01*
X0092537Y0398034D01*
X0092488Y0398171D01*
X0092443Y0398309D01*
X0092402Y0398448D01*
X0092365Y0398588D01*
X0092331Y0398730D01*
X0092302Y0398872D01*
X0092276Y0399015D01*
X0092255Y0399158D01*
X0092237Y0399302D01*
X0092223Y0399447D01*
X0092213Y0399592D01*
X0092207Y0399737D01*
X0092205Y0399882D01*
D11*
X0107362Y0390433D02*
X0107362Y0346732D01*
X0107362Y0390433D02*
X0187874Y0390433D01*
X0204016Y0390433D02*
X0361299Y0390433D01*
X0367205Y0384528D01*
X0367205Y0340236D01*
X0377244Y0330197D01*
X0377244Y0269370D01*
X0377244Y0236299D02*
X0377244Y0200866D01*
X0367205Y0190827D01*
X0367205Y0180787D01*
X0204213Y0180787D01*
X0187677Y0180787D02*
X0107362Y0180787D01*
X0107362Y0193189D01*
D12*
X0122170Y0173180D02*
X0126173Y0173180D01*
X0127508Y0171846D01*
X0127508Y0169177D01*
X0126173Y0167842D01*
X0122170Y0167842D01*
X0124839Y0167842D02*
X0127508Y0165173D01*
X0131378Y0166508D02*
X0131378Y0169177D01*
X0132712Y0170511D01*
X0135381Y0170511D01*
X0136715Y0169177D01*
X0136715Y0167842D01*
X0131378Y0167842D01*
X0131378Y0166508D02*
X0132712Y0165173D01*
X0135381Y0165173D01*
X0140585Y0170511D02*
X0143254Y0165173D01*
X0145923Y0170511D01*
X0149793Y0166508D02*
X0151128Y0166508D01*
X0151128Y0165173D01*
X0149793Y0165173D01*
X0149793Y0166508D01*
X0163798Y0165173D02*
X0163798Y0170511D01*
X0166467Y0173180D01*
X0169136Y0170511D01*
X0169136Y0165173D01*
X0169136Y0169177D02*
X0163798Y0169177D01*
X0122170Y0165173D02*
X0122170Y0173180D01*
X0121443Y0398244D02*
X0120109Y0399579D01*
X0121443Y0398244D02*
X0124112Y0398244D01*
X0125447Y0399579D01*
X0125447Y0400913D01*
X0124112Y0402248D01*
X0122778Y0402248D01*
X0124112Y0402248D02*
X0125447Y0403582D01*
X0125447Y0404916D01*
X0124112Y0406251D01*
X0121443Y0406251D01*
X0120109Y0404916D01*
X0115305Y0406251D02*
X0115305Y0398244D01*
X0116639Y0398244D02*
X0113970Y0398244D01*
X0113970Y0406251D02*
X0115305Y0406251D01*
X0129317Y0406251D02*
X0130651Y0406251D01*
X0130651Y0398244D01*
X0129317Y0398244D02*
X0131985Y0398244D01*
X0135455Y0399579D02*
X0136790Y0400913D01*
X0140793Y0400913D01*
X0140793Y0402248D02*
X0140793Y0398244D01*
X0136790Y0398244D01*
X0135455Y0399579D01*
X0136790Y0403582D02*
X0139459Y0403582D01*
X0140793Y0402248D01*
X0144663Y0403582D02*
X0148666Y0403582D01*
X0150001Y0402248D01*
X0150001Y0398244D01*
X0153871Y0399579D02*
X0155205Y0398244D01*
X0157874Y0398244D01*
X0159209Y0399579D01*
X0159209Y0400913D01*
X0157874Y0402248D01*
X0155205Y0402248D01*
X0153871Y0403582D01*
X0153871Y0404916D01*
X0155205Y0406251D01*
X0157874Y0406251D01*
X0159209Y0404916D01*
X0163079Y0403582D02*
X0167082Y0403582D01*
X0168417Y0402248D01*
X0168417Y0399579D01*
X0167082Y0398244D01*
X0163079Y0398244D01*
X0163079Y0395575D02*
X0163079Y0403582D01*
X0172287Y0403582D02*
X0172287Y0399579D01*
X0173621Y0398244D01*
X0177624Y0398244D01*
X0177624Y0396910D02*
X0176290Y0395575D01*
X0174955Y0395575D01*
X0177624Y0396910D02*
X0177624Y0403582D01*
X0144663Y0403582D02*
X0144663Y0398244D01*
D13*
X0254056Y0396108D02*
X0254056Y0395241D01*
X0254490Y0394807D01*
X0256224Y0394807D01*
X0256658Y0395241D01*
X0256658Y0396108D01*
X0256224Y0396542D01*
X0255791Y0396542D01*
X0255357Y0396108D01*
X0255357Y0394807D01*
X0254056Y0396108D02*
X0254490Y0396542D01*
X0254490Y0400700D02*
X0256224Y0400700D01*
X0256658Y0401134D01*
X0256658Y0402001D01*
X0256224Y0402435D01*
X0254490Y0402435D01*
X0254056Y0402001D01*
X0254056Y0401134D01*
X0254490Y0400700D01*
X0254056Y0403532D02*
X0254056Y0404400D01*
X0254056Y0403966D02*
X0256658Y0403966D01*
X0256658Y0404400D02*
X0256658Y0403532D01*
X0256224Y0405611D02*
X0255357Y0405611D01*
X0254923Y0406045D01*
X0254923Y0407346D01*
X0254056Y0407346D02*
X0256658Y0407346D01*
X0256658Y0406045D01*
X0256224Y0405611D01*
X0258856Y0405063D02*
X0259290Y0404629D01*
X0261024Y0404629D01*
X0261458Y0405063D01*
X0261458Y0406364D01*
X0258856Y0406364D01*
X0258856Y0405063D01*
X0258856Y0403417D02*
X0258856Y0402116D01*
X0259290Y0401683D01*
X0259723Y0401683D01*
X0260157Y0402116D01*
X0260157Y0403417D01*
X0260157Y0402116D02*
X0260591Y0401683D01*
X0261024Y0401683D01*
X0261458Y0402116D01*
X0261458Y0403417D01*
X0258856Y0403417D01*
X0258856Y0400471D02*
X0258856Y0398736D01*
X0258856Y0399603D02*
X0261458Y0399603D01*
X0260591Y0400471D01*
X0264095Y0402607D02*
X0264529Y0402174D01*
X0266264Y0402174D01*
X0266697Y0402607D01*
X0266697Y0403475D01*
X0266264Y0403908D01*
X0264529Y0403908D01*
X0264095Y0403475D01*
X0264095Y0402607D01*
X0264095Y0405005D02*
X0264095Y0405873D01*
X0264095Y0405439D02*
X0266697Y0405439D01*
X0266697Y0405873D02*
X0266697Y0405005D01*
X0266264Y0407084D02*
X0265396Y0407084D01*
X0264963Y0407518D01*
X0264963Y0408819D01*
X0264095Y0408819D02*
X0266697Y0408819D01*
X0266697Y0407518D01*
X0266264Y0407084D01*
X0268895Y0407403D02*
X0268895Y0406536D01*
X0269329Y0406102D01*
X0271497Y0406102D01*
X0271064Y0404891D02*
X0270630Y0404891D01*
X0270196Y0404457D01*
X0270196Y0403590D01*
X0269763Y0403156D01*
X0269329Y0403156D01*
X0268895Y0403590D01*
X0268895Y0404457D01*
X0269329Y0404891D01*
X0271064Y0404891D02*
X0271497Y0404457D01*
X0271497Y0403590D01*
X0271064Y0403156D01*
X0271497Y0401944D02*
X0271497Y0400643D01*
X0271064Y0400209D01*
X0270196Y0400209D01*
X0269763Y0400643D01*
X0269763Y0401944D01*
X0269763Y0401077D02*
X0268895Y0400209D01*
X0268895Y0401944D02*
X0271497Y0401944D01*
X0270196Y0398998D02*
X0270196Y0397263D01*
X0268895Y0397696D02*
X0271497Y0397696D01*
X0270196Y0398998D01*
X0266697Y0397148D02*
X0264095Y0397148D01*
X0264095Y0398015D02*
X0264095Y0396281D01*
X0264529Y0395069D02*
X0266264Y0393334D01*
X0264529Y0393334D01*
X0264095Y0393768D01*
X0264095Y0394635D01*
X0264529Y0395069D01*
X0266264Y0395069D01*
X0266697Y0394635D01*
X0266697Y0393768D01*
X0266264Y0393334D01*
X0266697Y0397148D02*
X0265830Y0398015D01*
X0268895Y0407403D02*
X0269329Y0407837D01*
X0271497Y0407837D01*
X0266697Y0410465D02*
X0266697Y0411332D01*
X0266264Y0411766D01*
X0264529Y0411766D01*
X0264095Y0411332D01*
X0264095Y0410465D01*
X0264529Y0410031D01*
X0265396Y0410031D01*
X0265396Y0410898D01*
X0266264Y0410031D02*
X0266697Y0410465D01*
X0256658Y0409859D02*
X0256658Y0408991D01*
X0256224Y0408558D01*
X0255357Y0408558D02*
X0255357Y0409425D01*
X0255357Y0408558D02*
X0254490Y0408558D01*
X0254056Y0408991D01*
X0254056Y0409859D01*
X0254490Y0410293D01*
X0256224Y0410293D01*
X0256658Y0409859D01*
X0283977Y0409859D02*
X0283977Y0408991D01*
X0284411Y0408558D01*
X0285278Y0408558D01*
X0285278Y0409425D01*
X0284411Y0410293D02*
X0283977Y0409859D01*
X0284411Y0410293D02*
X0286146Y0410293D01*
X0286579Y0409859D01*
X0286579Y0408991D01*
X0286146Y0408558D01*
X0286579Y0407346D02*
X0286579Y0406045D01*
X0286146Y0405611D01*
X0285278Y0405611D01*
X0284845Y0406045D01*
X0284845Y0407346D01*
X0283977Y0407346D02*
X0286579Y0407346D01*
X0288777Y0407403D02*
X0288777Y0406536D01*
X0289211Y0406102D01*
X0291379Y0406102D01*
X0290946Y0404891D02*
X0290512Y0404891D01*
X0290078Y0404457D01*
X0290078Y0403590D01*
X0289645Y0403156D01*
X0289211Y0403156D01*
X0288777Y0403590D01*
X0288777Y0404457D01*
X0289211Y0404891D01*
X0290946Y0404891D02*
X0291379Y0404457D01*
X0291379Y0403590D01*
X0290946Y0403156D01*
X0291379Y0401944D02*
X0291379Y0400643D01*
X0290946Y0400209D01*
X0290078Y0400209D01*
X0289645Y0400643D01*
X0289645Y0401944D01*
X0289645Y0401077D02*
X0288777Y0400209D01*
X0289211Y0398998D02*
X0288777Y0398564D01*
X0288777Y0397696D01*
X0289211Y0397263D01*
X0289645Y0397263D01*
X0290078Y0397696D01*
X0290078Y0398130D01*
X0290078Y0397696D02*
X0290512Y0397263D01*
X0290946Y0397263D01*
X0291379Y0397696D01*
X0291379Y0398564D01*
X0290946Y0398998D01*
X0291379Y0401944D02*
X0288777Y0401944D01*
X0286579Y0402001D02*
X0286146Y0402435D01*
X0284411Y0402435D01*
X0283977Y0402001D01*
X0283977Y0401134D01*
X0284411Y0400700D01*
X0286146Y0400700D01*
X0286579Y0401134D01*
X0286579Y0402001D01*
X0286579Y0403532D02*
X0286579Y0404400D01*
X0286579Y0403966D02*
X0283977Y0403966D01*
X0283977Y0404400D02*
X0283977Y0403532D01*
X0283977Y0399489D02*
X0285712Y0397754D01*
X0286146Y0397754D01*
X0286579Y0398188D01*
X0286579Y0399055D01*
X0286146Y0399489D01*
X0283977Y0399489D02*
X0283977Y0397754D01*
X0283977Y0396542D02*
X0285712Y0394807D01*
X0286146Y0394807D01*
X0286579Y0395241D01*
X0286579Y0396108D01*
X0286146Y0396542D01*
X0283977Y0396542D02*
X0283977Y0394807D01*
X0294017Y0395069D02*
X0294450Y0395069D01*
X0296185Y0393334D01*
X0296619Y0393334D01*
X0296619Y0395069D01*
X0296185Y0396281D02*
X0296619Y0396714D01*
X0296619Y0397582D01*
X0296185Y0398015D01*
X0296185Y0396281D02*
X0295751Y0396281D01*
X0294017Y0398015D01*
X0294017Y0396281D01*
X0298817Y0397263D02*
X0298817Y0398998D01*
X0300551Y0397263D01*
X0300985Y0397263D01*
X0301419Y0397696D01*
X0301419Y0398564D01*
X0300985Y0398998D01*
X0300985Y0400209D02*
X0300118Y0400209D01*
X0299684Y0400643D01*
X0299684Y0401944D01*
X0299684Y0401077D02*
X0298817Y0400209D01*
X0298817Y0401944D02*
X0301419Y0401944D01*
X0301419Y0400643D01*
X0300985Y0400209D01*
X0300985Y0403156D02*
X0301419Y0403590D01*
X0301419Y0404457D01*
X0300985Y0404891D01*
X0300551Y0404891D01*
X0300118Y0404457D01*
X0300118Y0403590D01*
X0299684Y0403156D01*
X0299250Y0403156D01*
X0298817Y0403590D01*
X0298817Y0404457D01*
X0299250Y0404891D01*
X0299250Y0406102D02*
X0301419Y0406102D01*
X0301419Y0407837D02*
X0299250Y0407837D01*
X0298817Y0407403D01*
X0298817Y0406536D01*
X0299250Y0406102D01*
X0296619Y0405873D02*
X0296619Y0405005D01*
X0296619Y0405439D02*
X0294017Y0405439D01*
X0294017Y0405873D02*
X0294017Y0405005D01*
X0294450Y0403908D02*
X0294017Y0403475D01*
X0294017Y0402607D01*
X0294450Y0402174D01*
X0296185Y0402174D01*
X0296619Y0402607D01*
X0296619Y0403475D01*
X0296185Y0403908D01*
X0294450Y0403908D01*
X0295318Y0407084D02*
X0294884Y0407518D01*
X0294884Y0408819D01*
X0294017Y0408819D02*
X0296619Y0408819D01*
X0296619Y0407518D01*
X0296185Y0407084D01*
X0295318Y0407084D01*
X0295318Y0410031D02*
X0295318Y0410898D01*
X0295318Y0410031D02*
X0294450Y0410031D01*
X0294017Y0410465D01*
X0294017Y0411332D01*
X0294450Y0411766D01*
X0296185Y0411766D01*
X0296619Y0411332D01*
X0296619Y0410465D01*
X0296185Y0410031D01*
X0291379Y0407837D02*
X0289211Y0407837D01*
X0288777Y0407403D01*
X0304056Y0407346D02*
X0306658Y0407346D01*
X0306658Y0406045D01*
X0306224Y0405611D01*
X0305357Y0405611D01*
X0304923Y0406045D01*
X0304923Y0407346D01*
X0304490Y0408558D02*
X0305357Y0408558D01*
X0305357Y0409425D01*
X0304490Y0408558D02*
X0304056Y0408991D01*
X0304056Y0409859D01*
X0304490Y0410293D01*
X0306224Y0410293D01*
X0306658Y0409859D01*
X0306658Y0408991D01*
X0306224Y0408558D01*
X0308856Y0407403D02*
X0308856Y0406536D01*
X0309290Y0406102D01*
X0311458Y0406102D01*
X0311024Y0404891D02*
X0310591Y0404891D01*
X0310157Y0404457D01*
X0310157Y0403590D01*
X0309723Y0403156D01*
X0309290Y0403156D01*
X0308856Y0403590D01*
X0308856Y0404457D01*
X0309290Y0404891D01*
X0311024Y0404891D02*
X0311458Y0404457D01*
X0311458Y0403590D01*
X0311024Y0403156D01*
X0311458Y0401944D02*
X0311458Y0400643D01*
X0311024Y0400209D01*
X0310157Y0400209D01*
X0309723Y0400643D01*
X0309723Y0401944D01*
X0308856Y0401944D02*
X0311458Y0401944D01*
X0309723Y0401077D02*
X0308856Y0400209D01*
X0308856Y0398998D02*
X0308856Y0397263D01*
X0308856Y0398130D02*
X0311458Y0398130D01*
X0310591Y0398998D01*
X0306658Y0398621D02*
X0305791Y0399489D01*
X0306658Y0398621D02*
X0304056Y0398621D01*
X0304056Y0397754D02*
X0304056Y0399489D01*
X0304490Y0400700D02*
X0306224Y0400700D01*
X0306658Y0401134D01*
X0306658Y0402001D01*
X0306224Y0402435D01*
X0304490Y0402435D01*
X0304056Y0402001D01*
X0304056Y0401134D01*
X0304490Y0400700D01*
X0304056Y0403532D02*
X0304056Y0404400D01*
X0304056Y0403966D02*
X0306658Y0403966D01*
X0306658Y0404400D02*
X0306658Y0403532D01*
X0308856Y0407403D02*
X0309290Y0407837D01*
X0311458Y0407837D01*
X0314095Y0407346D02*
X0316697Y0407346D01*
X0316697Y0406045D01*
X0316264Y0405611D01*
X0315396Y0405611D01*
X0314963Y0406045D01*
X0314963Y0407346D01*
X0315396Y0408558D02*
X0315396Y0409425D01*
X0315396Y0408558D02*
X0314529Y0408558D01*
X0314095Y0408991D01*
X0314095Y0409859D01*
X0314529Y0410293D01*
X0316264Y0410293D01*
X0316697Y0409859D01*
X0316697Y0408991D01*
X0316264Y0408558D01*
X0318895Y0407403D02*
X0318895Y0406536D01*
X0319329Y0406102D01*
X0321497Y0406102D01*
X0321064Y0404891D02*
X0320630Y0404891D01*
X0320196Y0404457D01*
X0320196Y0403590D01*
X0319763Y0403156D01*
X0319329Y0403156D01*
X0318895Y0403590D01*
X0318895Y0404457D01*
X0319329Y0404891D01*
X0321064Y0404891D02*
X0321497Y0404457D01*
X0321497Y0403590D01*
X0321064Y0403156D01*
X0321497Y0401944D02*
X0321497Y0400643D01*
X0321064Y0400209D01*
X0320196Y0400209D01*
X0319763Y0400643D01*
X0319763Y0401944D01*
X0319763Y0401077D02*
X0318895Y0400209D01*
X0319329Y0398998D02*
X0321064Y0397263D01*
X0319329Y0397263D01*
X0318895Y0397696D01*
X0318895Y0398564D01*
X0319329Y0398998D01*
X0321064Y0398998D01*
X0321497Y0398564D01*
X0321497Y0397696D01*
X0321064Y0397263D01*
X0324135Y0396108D02*
X0324568Y0396542D01*
X0324135Y0396108D02*
X0324135Y0395241D01*
X0324568Y0394807D01*
X0325002Y0394807D01*
X0325436Y0395241D01*
X0325436Y0395675D01*
X0325436Y0395241D02*
X0325869Y0394807D01*
X0326303Y0394807D01*
X0326737Y0395241D01*
X0326737Y0396108D01*
X0326303Y0396542D01*
X0328935Y0398736D02*
X0328935Y0400471D01*
X0331537Y0400471D01*
X0331103Y0401683D02*
X0331537Y0402116D01*
X0331537Y0402984D01*
X0331103Y0403417D01*
X0329368Y0403417D01*
X0328935Y0402984D01*
X0328935Y0402116D01*
X0329368Y0401683D01*
X0326737Y0402001D02*
X0326303Y0402435D01*
X0324568Y0402435D01*
X0324135Y0402001D01*
X0324135Y0401134D01*
X0324568Y0400700D01*
X0326303Y0400700D01*
X0326737Y0401134D01*
X0326737Y0402001D01*
X0326737Y0403532D02*
X0326737Y0404400D01*
X0326737Y0403966D02*
X0324135Y0403966D01*
X0324135Y0404400D02*
X0324135Y0403532D01*
X0325436Y0405611D02*
X0325002Y0406045D01*
X0325002Y0407346D01*
X0324135Y0407346D02*
X0326737Y0407346D01*
X0326737Y0406045D01*
X0326303Y0405611D01*
X0325436Y0405611D01*
X0325436Y0408558D02*
X0325436Y0409425D01*
X0325436Y0408558D02*
X0324568Y0408558D01*
X0324135Y0408991D01*
X0324135Y0409859D01*
X0324568Y0410293D01*
X0326303Y0410293D01*
X0326737Y0409859D01*
X0326737Y0408991D01*
X0326303Y0408558D01*
X0328935Y0405930D02*
X0329368Y0406364D01*
X0328935Y0405930D02*
X0328935Y0405063D01*
X0329368Y0404629D01*
X0329802Y0404629D01*
X0330236Y0405063D01*
X0330236Y0405930D01*
X0330669Y0406364D01*
X0331103Y0406364D01*
X0331537Y0405930D01*
X0331537Y0405063D01*
X0331103Y0404629D01*
X0333977Y0404400D02*
X0333977Y0403532D01*
X0333977Y0403966D02*
X0336579Y0403966D01*
X0336579Y0404400D02*
X0336579Y0403532D01*
X0336146Y0402435D02*
X0334411Y0402435D01*
X0333977Y0402001D01*
X0333977Y0401134D01*
X0334411Y0400700D01*
X0336146Y0400700D01*
X0336579Y0401134D01*
X0336579Y0402001D01*
X0336146Y0402435D01*
X0338777Y0402116D02*
X0339211Y0401683D01*
X0340946Y0401683D01*
X0341379Y0402116D01*
X0341379Y0403417D01*
X0338777Y0403417D01*
X0338777Y0402116D01*
X0338777Y0400471D02*
X0340512Y0400471D01*
X0341379Y0399603D01*
X0340512Y0398736D01*
X0338777Y0398736D01*
X0340078Y0398736D02*
X0340078Y0400471D01*
X0339645Y0404629D02*
X0339211Y0404629D01*
X0338777Y0405063D01*
X0338777Y0405930D01*
X0339211Y0406364D01*
X0340078Y0405930D02*
X0340078Y0405063D01*
X0339645Y0404629D01*
X0340946Y0404629D02*
X0341379Y0405063D01*
X0341379Y0405930D01*
X0340946Y0406364D01*
X0340512Y0406364D01*
X0340078Y0405930D01*
X0336579Y0406045D02*
X0336146Y0405611D01*
X0335278Y0405611D01*
X0334845Y0406045D01*
X0334845Y0407346D01*
X0333977Y0407346D02*
X0336579Y0407346D01*
X0336579Y0406045D01*
X0336146Y0408558D02*
X0336579Y0408991D01*
X0336579Y0409859D01*
X0336146Y0410293D01*
X0334411Y0410293D01*
X0333977Y0409859D01*
X0333977Y0408991D01*
X0334411Y0408558D01*
X0335278Y0408558D01*
X0335278Y0409425D01*
X0336146Y0396542D02*
X0336579Y0396108D01*
X0336579Y0395241D01*
X0336146Y0394807D01*
X0335712Y0394807D01*
X0333977Y0396542D01*
X0333977Y0394807D01*
X0321497Y0401944D02*
X0318895Y0401944D01*
X0316697Y0402001D02*
X0316264Y0402435D01*
X0314529Y0402435D01*
X0314095Y0402001D01*
X0314095Y0401134D01*
X0314529Y0400700D01*
X0316264Y0400700D01*
X0316697Y0401134D01*
X0316697Y0402001D01*
X0316697Y0403532D02*
X0316697Y0404400D01*
X0316697Y0403966D02*
X0314095Y0403966D01*
X0314095Y0404400D02*
X0314095Y0403532D01*
X0318895Y0407403D02*
X0319329Y0407837D01*
X0321497Y0407837D01*
X0315396Y0396542D02*
X0315396Y0394807D01*
X0314095Y0395241D02*
X0316697Y0395241D01*
X0315396Y0396542D01*
X0306658Y0396542D02*
X0306658Y0394807D01*
X0306224Y0394807D01*
X0304490Y0396542D01*
X0304056Y0396542D01*
X0278130Y0372350D02*
X0276395Y0372350D01*
X0276395Y0371049D01*
X0277263Y0371483D01*
X0277696Y0371483D01*
X0278130Y0371049D01*
X0278130Y0370182D01*
X0277696Y0369748D01*
X0276829Y0369748D01*
X0276395Y0370182D01*
X0274750Y0370182D02*
X0274750Y0372350D01*
X0274316Y0372350D02*
X0275184Y0372350D01*
X0274750Y0370182D02*
X0274316Y0369748D01*
X0273882Y0369748D01*
X0273449Y0370182D01*
X0363409Y0370182D02*
X0363843Y0369748D01*
X0364277Y0369748D01*
X0364710Y0370182D01*
X0364710Y0372350D01*
X0364277Y0372350D02*
X0365144Y0372350D01*
X0366356Y0371049D02*
X0368091Y0371049D01*
X0367657Y0369748D02*
X0367657Y0372350D01*
X0366356Y0371049D01*
X0372882Y0379448D02*
X0374617Y0379448D01*
X0373749Y0379448D02*
X0373749Y0382050D01*
X0372882Y0381183D01*
X0372276Y0386448D02*
X0372710Y0386882D01*
X0372710Y0389050D01*
X0373143Y0389050D02*
X0372276Y0389050D01*
X0374355Y0388183D02*
X0375223Y0389050D01*
X0375223Y0386448D01*
X0376090Y0386448D02*
X0374355Y0386448D01*
X0372276Y0386448D02*
X0371842Y0386448D01*
X0371409Y0386882D01*
X0260972Y0263192D02*
X0260104Y0262758D01*
X0259237Y0261891D01*
X0260538Y0261891D01*
X0260972Y0261457D01*
X0260972Y0261023D01*
X0260538Y0260590D01*
X0259671Y0260590D01*
X0259237Y0261023D01*
X0259237Y0261891D01*
X0258025Y0263192D02*
X0257158Y0263192D01*
X0257592Y0263192D02*
X0257592Y0261023D01*
X0257158Y0260590D01*
X0256724Y0260590D01*
X0256290Y0261023D01*
X0249537Y0254609D02*
X0249537Y0252007D01*
X0250404Y0252007D02*
X0248669Y0252007D01*
X0248669Y0253742D02*
X0249537Y0254609D01*
X0278669Y0243308D02*
X0280404Y0243308D01*
X0279970Y0242007D02*
X0279970Y0244609D01*
X0278669Y0243308D01*
X0278922Y0234846D02*
X0280657Y0234846D01*
X0280657Y0234412D01*
X0278922Y0232677D01*
X0278922Y0232243D01*
X0277277Y0232677D02*
X0277277Y0234846D01*
X0277710Y0234846D02*
X0276843Y0234846D01*
X0277277Y0232677D02*
X0276843Y0232243D01*
X0276409Y0232243D01*
X0275976Y0232677D01*
X0296528Y0201381D02*
X0297395Y0201381D01*
X0296962Y0201381D02*
X0296962Y0199212D01*
X0296528Y0198779D01*
X0296094Y0198779D01*
X0295661Y0199212D01*
X0298607Y0199212D02*
X0299041Y0198779D01*
X0299908Y0198779D01*
X0300342Y0199212D01*
X0300342Y0199646D01*
X0299908Y0200080D01*
X0299474Y0200080D01*
X0299908Y0200080D02*
X0300342Y0200514D01*
X0300342Y0200947D01*
X0299908Y0201381D01*
X0299041Y0201381D01*
X0298607Y0200947D01*
X0304293Y0178695D02*
X0303859Y0178261D01*
X0303859Y0177394D01*
X0304293Y0176960D01*
X0305160Y0176960D01*
X0305160Y0177828D01*
X0306028Y0178695D02*
X0304293Y0178695D01*
X0306028Y0178695D02*
X0306461Y0178261D01*
X0306461Y0177394D01*
X0306028Y0176960D01*
X0306461Y0175748D02*
X0306461Y0174447D01*
X0306028Y0174014D01*
X0305160Y0174014D01*
X0304726Y0174447D01*
X0304726Y0175748D01*
X0303859Y0175748D02*
X0306461Y0175748D01*
X0308659Y0174766D02*
X0308659Y0173465D01*
X0309093Y0173031D01*
X0310828Y0173031D01*
X0311261Y0173465D01*
X0311261Y0174766D01*
X0308659Y0174766D01*
X0308659Y0171820D02*
X0310394Y0171820D01*
X0311261Y0170952D01*
X0310394Y0170085D01*
X0308659Y0170085D01*
X0309093Y0168873D02*
X0308659Y0168440D01*
X0308659Y0167572D01*
X0309093Y0167138D01*
X0309093Y0165927D02*
X0310828Y0164192D01*
X0309093Y0164192D01*
X0308659Y0164626D01*
X0308659Y0165493D01*
X0309093Y0165927D01*
X0310828Y0165927D01*
X0311261Y0165493D01*
X0311261Y0164626D01*
X0310828Y0164192D01*
X0310828Y0167138D02*
X0311261Y0167572D01*
X0311261Y0168440D01*
X0310828Y0168873D01*
X0309093Y0168873D01*
X0309960Y0170085D02*
X0309960Y0171820D01*
X0306461Y0171935D02*
X0306461Y0172802D01*
X0306461Y0172368D02*
X0303859Y0172368D01*
X0303859Y0171935D02*
X0303859Y0172802D01*
X0304293Y0170838D02*
X0303859Y0170404D01*
X0303859Y0169536D01*
X0304293Y0169103D01*
X0306028Y0169103D01*
X0306461Y0169536D01*
X0306461Y0170404D01*
X0306028Y0170838D01*
X0304293Y0170838D01*
X0314489Y0170404D02*
X0314489Y0169536D01*
X0314923Y0169103D01*
X0316657Y0169103D01*
X0317091Y0169536D01*
X0317091Y0170404D01*
X0316657Y0170838D01*
X0314923Y0170838D01*
X0314489Y0170404D01*
X0314489Y0171935D02*
X0314489Y0172802D01*
X0314489Y0172368D02*
X0317091Y0172368D01*
X0317091Y0171935D02*
X0317091Y0172802D01*
X0316657Y0174014D02*
X0315790Y0174014D01*
X0315356Y0174447D01*
X0315356Y0175748D01*
X0314489Y0175748D02*
X0317091Y0175748D01*
X0317091Y0174447D01*
X0316657Y0174014D01*
X0319289Y0174766D02*
X0321024Y0174766D01*
X0321891Y0173899D01*
X0321024Y0173031D01*
X0319289Y0173031D01*
X0319289Y0171820D02*
X0319289Y0170519D01*
X0319723Y0170085D01*
X0321457Y0170085D01*
X0321891Y0170519D01*
X0321891Y0171820D01*
X0319289Y0171820D01*
X0320590Y0173031D02*
X0320590Y0174766D01*
X0323938Y0175748D02*
X0326540Y0175748D01*
X0326540Y0174447D01*
X0326106Y0174014D01*
X0325239Y0174014D01*
X0324805Y0174447D01*
X0324805Y0175748D01*
X0324371Y0176960D02*
X0325239Y0176960D01*
X0325239Y0177828D01*
X0326106Y0178695D02*
X0324371Y0178695D01*
X0323938Y0178261D01*
X0323938Y0177394D01*
X0324371Y0176960D01*
X0326106Y0176960D02*
X0326540Y0177394D01*
X0326540Y0178261D01*
X0326106Y0178695D01*
X0328738Y0173408D02*
X0331340Y0173408D01*
X0331340Y0174275D02*
X0331340Y0172540D01*
X0331340Y0171329D02*
X0331340Y0170461D01*
X0331340Y0170895D02*
X0328738Y0170895D01*
X0328738Y0171329D02*
X0328738Y0170461D01*
X0328738Y0169364D02*
X0331340Y0169364D01*
X0330473Y0168497D01*
X0331340Y0167630D01*
X0328738Y0167630D01*
X0328738Y0166418D02*
X0330473Y0164683D01*
X0330906Y0164683D01*
X0331340Y0165117D01*
X0331340Y0165984D01*
X0330906Y0166418D01*
X0328738Y0166418D02*
X0328738Y0164683D01*
X0326540Y0164077D02*
X0323938Y0164077D01*
X0323938Y0163210D02*
X0323938Y0164945D01*
X0325673Y0164945D02*
X0326540Y0164077D01*
X0325239Y0161998D02*
X0325239Y0160697D01*
X0324805Y0160263D01*
X0324371Y0160263D01*
X0323938Y0160697D01*
X0323938Y0161564D01*
X0324371Y0161998D01*
X0325239Y0161998D01*
X0326106Y0161131D01*
X0326540Y0160263D01*
X0321891Y0164626D02*
X0321891Y0165493D01*
X0321457Y0165927D01*
X0319723Y0165927D01*
X0321457Y0164192D01*
X0319723Y0164192D01*
X0319289Y0164626D01*
X0319289Y0165493D01*
X0319723Y0165927D01*
X0319723Y0167138D02*
X0319289Y0167572D01*
X0319289Y0168440D01*
X0319723Y0168873D01*
X0321457Y0168873D01*
X0321891Y0168440D01*
X0321891Y0167572D01*
X0321457Y0167138D01*
X0321891Y0164626D02*
X0321457Y0164192D01*
X0317091Y0164077D02*
X0314489Y0164077D01*
X0314489Y0163210D02*
X0314489Y0164945D01*
X0316224Y0164945D02*
X0317091Y0164077D01*
X0316657Y0161998D02*
X0317091Y0161564D01*
X0317091Y0160697D01*
X0316657Y0160263D01*
X0316224Y0160263D01*
X0315790Y0160697D01*
X0315356Y0160263D01*
X0314923Y0160263D01*
X0314489Y0160697D01*
X0314489Y0161564D01*
X0314923Y0161998D01*
X0315790Y0161131D02*
X0315790Y0160697D01*
X0306461Y0160697D02*
X0306461Y0161564D01*
X0306028Y0161998D01*
X0306461Y0160697D02*
X0306028Y0160263D01*
X0305594Y0160263D01*
X0303859Y0161998D01*
X0303859Y0160263D01*
X0303859Y0163210D02*
X0303859Y0164945D01*
X0303859Y0164077D02*
X0306461Y0164077D01*
X0305594Y0164945D01*
X0314923Y0176960D02*
X0315790Y0176960D01*
X0315790Y0177828D01*
X0314923Y0178695D02*
X0314489Y0178261D01*
X0314489Y0177394D01*
X0314923Y0176960D01*
X0316657Y0176960D02*
X0317091Y0177394D01*
X0317091Y0178261D01*
X0316657Y0178695D01*
X0314923Y0178695D01*
X0323938Y0172802D02*
X0323938Y0171935D01*
X0323938Y0172368D02*
X0326540Y0172368D01*
X0326540Y0171935D02*
X0326540Y0172802D01*
X0326106Y0170838D02*
X0324371Y0170838D01*
X0323938Y0170404D01*
X0323938Y0169536D01*
X0324371Y0169103D01*
X0326106Y0169103D01*
X0326540Y0169536D01*
X0326540Y0170404D01*
X0326106Y0170838D01*
X0278743Y0170346D02*
X0276141Y0168612D01*
X0278743Y0168612D01*
X0278743Y0167400D02*
X0278743Y0166099D01*
X0278309Y0165665D01*
X0276575Y0165665D01*
X0276141Y0166099D01*
X0276141Y0167400D01*
X0278743Y0167400D01*
X0278743Y0170346D02*
X0276141Y0170346D01*
X0276575Y0171558D02*
X0277442Y0171558D01*
X0277442Y0172426D01*
X0276575Y0173293D02*
X0276141Y0172859D01*
X0276141Y0171992D01*
X0276575Y0171558D01*
X0278309Y0171558D02*
X0278743Y0171992D01*
X0278743Y0172859D01*
X0278309Y0173293D01*
X0276575Y0173293D01*
X0268704Y0172859D02*
X0268270Y0173293D01*
X0266535Y0173293D01*
X0266102Y0172859D01*
X0266102Y0171992D01*
X0266535Y0171558D01*
X0267403Y0171558D01*
X0267403Y0172426D01*
X0268270Y0171558D02*
X0268704Y0171992D01*
X0268704Y0172859D01*
X0268704Y0170346D02*
X0266102Y0168612D01*
X0268704Y0168612D01*
X0268704Y0167400D02*
X0268704Y0166099D01*
X0268270Y0165665D01*
X0266535Y0165665D01*
X0266102Y0166099D01*
X0266102Y0167400D01*
X0268704Y0167400D01*
X0268704Y0170346D02*
X0266102Y0170346D01*
X0259255Y0170346D02*
X0259255Y0168612D01*
X0258388Y0169045D02*
X0257954Y0168612D01*
X0257086Y0168612D01*
X0256653Y0169045D01*
X0256653Y0169913D01*
X0257086Y0170346D01*
X0257954Y0170346D02*
X0258388Y0169479D01*
X0258388Y0169045D01*
X0257954Y0170346D02*
X0259255Y0170346D01*
X0257954Y0171558D02*
X0257954Y0173293D01*
X0258821Y0172426D02*
X0257086Y0172426D01*
X0257520Y0167400D02*
X0256653Y0166533D01*
X0257520Y0165665D01*
X0259255Y0165665D01*
X0259255Y0167400D02*
X0257520Y0167400D01*
X0249806Y0167138D02*
X0248071Y0167138D01*
X0247204Y0168006D01*
X0248071Y0168873D01*
X0249806Y0168873D01*
X0249372Y0170085D02*
X0248939Y0170085D01*
X0248505Y0170519D01*
X0248071Y0170085D01*
X0247638Y0170085D01*
X0247204Y0170519D01*
X0247204Y0171386D01*
X0247638Y0171820D01*
X0248505Y0170952D02*
X0248505Y0170519D01*
X0249372Y0170085D02*
X0249806Y0170519D01*
X0249806Y0171386D01*
X0249372Y0171820D01*
X0248505Y0173031D02*
X0248505Y0174766D01*
X0249372Y0173899D02*
X0247638Y0173899D01*
X0241576Y0173293D02*
X0241576Y0171992D01*
X0241143Y0171558D01*
X0240275Y0171558D01*
X0239841Y0171992D01*
X0239841Y0173293D01*
X0238974Y0173293D02*
X0241576Y0173293D01*
X0239841Y0172426D02*
X0238974Y0171558D01*
X0239408Y0170346D02*
X0238974Y0169913D01*
X0238974Y0169045D01*
X0239408Y0168612D01*
X0239841Y0168612D01*
X0240275Y0169045D01*
X0240275Y0169913D01*
X0240709Y0170346D01*
X0241143Y0170346D01*
X0241576Y0169913D01*
X0241576Y0169045D01*
X0241143Y0168612D01*
X0241576Y0167400D02*
X0241576Y0165665D01*
X0241576Y0166533D02*
X0238974Y0166533D01*
X0236776Y0164511D02*
X0236343Y0164945D01*
X0236776Y0164511D02*
X0236776Y0163643D01*
X0236343Y0163210D01*
X0235909Y0163210D01*
X0234174Y0164945D01*
X0234174Y0163210D01*
X0234608Y0161998D02*
X0234174Y0161564D01*
X0234174Y0160697D01*
X0234608Y0160263D01*
X0235041Y0160263D01*
X0235475Y0160697D01*
X0235475Y0161998D01*
X0234608Y0161998D01*
X0235475Y0161998D02*
X0236343Y0161131D01*
X0236776Y0160263D01*
X0236343Y0169103D02*
X0234608Y0169103D01*
X0234174Y0169536D01*
X0234174Y0170404D01*
X0234608Y0170838D01*
X0236343Y0170838D01*
X0236776Y0170404D01*
X0236776Y0169536D01*
X0236343Y0169103D01*
X0236776Y0171935D02*
X0236776Y0172802D01*
X0236776Y0172368D02*
X0234174Y0172368D01*
X0234174Y0171935D02*
X0234174Y0172802D01*
X0235475Y0174014D02*
X0235041Y0174447D01*
X0235041Y0175748D01*
X0234174Y0175748D02*
X0236776Y0175748D01*
X0236776Y0174447D01*
X0236343Y0174014D01*
X0235475Y0174014D01*
X0235475Y0176960D02*
X0235475Y0177828D01*
X0235475Y0176960D02*
X0234608Y0176960D01*
X0234174Y0177394D01*
X0234174Y0178261D01*
X0234608Y0178695D01*
X0236343Y0178695D01*
X0236776Y0178261D01*
X0236776Y0177394D01*
X0236343Y0176960D01*
X0247638Y0165927D02*
X0247204Y0165493D01*
X0247204Y0164626D01*
X0247638Y0164192D01*
X0248071Y0164192D01*
X0248505Y0164626D01*
X0248505Y0165059D01*
X0248505Y0164626D02*
X0248939Y0164192D01*
X0249372Y0164192D01*
X0249806Y0164626D01*
X0249806Y0165493D01*
X0249372Y0165927D01*
X0231444Y0198779D02*
X0229709Y0198779D01*
X0231444Y0200514D01*
X0231444Y0200947D01*
X0231011Y0201381D01*
X0230143Y0201381D01*
X0229709Y0200947D01*
X0228498Y0201381D02*
X0227630Y0201381D01*
X0228064Y0201381D02*
X0228064Y0199212D01*
X0227630Y0198779D01*
X0227197Y0198779D01*
X0226763Y0199212D01*
X0401409Y0190749D02*
X0403143Y0190749D01*
X0402710Y0189448D02*
X0402710Y0192050D01*
X0401409Y0190749D01*
X0404355Y0189882D02*
X0406090Y0191617D01*
X0406090Y0189882D01*
X0405656Y0189448D01*
X0404789Y0189448D01*
X0404355Y0189882D01*
X0404355Y0191617D01*
X0404789Y0192050D01*
X0405656Y0192050D01*
X0406090Y0191617D01*
D14*
X0399055Y0185748D02*
X0379055Y0185748D01*
X0379055Y0375748D01*
X0389055Y0375748D01*
X0389055Y0385748D01*
X0399055Y0385748D01*
X0399055Y0185748D01*
X0362165Y0195669D02*
X0312165Y0195669D01*
X0312165Y0205669D01*
X0362165Y0205669D01*
X0362165Y0195669D01*
X0312165Y0195669D02*
X0302165Y0195669D01*
X0302165Y0205669D01*
X0312165Y0205669D01*
X0292480Y0205669D02*
X0292480Y0195669D01*
X0242480Y0195669D01*
X0242480Y0205669D01*
X0292480Y0205669D01*
X0274764Y0228346D02*
X0264764Y0228346D01*
X0264764Y0238346D01*
X0274764Y0238346D01*
X0274764Y0228346D01*
X0274843Y0238307D02*
X0254843Y0238307D01*
X0254843Y0248307D01*
X0264843Y0248307D01*
X0264843Y0258307D01*
X0274843Y0258307D01*
X0274843Y0238307D01*
X0264764Y0238346D02*
X0254764Y0238346D01*
X0254764Y0228346D01*
X0264764Y0228346D01*
X0254843Y0248307D02*
X0254843Y0258307D01*
X0264843Y0258307D01*
X0242480Y0205669D02*
X0232480Y0205669D01*
X0232480Y0195669D01*
X0242480Y0195669D01*
X0262795Y0365748D02*
X0172795Y0365748D01*
X0172795Y0375748D01*
X0262795Y0375748D01*
X0262795Y0365748D01*
X0272795Y0365748D01*
X0272795Y0375748D01*
X0262795Y0375748D01*
X0282756Y0375748D02*
X0282756Y0365748D01*
X0352756Y0365748D01*
X0352756Y0375748D01*
X0362756Y0375748D01*
X0362756Y0365748D01*
X0352756Y0365748D01*
X0352756Y0375748D02*
X0282756Y0375748D01*
X0379055Y0375748D02*
X0379055Y0385748D01*
X0389055Y0385748D01*
M02*
