%
M48
M72
T01C0.01181
T02C0.03543
T03C0.03937
T04C0.10630
T05C0.13386
%
T01
X123110Y177441
X142795Y177441
X162480Y177441
X182165Y197126
X182165Y216811
X162480Y216811
X201850Y216811
X201850Y197126
X221535Y197126
X221535Y216811
X241220Y216811
X241220Y236496
X241220Y256181
X241220Y275866
X221535Y275866
X201850Y275866
X182165Y275866
X162480Y275866
X162480Y295551
X182165Y295551
X201850Y295551
X221535Y295551
X241220Y295551
X260906Y295551
X280591Y295551
X300276Y295551
X319961Y295551
X339646Y295551
X359331Y295551
X359331Y275866
X339646Y275866
X339646Y256181
X319961Y256181
X319961Y275866
X300276Y275866
X280591Y275866
X280591Y256181
X300276Y256181
X300276Y236496
X319961Y236496
X339646Y236496
X359331Y177441
X339646Y177441
X319961Y177441
X300276Y177441
X280591Y177441
X260906Y177441
X241220Y177441
X221535Y177441
X182165Y177441
X260906Y275866
X260906Y315236
X280591Y315236
X300276Y315236
X319961Y315236
X339646Y315236
X359331Y354606
X359331Y393976
X339646Y393976
X319961Y393976
X300276Y393976
X280591Y393976
X260906Y393976
X241220Y393976
X221535Y393976
X182165Y393976
X162480Y393976
X142795Y374291
X123110Y374291
X103425Y374291
X103425Y354606
X123110Y354606
X142795Y354606
X162480Y354606
X182165Y354606
X201850Y354606
X221535Y354606
X241220Y354606
X260906Y354606
X260906Y334921
X280591Y334921
X241220Y334921
X221535Y334921
X201850Y334921
X182165Y334921
X162480Y334921
X162480Y315236
X182165Y315236
X201850Y315236
X221535Y315236
X241220Y315236
X142795Y393976
X123110Y393976
T02
X290944Y235053
X283144Y232053
T03
X237480Y200669
X247480Y200669
X257480Y200669
X267480Y200669
X277480Y200669
X287480Y200669
X307165Y200669
X317165Y200669
X327165Y200669
X337165Y200669
X347165Y200669
X357165Y200669
X384055Y210748
X394055Y210748
X394055Y200748
X384055Y200748
X384055Y190748
X394055Y190748
X384055Y220748
X394055Y220748
X394055Y230748
X384055Y230748
X384055Y240748
X394055Y240748
X394055Y250748
X384055Y250748
X384055Y260748
X394055Y260748
X394055Y270748
X384055Y270748
X384055Y280748
X394055Y280748
X394055Y290748
X384055Y290748
X384055Y300748
X394055Y300748
X394055Y310748
X384055Y310748
X384055Y320748
X394055Y320748
X394055Y330748
X384055Y330748
X384055Y340748
X384055Y350748
X394055Y350748
X394055Y340748
X394055Y360748
X384055Y360748
X384055Y370748
X394055Y370748
X394055Y380748
X384055Y380748
X357756Y370748
X347756Y370748
X337756Y370748
X327756Y370748
X317756Y370748
X307756Y370748
X297756Y370748
X287756Y370748
X267795Y370748
X257795Y370748
X247795Y370748
X237795Y370748
X227795Y370748
X217795Y370748
X207795Y370748
X197795Y370748
X187795Y370748
X177795Y370748
X259843Y253307
X269843Y253307
X269843Y243307
X259843Y243307
X259764Y233346
X269764Y233346
T04
X388858Y171535
X388858Y399882
X195945Y399882
X97520Y399882
X195945Y171535
X97520Y171535
T05
X167362Y190827
X367362Y210906
X367362Y320748
X167362Y380591
M30
